<?xml version="1.0" encoding="utf-8"?>
<!-- Generator: Adobe Illustrator 16.0.4, SVG Export Plug-In . SVG Version: 6.00 Build 0)  -->
<!DOCTYPE svg PUBLIC "-//W3C//DTD SVG 1.1//EN" "http://www.w3.org/Graphics/SVG/1.1/DTD/svg11.dtd">
<svg version="1.1" id="Layer_1" xmlns="http://www.w3.org/2000/svg" xmlns:xlink="http://www.w3.org/1999/xlink" x="0px" y="0px"
	 width="557.174px" height="195.827px" viewBox="0 0 557.174 195.827" enable-background="new 0 0 557.174 195.827"
	 xml:space="preserve">
<g>
	<linearGradient id="SVGID_1_" gradientUnits="userSpaceOnUse" x1="0" y1="97.9136" x2="557.1743" y2="97.9136">
		<stop  offset="0" style="stop-color:#FFFFFF"/>
		<stop  offset="0.0017" style="stop-color:#FFFFFE"/>
		<stop  offset="0.1688" style="stop-color:#EDE0D2"/>
		<stop  offset="0.3374" style="stop-color:#DEC7AD"/>
		<stop  offset="0.5051" style="stop-color:#D3B391"/>
		<stop  offset="0.6719" style="stop-color:#CBA57C"/>
		<stop  offset="0.8374" style="stop-color:#C69D70"/>
		<stop  offset="1" style="stop-color:#C49A6C"/>
	</linearGradient>
	<path fill="url(#SVGID_1_)" d="M402.769,0c0,0,82.321,105.578,154.405,143.205c-61.386,12.638,5.853,23.526-45.174,48.048
		c-51.027,24.521-343.483-58.302-377.817-42.063c-34.334,16.237-50.187,34.028-50.187,34.028
		C52.266,125.248,57.303,67.578,26.383,46.616C1.237,29.568,0,23.247,0,23.247s34.482,13.168,79.769-0.771
		c27.123-8.349,281.141,36.557,305.827,8.492C412.106,0.83,402.769,0,402.769,0z"/>
	<g>
		<path d="M402.089,0.259c15.504,19.867,32.397,38.757,49.73,57.028c30.568,32.222,64.138,64.505,103.599,85.609
			c0.362,0.194-5.144,1.562-6.04,1.782c-2.456,0.602-4.885,1.304-7.291,2.078c-2.909,0.935-5.91,2.044-8.511,3.68
			c-3.041,1.912-5.309,4.416-4.862,8.195c0.425,3.593,2.492,6.829,3.133,10.396c1.094,6.104-2.976,10.904-7.443,14.479
			c-19.518,15.617-46.627,12.655-69.9,10.703c-33.484-2.809-66.735-8.525-99.796-14.385c-36.096-6.396-72.068-13.464-108.135-20.021
			c-28.069-5.103-56.374-10.499-84.863-12.595c-7.728-0.568-15.872-1.103-23.525,0.443c-6.225,1.257-11.917,5.035-17.382,8.041
			c-9.545,5.248-18.678,11.304-27.157,18.144c-3.596,2.9-7.216,5.961-10.31,9.409c0.462-0.075,0.924-0.15,1.387-0.226
			c-10.407-19.232-17.521-39.778-23.367-60.792c-4.798-17.247-8.489-35.034-15.634-51.519c-2.656-6.126-6.043-11.921-10.388-17.002
			C29.961,47.429,22.5,43.366,15.993,38.412c-4.532-3.45-9.02-7.148-12.749-11.478c-0.912-1.059-2.204-2.45-2.52-3.882
			c-0.438,0.167-0.875,0.333-1.313,0.499c12.268,4.634,26.282,5.709,39.247,5.652c13.304-0.059,26.533-2.237,39.303-5.891
			c3.323-0.951,6.443-1.386,9.906-1.504c25.001-0.853,50.516,2.981,75.325,5.522c35.303,3.616,70.585,7.49,105.967,10.278
			c29.464,2.322,59.633,4.784,89.154,2.019c8.728-0.817,21.216-1.682,27.749-8.473c0.76-0.789,25.806-30.545,17.168-31.482
			c-0.355-0.039-1.684,0.576-0.922,0.658c6.233,0.675-9.936,21.833-10.549,22.6c-3.79,4.735-7.094,9.56-12.775,11.931
			c-4.044,1.688-8.438,2.527-12.746,3.202c-28.347,4.444-58.284,1.635-86.718-0.401c-35.547-2.546-70.99-6.391-106.433-10.063
			c-26.335-2.729-52.904-6.186-79.412-6.498c-14.436-0.17-27.604,5.265-41.934,6.764c-16.542,1.73-35.363,1.043-51.152-4.92
			c-0.249-0.094-1.406,0.078-1.313,0.499c1.124,5.092,8.583,10.039,12.18,12.983c6.548,5.36,14.14,9.505,20.237,15.379
			c5.577,5.372,9.44,12.295,12.578,19.296c7.103,15.845,10.639,33.253,15.197,49.932c5.893,21.56,13.141,42.671,23.804,62.379
			c0.211,0.39,1.175,0.011,1.387-0.226c10.487-11.687,24.92-20.576,38.508-28.048c5.49-3.02,10.948-6.408,17.23-7.27
			c4.016-0.551,8.122-0.532,12.165-0.427c26.491,0.692,53.061,5.931,79.083,10.514c69.747,12.283,139.165,28.108,209.646,35.727
			c13.132,1.419,26.341,2.479,39.557,2.477c9.027-0.002,18.425-0.386,27.118-3.045c6.013-1.84,11.713-5.226,16.77-8.892
			c3.977-2.883,8.263-7.064,8.682-12.263c0.616-7.642-7.677-15.353,0.732-21.065c6.464-4.392,15.425-5.809,22.902-7.377
			c0.063-0.013,1.154-0.386,0.802-0.571c-39.602-20.843-73.142-53.136-103.792-85.249c-17.679-18.521-34.835-37.761-50.607-57.949
			c-0.002-0.002-0.004-0.005-0.006-0.008C403.206-0.571,401.819-0.088,402.089,0.259z"/>
	</g>
</g>
<g>
	<path d="M157.059,131.078l5.979,1.575l0.938,0.949l-19.073-5.078l-1.095-1.106l14.289,0.24l0.969,0.979l-4.498-0.078
		L157.059,131.078z M153.073,128.479l-4.115-0.07c-0.933-0.016-1.819-0.068-2.681-0.118l0.021,0.021
		c1.095,0.264,2.224,0.541,3.375,0.84l5.515,1.467L153.073,128.479z"/>
	<path d="M139.548,123.869l-0.916-0.928l17.576,2.807l0.917,0.927L139.548,123.869z"/>
	<path d="M135.927,118.373l3.441,0.55l-1.313-1.327l1.659,0.264l1.313,1.328l6.461,1.032c1.485,0.237,2.15,0.191,1.64-0.324
		c-0.241-0.243-0.492-0.433-0.68-0.561l1.592,0.219c0.35,0.207,0.755,0.511,1.11,0.87c0.428,0.431,0.449,0.728,0.074,0.854
		c-0.383,0.161-1.353,0.086-2.765-0.14l-6.536-1.044l0.782,0.791l-1.659-0.265l-0.782-0.791l-2.872-0.458L135.927,118.373z"/>
	<path d="M138.412,112.939c4.431,0.707,7.654,2.322,8.874,3.555c1.365,1.381,0.041,2.065-3.747,1.462
		c-4.01-0.642-7.467-2.134-8.863-3.545C133.227,112.945,134.748,112.353,138.412,112.939z M142.538,117.005
		c2.624,0.419,3.969,0.092,3.073-0.814c-0.876-0.886-3.488-1.861-6.187-2.293c-2.03-0.324-4.177-0.303-3.094,0.793
		C137.415,115.788,140.26,116.641,142.538,117.005z"/>
	<path d="M135.1,111.422c-1.412-0.225-2.614-0.408-3.697-0.554l-0.802-0.812l2.321,0.344l-0.042-0.042
		c-1.838-0.488-3.406-1.209-4.021-1.832c-0.104-0.104-0.152-0.175-0.186-0.251l2.054,0.328c0.045,0.086,0.115,0.177,0.24,0.305
		c0.646,0.654,2.267,1.302,4.027,1.69c0.318,0.068,0.686,0.145,1.057,0.204l6.388,1.02l0.906,0.917L135.1,111.422z"/>
	<path d="M133.932,107.988c2.925,0.449,3.347-0.158,2.43-1.086c-0.657-0.665-1.326-1.108-2.017-1.512l1.404,0.092
		c0.669,0.381,1.618,1.004,2.42,1.814c1.553,1.571,0.055,2.122-3.56,1.544c-3.614-0.577-7.357-1.937-8.827-3.423
		c-1.646-1.666,1.356-1.559,3.56-1.208c0.445,0.071,0.813,0.149,1.046,0.195L133.932,107.988z M129.684,105.02
		c-1.397-0.233-3.301-0.323-2.27,0.72c0.928,0.938,3.365,1.673,4.948,1.988L129.684,105.02z"/>
	<path d="M126.57,102.799c-1.411-0.226-2.613-0.409-3.696-0.555l-0.802-0.812l2.321,0.344l-0.042-0.042
		c-1.838-0.489-3.406-1.209-4.021-1.832c-0.104-0.105-0.152-0.175-0.186-0.251l2.055,0.328c0.044,0.087,0.113,0.178,0.238,0.305
		c0.647,0.654,2.269,1.303,4.028,1.691c0.318,0.067,0.686,0.144,1.057,0.203l6.386,1.019l0.908,0.917L126.57,102.799z"/>
	<path d="M120.855,95.185c4.431,0.707,7.654,2.323,8.874,3.556c1.366,1.381,0.042,2.065-3.747,1.46
		c-4.01-0.64-7.467-2.133-8.864-3.545C115.67,95.191,117.19,94.6,120.855,95.185z M124.98,99.252
		c2.625,0.419,3.97,0.091,3.074-0.814c-0.876-0.886-3.488-1.862-6.187-2.293c-2.029-0.323-4.177-0.303-3.093,0.793
		C119.857,98.034,122.703,98.888,124.98,99.252z"/>
	<path d="M216.49,140.566l5.978,1.576l0.938,0.949l-19.073-5.078l-1.094-1.106l14.289,0.239l0.969,0.98l-4.498-0.079L216.49,140.566
		z M212.503,137.968l-4.115-0.071c-0.933-0.016-1.819-0.068-2.68-0.116l0.021,0.021c1.095,0.264,2.224,0.542,3.374,0.84l5.515,1.466
		L212.503,137.968z"/>
	<path d="M211.354,132.484l0.021,0.021c1.46,0.464,2.963,1.185,3.776,2.007c1.177,1.188-0.289,1.772-3.929,1.19
		c-4.48-0.714-7.68-2.264-8.743-3.339c-0.782-0.79-0.387-1.172,0.526-1.238l-0.021-0.021l-1.838-0.32l-0.865-0.874
		c1.036,0.183,2.086,0.359,3.324,0.557l13.592,2.171l0.917,0.928L211.354,132.484z M206.081,131.642
		c-0.297-0.047-0.634-0.092-0.874-0.104c-1.202-0.075-1.851,0.237-1.164,0.933c0.948,0.959,3.429,1.844,6.127,2.274
		c2.376,0.379,3.977,0.227,2.965-0.795c-0.594-0.603-1.971-1.256-3.689-1.708c-0.338-0.09-0.791-0.188-1.112-0.239L206.081,131.642z
		"/>
	<path d="M203.292,125.533c1.238,0.199,2.317,0.362,3.227,0.48l0.812,0.823l-1.903-0.261l0.021,0.021
		c1.205,0.397,2.999,1.136,3.895,2.043c0.793,0.8,0.702,1.593-3.506,0.923l-7.007-1.12l-0.917-0.927l6.635,1.06
		c2.277,0.363,3.521,0.313,2.687-0.53c-0.615-0.621-2.058-1.215-3.19-1.538c-0.375-0.104-0.801-0.198-1.197-0.263l-7.353-1.174
		l-0.917-0.928L203.292,125.533z"/>
	<path d="M186.014,119.89l4.811,1.851l0.657,0.664l-4.457-1.493L186.014,119.89z M205.036,124.514l-11.981-1.911l-0.917-0.928
		l11.982,1.913L205.036,124.514z"/>
	<path d="M188.07,117.563l5.976,0.013c0.679,0.011,1.493,0.034,2.128,0.065l-0.021-0.021c-0.811-0.208-1.831-0.461-2.822-0.726
		l-8.032-2.135l-0.969-0.98l9.917,2.754c4.766,1.321,7.319,2.11,9.231,2.947c1.389,0.604,2.208,1.117,2.537,1.365l-1.603-0.062
		c-0.402-0.26-1.051-0.62-1.866-0.982c-0.721-0.327-1.875-0.778-3.198-1.167c-0.264-0.078-0.469-0.137-0.593-0.157
		c-0.124-0.021-0.276-0.026-0.507-0.028l-9.175,0.124L188.07,117.563z"/>
	<path d="M192.724,112.066l-1.437-0.167l0.032,0.031c1.222,0.436,2.605,1.118,3.325,1.845c1.021,1.033-0.166,1.287-1.899,1.011
		c-2.896-0.462-5.564-1.812-7.489-3.778l-0.248-0.041c-0.991-0.158-2.659-0.327-1.627,0.717c0.469,0.474,1.307,1.025,2.205,1.47
		l-1.228-0.019c-1.061-0.523-2.086-1.202-2.722-1.845c-1.542-1.56,0.582-1.54,2.984-1.156l4.481,0.715
		c1.04,0.166,2.034,0.307,2.789,0.374L192.724,112.066z M186.745,111.226c0.951,1.003,2.508,2.22,4.834,2.592
		c1.411,0.224,1.684-0.068,1.215-0.543c-0.658-0.663-2.064-1.243-3.225-1.553c-0.254-0.067-0.522-0.127-0.746-0.164L186.745,111.226
		z"/>
	<path d="M186.451,106.102c0.536,0.289,1.465,0.89,2.142,1.575c1.522,1.539,0.06,2.148-3.604,1.564
		c-3.688-0.589-7.425-2.091-9.072-3.756c-0.542-0.548-0.699-0.982-0.653-1.187l1.892,0.479c-0.078,0.173-0.006,0.478,0.494,0.983
		c1.157,1.17,3.812,2.126,6.313,2.526c2.772,0.442,3.73-0.044,2.729-1.055c-0.521-0.527-1.187-0.926-1.721-1.233L186.451,106.102z"
		/>
	<path d="M179.779,103.74c2.925,0.449,3.346-0.158,2.429-1.085c-0.656-0.664-1.325-1.109-2.016-1.512l1.403,0.092
		c0.67,0.382,1.619,1.004,2.421,1.815c1.553,1.57,0.054,2.121-3.561,1.544c-3.614-0.577-7.357-1.939-8.827-3.424
		c-1.647-1.666,1.356-1.559,3.56-1.207c0.445,0.071,0.813,0.148,1.046,0.194L179.779,103.74z M175.53,100.771
		c-1.397-0.232-3.301-0.323-2.27,0.721c0.928,0.938,3.365,1.673,4.948,1.987L175.53,100.771z"/>
	<path d="M170.961,92.842c1.238,0.199,2.317,0.361,3.226,0.479L175,94.144l-1.903-0.259l0.02,0.021c1.206,0.396,3,1.135,3.896,2.042
		c0.792,0.801,0.701,1.594-3.508,0.921l-7.005-1.118l-0.917-0.928l6.634,1.06c2.277,0.363,3.521,0.314,2.687-0.53
		c-0.615-0.622-2.058-1.216-3.189-1.538c-0.375-0.104-0.802-0.2-1.198-0.262l-7.353-1.174l-0.917-0.928L170.961,92.842z"/>
	<path d="M163.968,90.429c-1.239-0.198-2.243-0.349-3.201-0.476l-0.813-0.822l1.927,0.263l-0.021-0.021
		c-1.389-0.435-3.086-1.203-3.92-2.045c-0.699-0.707-0.792-1.646,3.317-0.989l7.154,1.142l0.917,0.928l-6.907-1.104
		c-1.931-0.308-3.238-0.258-2.373,0.616c0.605,0.611,2.088,1.247,3.458,1.599c0.313,0.085,0.706,0.167,1.077,0.225l7.204,1.151
		l0.917,0.927L163.968,90.429z"/>
	<path d="M164.751,83.78c-0.836-0.151-2.071-0.366-3.135-0.536l-14.483-2.312l-0.906-0.917l7.525,1.201l-0.021-0.021
		c-1.66-0.54-3.11-1.269-3.923-2.091c-1.25-1.265,0.339-1.765,3.988-1.174c4.284,0.684,7.548,2.173,8.675,3.312
		c0.729,0.738,0.645,1.222-0.564,1.348l0.031,0.032l2.022,0.358L164.751,83.78z M159,82.055c0.273,0.043,0.524,0.066,0.751,0.084
		c1.333,0.061,1.841-0.31,1.174-0.984c-0.959-0.97-3.389-1.846-6.137-2.285c-2.401-0.383-3.935-0.184-2.956,0.807
		c0.626,0.632,2.224,1.384,4.071,1.838c0.268,0.061,0.596,0.141,0.942,0.195L159,82.055z"/>
	<path d="M151.289,72.949c1.238,0.198,2.317,0.361,3.226,0.479l0.813,0.823l-1.903-0.26l0.021,0.021
		c1.205,0.396,3,1.136,3.895,2.042c0.792,0.801,0.701,1.594-3.508,0.922l-7.005-1.119l-0.918-0.927l6.635,1.06
		c2.278,0.364,3.521,0.314,2.687-0.53c-0.614-0.622-2.057-1.216-3.189-1.539c-0.374-0.104-0.802-0.199-1.197-0.262l-7.353-1.174
		l-0.917-0.927L151.289,72.949z"/>
	<path d="M146.928,70.521c2.925,0.45,3.346-0.158,2.429-1.085c-0.657-0.664-1.325-1.108-2.015-1.512l1.403,0.092
		c0.669,0.381,1.618,1.003,2.42,1.815c1.553,1.57,0.055,2.12-3.559,1.543c-3.615-0.577-7.358-1.938-8.828-3.424
		c-1.647-1.665,1.356-1.558,3.56-1.207c0.446,0.071,0.813,0.147,1.046,0.193L146.928,70.521z M142.679,67.553
		c-1.396-0.231-3.301-0.323-2.27,0.72c0.928,0.938,3.365,1.673,4.949,1.988L142.679,67.553z"/>
	<path d="M139.07,65.253c-1.237-0.198-2.242-0.349-3.201-0.476l-0.813-0.822l1.928,0.263l-0.021-0.021
		c-1.389-0.434-3.085-1.202-3.92-2.045c-0.698-0.706-0.792-1.645,3.317-0.988l7.153,1.142l0.918,0.927l-6.907-1.102
		c-1.931-0.309-3.238-0.26-2.373,0.615c0.604,0.611,2.088,1.248,3.458,1.6c0.314,0.086,0.706,0.166,1.077,0.226l7.204,1.149
		l0.917,0.928L139.07,65.253z"/>
	<path d="M123.286,54.983l3.44,0.549l-1.313-1.328l1.659,0.265l1.313,1.328l6.461,1.031c1.486,0.238,2.15,0.193,1.64-0.323
		c-0.24-0.243-0.491-0.434-0.681-0.562l1.592,0.219c0.351,0.207,0.756,0.511,1.11,0.869c0.428,0.433,0.45,0.729,0.075,0.855
		c-0.384,0.16-1.354,0.085-2.766-0.141l-6.535-1.042l0.781,0.79l-1.659-0.265l-0.781-0.79l-2.872-0.459L123.286,54.983z"/>
	<path d="M125.77,49.548c4.431,0.707,7.655,2.323,8.875,3.556c1.365,1.38,0.041,2.065-3.747,1.46
		c-4.01-0.64-7.467-2.133-8.864-3.545C120.585,49.555,122.106,48.963,125.77,49.548z M129.896,53.616
		c2.624,0.419,3.969,0.092,3.072-0.815c-0.875-0.884-3.488-1.861-6.186-2.292c-2.03-0.325-4.177-0.303-3.093,0.793
		C124.772,52.398,127.618,53.251,129.896,53.616z"/>
	<path d="M122.458,48.032c-1.412-0.224-2.614-0.407-3.696-0.553l-0.803-0.812l2.321,0.344l-0.042-0.042
		c-1.839-0.489-3.406-1.209-4.021-1.831c-0.104-0.105-0.153-0.175-0.187-0.251l2.054,0.327c0.045,0.087,0.114,0.179,0.238,0.304
		c0.647,0.654,2.269,1.303,4.028,1.691c0.318,0.068,0.685,0.145,1.056,0.204l6.388,1.02l0.907,0.917L122.458,48.032z"/>
	<path d="M121.291,44.598c2.925,0.449,3.346-0.158,2.43-1.086c-0.658-0.664-1.326-1.107-2.017-1.51l1.403,0.09
		c0.669,0.382,1.619,1.004,2.421,1.815c1.553,1.571,0.055,2.121-3.56,1.544c-3.615-0.577-7.357-1.938-8.827-3.424
		c-1.646-1.665,1.356-1.559,3.56-1.207c0.445,0.071,0.812,0.147,1.046,0.194L121.291,44.598z M117.042,41.629
		c-1.396-0.231-3.301-0.323-2.269,0.721c0.927,0.938,3.365,1.673,4.948,1.988L117.042,41.629z"/>
	<path d="M113.929,39.41c-1.411-0.226-2.613-0.409-3.696-0.555l-0.804-0.812l2.321,0.345l-0.041-0.042
		c-1.839-0.489-3.407-1.209-4.021-1.831c-0.104-0.105-0.152-0.175-0.186-0.251l2.054,0.328c0.044,0.087,0.113,0.179,0.238,0.304
		c0.646,0.654,2.269,1.303,4.027,1.691c0.318,0.068,0.686,0.145,1.057,0.204l6.388,1.021l0.906,0.917L113.929,39.41z"/>
	<path d="M108.213,31.795c4.431,0.707,7.654,2.322,8.874,3.555c1.366,1.381,0.042,2.066-3.746,1.461
		c-4.011-0.64-7.467-2.133-8.864-3.545C103.029,31.802,104.549,31.21,108.213,31.795z M112.339,35.863
		c2.624,0.418,3.969,0.092,3.072-0.815c-0.875-0.885-3.488-1.862-6.187-2.292c-2.03-0.325-4.177-0.303-3.093,0.793
		C107.216,34.645,110.061,35.499,112.339,35.863z"/>
	<path d="M117.034,32.937c-1.69-0.466-4.621-1.173-6.542-1.578l-1.269-1.071c2.344,0.578,5.551,1.48,7.006,1.961L117.034,32.937z"/>
	<path d="M247.326,143.555l0.021,0.021c1.458,0.463,2.963,1.183,3.775,2.004c1.179,1.191-0.289,1.773-3.928,1.193
		c-4.481-0.717-7.682-2.266-8.744-3.34c-0.782-0.792-0.388-1.173,0.526-1.239l-0.021-0.021l-1.838-0.32l-0.865-0.875
		c1.035,0.183,2.085,0.359,3.324,0.558l13.592,2.17l0.917,0.928L247.326,143.555z M242.053,142.713
		c-0.297-0.048-0.634-0.093-0.875-0.104c-1.202-0.077-1.85,0.238-1.163,0.933c0.949,0.959,3.429,1.844,6.127,2.273
		c2.376,0.379,3.977,0.227,2.965-0.795c-0.593-0.601-1.97-1.256-3.69-1.707c-0.338-0.091-0.791-0.189-1.112-0.24L242.053,142.713z"
		/>
	<path d="M239.263,136.604c1.238,0.197,2.317,0.361,3.227,0.479l0.812,0.823l-1.904-0.259l0.021,0.02
		c1.205,0.396,3,1.137,3.895,2.042c0.793,0.802,0.702,1.595-3.507,0.923l-7.006-1.118l-0.917-0.928l6.634,1.059
		c2.277,0.364,3.521,0.313,2.687-0.529c-0.614-0.621-2.057-1.217-3.19-1.54c-0.373-0.104-0.801-0.196-1.197-0.261l-7.352-1.174
		l-0.917-0.929L239.263,136.604z"/>
	<path d="M234.902,134.174c2.926,0.451,3.347-0.157,2.429-1.084c-0.657-0.664-1.326-1.108-2.016-1.512l1.403,0.091
		c0.67,0.383,1.619,1.004,2.421,1.815c1.554,1.57,0.054,2.121-3.561,1.544c-3.613-0.577-7.357-1.938-8.827-3.424
		c-1.646-1.665,1.357-1.558,3.56-1.207c0.445,0.071,0.813,0.148,1.045,0.194L234.902,134.174z M230.653,131.207
		c-1.397-0.231-3.301-0.322-2.269,0.721c0.927,0.938,3.363,1.674,4.948,1.988L230.653,131.207z"/>
	<path d="M224.835,126.673c-1.237-0.197-2.243-0.349-3.201-0.476l-0.802-0.811l1.89,0.265l-0.032-0.03
		c-1.421-0.467-2.954-1.111-3.788-1.954c-0.688-0.695-0.218-1.064,0.974-1.062l-0.021-0.02c-0.825-0.264-1.543-0.549-2.122-0.817
		c-0.848-0.394-1.478-0.777-1.957-1.263c-0.667-0.674-0.618-1.509,3.541-0.847l7.057,1.128l0.896,0.905l-6.782-1.083
		c-2.303-0.368-3.335-0.23-2.595,0.518c0.522,0.527,1.843,1.084,3.065,1.413c0.339,0.089,0.766,0.184,1.162,0.247l7.403,1.182
		l0.896,0.907l-7.179-1.146c-1.906-0.305-2.938-0.169-2.24,0.537c0.573,0.58,2.079,1.176,3.315,1.496
		c0.374,0.105,0.766,0.187,1.138,0.244l7.229,1.154l0.895,0.907L224.835,126.673z"/>
	<path d="M217.39,114.486c1.238,0.198,2.316,0.361,3.225,0.48l0.815,0.822l-1.905-0.26l0.021,0.02
		c1.206,0.397,2.999,1.137,3.895,2.042c0.792,0.801,0.701,1.594-3.507,0.923l-7.006-1.119l-0.917-0.927l6.635,1.059
		c2.277,0.363,3.52,0.312,2.686-0.529c-0.614-0.624-2.057-1.216-3.188-1.539c-0.374-0.105-0.802-0.2-1.197-0.263l-7.353-1.174
		l-0.917-0.927L217.39,114.486z"/>
	<path d="M210.89,112.152c-1.411-0.226-2.613-0.409-3.696-0.555l-0.802-0.811l2.32,0.343l-0.041-0.042
		c-1.839-0.488-3.407-1.209-4.021-1.832c-0.104-0.105-0.152-0.175-0.187-0.251l2.055,0.328c0.044,0.087,0.113,0.178,0.238,0.304
		c0.646,0.653,2.268,1.303,4.028,1.69c0.317,0.069,0.685,0.146,1.057,0.204l6.386,1.021l0.907,0.916L210.89,112.152z"/>
	<path d="M199.313,106.495c0.732,0.108,1.556,0.435,1.92,0.804c0.323,0.327-0.042,0.464-0.784,0.345
		c-0.768-0.123-1.602-0.46-1.936-0.796C198.171,106.499,198.545,106.372,199.313,106.495z M215.684,109.979l-11.982-1.914
		l-0.917-0.927l11.982,1.912L215.684,109.979z"/>
	<path d="M202.589,101.923c4.431,0.707,7.655,2.322,8.875,3.556c1.364,1.381,0.041,2.065-3.747,1.461
		c-4.01-0.641-7.466-2.132-8.864-3.545C197.404,101.93,198.924,101.337,202.589,101.923z M206.715,105.989
		c2.624,0.419,3.969,0.093,3.073-0.814c-0.875-0.886-3.489-1.861-6.187-2.292c-2.03-0.325-4.178-0.303-3.094,0.793
		C201.592,104.772,204.437,105.626,206.715,105.989z M192.617,101.263l4.812,1.851l0.657,0.664l-4.458-1.493L192.617,101.263z"/>
	<path d="M183.375,92.277l14.483,2.312c1.064,0.169,2.267,0.353,3.053,0.452l0.824,0.833l-2.039-0.29l0.021,0.021
		c1.618,0.498,3.248,1.281,4.071,2.115c1.219,1.233-0.293,1.79-3.932,1.208c-3.975-0.625-7.469-2.071-8.698-3.314
		c-0.771-0.78-0.425-1.168,0.311-1.246l-0.021-0.021l-7.154-1.144L183.375,92.277z M194.765,94.876
		c-0.271-0.043-0.633-0.092-0.874-0.104c-1.251-0.084-1.89,0.24-1.202,0.935c0.948,0.96,3.493,1.845,6.14,2.268
		c2.427,0.388,3.932,0.203,2.942-0.798c-0.615-0.623-2.143-1.346-3.943-1.775c-0.329-0.08-0.636-0.137-0.983-0.192L194.765,94.876z"
		/>
	<path d="M193.324,92.133c2.925,0.449,3.346-0.158,2.429-1.086c-0.657-0.664-1.325-1.108-2.016-1.511l1.404,0.091
		c0.669,0.381,1.618,1.004,2.42,1.815c1.553,1.57,0.055,2.121-3.56,1.544c-3.614-0.578-7.358-1.938-8.828-3.425
		c-1.646-1.666,1.356-1.558,3.56-1.207c0.446,0.071,0.813,0.148,1.046,0.194L193.324,92.133z M189.075,89.166
		c-1.397-0.232-3.3-0.324-2.269,0.72c0.928,0.938,3.364,1.673,4.948,1.988L189.075,89.166z"/>
	<path d="M174.419,83.22l-0.917-0.927l17.577,2.806l0.917,0.927L174.419,83.22z"/>
	<path d="M186.742,80.714l-1.437-0.168l0.032,0.033c1.222,0.434,2.606,1.116,3.324,1.844c1.022,1.034-0.166,1.287-1.897,1.01
		c-2.897-0.462-5.566-1.812-7.49-3.779l-0.248-0.039c-0.99-0.159-2.658-0.328-1.627,0.716c0.469,0.474,1.307,1.025,2.205,1.47
		l-1.227-0.019c-1.06-0.523-2.086-1.203-2.722-1.846c-1.543-1.56,0.582-1.541,2.983-1.157l4.482,0.715
		c1.04,0.166,2.034,0.308,2.788,0.375L186.742,80.714z M180.764,79.875c0.951,1.003,2.507,2.22,4.835,2.591
		c1.41,0.225,1.684-0.068,1.214-0.543c-0.657-0.663-2.063-1.243-3.225-1.553c-0.254-0.068-0.522-0.128-0.745-0.164L180.764,79.875z"
		/>
	<path d="M179.507,73.397l-1.437-0.167l0.032,0.032c1.222,0.434,2.606,1.117,3.324,1.844c1.022,1.033-0.166,1.287-1.898,1.011
		c-2.897-0.463-5.565-1.812-7.49-3.779l-0.248-0.039c-0.99-0.158-2.658-0.327-1.626,0.717c0.468,0.474,1.306,1.024,2.204,1.469
		l-1.228-0.018c-1.059-0.523-2.085-1.203-2.721-1.846c-1.543-1.561,0.583-1.54,2.983-1.157l4.481,0.716
		c1.04,0.166,2.034,0.306,2.788,0.374L179.507,73.397z M173.528,72.558c0.951,1.003,2.508,2.22,4.835,2.592
		c1.412,0.225,1.684-0.069,1.214-0.542c-0.656-0.665-2.063-1.244-3.225-1.554c-0.254-0.067-0.522-0.128-0.745-0.164L173.528,72.558z
		"/>
	<path d="M177.181,71.045l-10.323-1.648l0.709,0.717l-1.659-0.265l-0.709-0.718l-0.52-0.082c-1.659-0.265-3.384-0.745-4.843-1.377
		c-1.188-0.527-2.13-1.121-2.828-1.827c-0.584-0.59-0.839-1.101-0.72-1.402l17.057,2.724l0.907,0.917l-15.844-2.53
		c-0.042,0.126,0.074,0.35,0.428,0.708c0.959,0.97,2.93,1.551,4.861,1.859l0.594,0.095l-1.178-1.192l1.659,0.266l1.178,1.191
		l10.323,1.648L177.181,71.045z"/>
	<path d="M155.452,62.143c0.732,0.108,1.555,0.436,1.921,0.804c0.323,0.326-0.042,0.464-0.785,0.345
		c-0.768-0.123-1.602-0.46-1.935-0.797C154.31,62.147,154.685,62.021,155.452,62.143z M171.822,65.627l-11.981-1.914l-0.917-0.928
		l11.982,1.914L171.822,65.627z"/>
	<path d="M165.341,59.452c0.537,0.291,1.465,0.892,2.142,1.576c1.522,1.54,0.062,2.149-3.602,1.564
		c-3.689-0.589-7.427-2.092-9.073-3.756c-0.542-0.548-0.7-0.982-0.653-1.187l1.891,0.48c-0.077,0.173-0.005,0.478,0.495,0.983
		c1.157,1.17,3.812,2.127,6.313,2.526c2.773,0.443,3.73-0.044,2.73-1.055c-0.522-0.527-1.188-0.926-1.721-1.234L165.341,59.452z"/>
	<path d="M160.733,54.793c0.537,0.29,1.465,0.891,2.142,1.575c1.522,1.539,0.062,2.149-3.603,1.564
		c-3.689-0.588-7.425-2.091-9.073-3.756c-0.542-0.548-0.699-0.982-0.652-1.187l1.892,0.48c-0.079,0.173-0.006,0.477,0.494,0.983
		c1.156,1.17,3.812,2.127,6.312,2.526c2.772,0.443,3.73-0.043,2.729-1.055c-0.521-0.527-1.187-0.926-1.72-1.233L160.733,54.793z"/>
	<path d="M143.734,50.293c0.732,0.108,1.555,0.435,1.92,0.804c0.323,0.328-0.042,0.464-0.784,0.346
		c-0.769-0.123-1.602-0.46-1.936-0.797C142.591,50.298,142.966,50.172,143.734,50.293z M160.104,53.777l-11.982-1.914l-0.918-0.927
		l11.983,1.914L160.104,53.777z"/>
	<path d="M147.009,45.722c4.432,0.708,7.655,2.323,8.875,3.556c1.366,1.381,0.042,2.066-3.746,1.461
		c-4.012-0.641-7.468-2.133-8.864-3.546C141.825,45.728,143.345,45.137,147.009,45.722z M151.136,49.789
		c2.624,0.419,3.969,0.093,3.073-0.814c-0.875-0.886-3.488-1.861-6.187-2.292c-2.03-0.323-4.178-0.302-3.094,0.793
		C146.012,48.571,148.858,49.426,151.136,49.789z M137.038,45.062l4.812,1.851l0.657,0.664l-4.458-1.493L137.038,45.062z"/>
	<path d="M143.203,44.128c-1.238-0.199-2.243-0.351-3.202-0.476l-0.813-0.822l1.928,0.263l-0.021-0.021
		c-1.389-0.435-3.087-1.203-3.921-2.047c-0.698-0.706-0.792-1.644,3.318-0.987l7.155,1.142l0.917,0.927l-6.907-1.103
		c-1.931-0.308-3.237-0.26-2.373,0.615c0.605,0.612,2.088,1.247,3.458,1.599c0.314,0.086,0.706,0.167,1.078,0.226l7.204,1.15
		l0.917,0.927L143.203,44.128z"/>
	<path d="M260.404,144.863l14.482,2.312c1.063,0.169,2.268,0.354,3.053,0.451l0.823,0.833l-2.039-0.29l0.021,0.022
		c1.618,0.497,3.25,1.281,4.072,2.113c1.22,1.233-0.293,1.79-3.934,1.209c-3.975-0.625-7.468-2.071-8.697-3.314
		c-0.771-0.779-0.427-1.17,0.311-1.246l-0.021-0.021l-7.154-1.143L260.404,144.863z M271.792,147.461
		c-0.271-0.044-0.632-0.093-0.873-0.104c-1.251-0.085-1.89,0.238-1.201,0.936c0.948,0.958,3.492,1.843,6.141,2.267
		c2.426,0.388,3.93,0.202,2.94-0.8c-0.615-0.621-2.145-1.345-3.943-1.775c-0.328-0.079-0.636-0.136-0.983-0.19L271.792,147.461z"/>
	<path d="M270.352,144.718c2.925,0.449,3.346-0.158,2.429-1.086c-0.657-0.664-1.324-1.107-2.016-1.512l1.403,0.093
		c0.669,0.381,1.619,1.003,2.42,1.814c1.554,1.57,0.056,2.122-3.56,1.544c-3.614-0.576-7.357-1.938-8.827-3.424
		c-1.647-1.666,1.356-1.559,3.561-1.208c0.444,0.072,0.812,0.148,1.045,0.195L270.352,144.718z M266.103,141.75
		c-1.397-0.233-3.301-0.323-2.27,0.72c0.929,0.938,3.365,1.673,4.948,1.988L266.103,141.75z"/>
	<path d="M266.919,138.381c0.151-0.206,0.117-0.62-0.342-1.083c-0.666-0.675-1.771-1.118-2.762-1.276
		c-1.041-0.166-1.35,0.007-1.265,0.598c0.139,0.795-0.621,1.037-2.058,0.807c-1.932-0.309-4.172-1.225-5.256-2.321
		c-0.512-0.517-0.613-0.914-0.499-1.135l1.814,0.484c-0.099,0.152-0.13,0.459,0.339,0.934c0.541,0.548,1.587,0.972,2.478,1.113
		c0.99,0.158,1.134-0.076,1.07-0.645c-0.081-0.76,0.509-1.047,2.293-0.761c2.104,0.335,4.276,1.267,5.476,2.479
		c0.553,0.56,0.74,1.023,0.6,1.303L266.919,138.381z"/>
	<path d="M258.79,133.027c2.924,0.448,3.346-0.158,2.429-1.086c-0.656-0.664-1.325-1.107-2.015-1.511l1.402,0.09
		c0.67,0.383,1.617,1.005,2.421,1.815c1.552,1.571,0.055,2.122-3.561,1.545c-3.614-0.577-7.357-1.938-8.828-3.424
		c-1.646-1.664,1.356-1.559,3.56-1.207c0.447,0.07,0.813,0.147,1.045,0.192L258.79,133.027z M254.541,130.058
		c-1.398-0.231-3.3-0.322-2.269,0.722c0.928,0.938,3.363,1.672,4.946,1.988L254.541,130.058z"/>
	<path d="M251.427,127.838c-1.411-0.226-2.613-0.408-3.696-0.555l-0.803-0.812l2.321,0.344l-0.042-0.042
		c-1.838-0.489-3.405-1.209-4.021-1.831c-0.104-0.105-0.152-0.175-0.187-0.251l2.055,0.327c0.044,0.088,0.113,0.178,0.238,0.305
		c0.646,0.653,2.269,1.303,4.027,1.689c0.319,0.069,0.686,0.146,1.056,0.205l6.387,1.021l0.908,0.915L251.427,127.838z"/>
	<path d="M245.313,122.078c-1.237-0.198-2.242-0.35-3.201-0.476l-0.803-0.812l1.89,0.267l-0.031-0.031
		c-1.421-0.468-2.954-1.111-3.789-1.954c-0.688-0.696-0.218-1.064,0.974-1.061l-0.021-0.021c-0.825-0.266-1.542-0.548-2.123-0.819
		c-0.847-0.392-1.478-0.777-1.957-1.261c-0.667-0.675-0.618-1.51,3.541-0.846l7.056,1.125l0.896,0.906l-6.782-1.082
		c-2.303-0.368-3.334-0.231-2.594,0.517c0.52,0.527,1.843,1.085,3.064,1.413c0.338,0.089,0.765,0.184,1.163,0.248l7.401,1.181
		l0.896,0.907l-7.18-1.146c-1.906-0.304-2.938-0.167-2.239,0.54c0.573,0.578,2.079,1.175,3.314,1.496
		c0.375,0.103,0.767,0.185,1.138,0.243l7.229,1.155l0.897,0.905L245.313,122.078z"/>
	<path d="M242.564,111.855l-1.437-0.167l0.031,0.032c1.222,0.435,2.606,1.118,3.325,1.846c1.022,1.031-0.166,1.287-1.899,1.009
		c-2.896-0.462-5.565-1.812-7.489-3.778l-0.247-0.04c-0.991-0.159-2.659-0.327-1.627,0.716c0.47,0.474,1.306,1.025,2.206,1.471
		l-1.228-0.018c-1.06-0.525-2.086-1.202-2.722-1.846c-1.541-1.56,0.582-1.541,2.984-1.157l4.481,0.716
		c1.039,0.166,2.034,0.306,2.788,0.375L242.564,111.855z M236.585,111.017c0.95,1.004,2.507,2.22,4.834,2.591
		c1.412,0.225,1.684-0.069,1.214-0.543c-0.657-0.665-2.063-1.243-3.225-1.554c-0.253-0.066-0.521-0.127-0.745-0.163L236.585,111.017
		z"/>
	<path d="M222.754,106.793l-0.916-0.927l17.577,2.806l0.917,0.927L222.754,106.793z"/>
	<path d="M235.703,104.919c-0.837-0.153-2.072-0.367-3.136-0.537l-14.483-2.313l-0.906-0.917l7.525,1.202l-0.02-0.021
		c-1.66-0.541-3.111-1.269-3.923-2.091c-1.251-1.265,0.337-1.766,3.987-1.174c4.284,0.683,7.548,2.172,8.675,3.311
		c0.729,0.737,0.644,1.222-0.565,1.348l0.032,0.031l2.023,0.358L235.703,104.919z M229.952,103.192
		c0.272,0.042,0.524,0.066,0.75,0.084c1.334,0.062,1.841-0.31,1.175-0.984c-0.96-0.97-3.389-1.846-6.138-2.284
		c-2.4-0.385-3.935-0.185-2.955,0.806c0.625,0.632,2.225,1.383,4.071,1.838c0.268,0.061,0.596,0.14,0.943,0.195L229.952,103.192z"/>
	<path d="M226.936,96.054l-1.437-0.168l0.032,0.031c1.222,0.437,2.605,1.118,3.324,1.844c1.022,1.034-0.165,1.288-1.898,1.011
		c-2.896-0.462-5.565-1.811-7.49-3.778l-0.248-0.04c-0.99-0.159-2.658-0.327-1.627,0.717c0.47,0.474,1.307,1.025,2.205,1.47
		l-1.228-0.018c-1.06-0.524-2.084-1.203-2.722-1.846c-1.542-1.56,0.582-1.54,2.984-1.157l4.481,0.716
		c1.04,0.165,2.034,0.306,2.788,0.374L226.936,96.054z M220.957,95.214c0.951,1.003,2.508,2.22,4.835,2.591
		c1.41,0.226,1.683-0.068,1.214-0.543c-0.656-0.664-2.063-1.243-3.225-1.553c-0.253-0.067-0.522-0.128-0.744-0.164L220.957,95.214z"
		/>
	<path d="M215.965,92.401c-1.237-0.197-2.242-0.349-3.201-0.476l-0.813-0.822l1.928,0.263l-0.021-0.021
		c-1.389-0.435-3.086-1.203-3.92-2.047c-0.698-0.706-0.793-1.644,3.317-0.987l7.154,1.143l0.917,0.927l-6.907-1.104
		c-1.931-0.308-3.238-0.259-2.373,0.615c0.604,0.612,2.089,1.249,3.458,1.6c0.314,0.086,0.707,0.166,1.078,0.226l7.203,1.149
		l0.917,0.927L215.965,92.401z"/>
	<path d="M196.984,80.733l14.482,2.312c1.065,0.17,2.269,0.354,3.054,0.452l0.823,0.833l-2.038-0.29l0.021,0.021
		c1.619,0.498,3.249,1.282,4.073,2.114c1.219,1.233-0.293,1.79-3.934,1.209c-3.975-0.625-7.468-2.071-8.698-3.314
		c-0.771-0.781-0.426-1.168,0.311-1.247l-0.021-0.02l-7.156-1.143L196.984,80.733z M208.373,83.333
		c-0.272-0.043-0.633-0.092-0.874-0.104c-1.251-0.084-1.89,0.24-1.202,0.936c0.948,0.959,3.492,1.845,6.141,2.267
		c2.426,0.389,3.93,0.202,2.94-0.799c-0.614-0.623-2.143-1.346-3.944-1.775c-0.328-0.08-0.636-0.137-0.982-0.192L208.373,83.333z"/>
	<path d="M206.932,80.59c2.926,0.45,3.347-0.159,2.429-1.086c-0.656-0.664-1.325-1.107-2.015-1.511l1.402,0.092
		c0.67,0.381,1.619,1.004,2.421,1.815c1.554,1.569,0.055,2.121-3.559,1.543c-3.616-0.578-7.359-1.938-8.828-3.425
		c-1.647-1.665,1.355-1.559,3.56-1.206c0.444,0.071,0.813,0.147,1.045,0.194L206.932,80.59z M202.684,77.622
		c-1.397-0.232-3.301-0.324-2.269,0.721c0.928,0.938,3.364,1.672,4.946,1.987L202.684,77.622z"/>
	<path d="M199.57,75.402c-1.412-0.226-2.614-0.408-3.696-0.555l-0.802-0.812l2.321,0.344l-0.042-0.042
		c-1.839-0.488-3.406-1.209-4.021-1.831c-0.104-0.105-0.153-0.174-0.186-0.252l2.054,0.329c0.045,0.087,0.114,0.178,0.239,0.304
		c0.647,0.653,2.268,1.303,4.028,1.691c0.316,0.068,0.685,0.144,1.056,0.203l6.388,1.02l0.906,0.917L199.57,75.402z"/>
	<path d="M187.994,69.745c0.732,0.108,1.556,0.435,1.919,0.804c0.324,0.327-0.042,0.463-0.784,0.345
		c-0.768-0.122-1.602-0.459-1.935-0.796C186.851,69.749,187.226,69.622,187.994,69.745z M204.363,73.229l-11.981-1.914l-0.917-0.927
		l11.981,1.913L204.363,73.229z"/>
	<path d="M184.347,67.955l-0.918-0.927l17.578,2.806l0.917,0.928L184.347,67.955z"/>
	<path d="M181.886,65.468l-0.917-0.927l17.577,2.806l0.918,0.927L181.886,65.468z"/>
	<path d="M190.897,64.376c2.926,0.449,3.346-0.159,2.43-1.086c-0.657-0.665-1.324-1.108-2.015-1.511l1.402,0.091
		c0.67,0.381,1.619,1.004,2.421,1.816c1.552,1.57,0.055,2.121-3.56,1.543c-3.614-0.578-7.357-1.938-8.827-3.424
		c-1.647-1.665,1.355-1.558,3.559-1.207c0.446,0.07,0.814,0.147,1.046,0.194L190.897,64.376z M186.648,61.409
		c-1.397-0.232-3.3-0.324-2.268,0.72c0.928,0.938,3.364,1.673,4.946,1.987L186.648,61.409z"/>
	<path d="M183.536,59.188c-1.411-0.226-2.613-0.409-3.696-0.555l-0.803-0.811l2.321,0.344l-0.042-0.042
		c-1.838-0.489-3.405-1.209-4.021-1.831c-0.105-0.105-0.152-0.177-0.187-0.252l2.055,0.328c0.045,0.087,0.114,0.178,0.239,0.305
		c0.646,0.654,2.269,1.303,4.027,1.69c0.317,0.069,0.686,0.146,1.057,0.205l6.388,1.02l0.906,0.917L183.536,59.188z"/>
	<path d="M177.819,51.574c4.432,0.708,7.656,2.323,8.875,3.556c1.366,1.38,0.042,2.065-3.746,1.46
		c-4.011-0.64-7.467-2.132-8.864-3.545C172.635,51.581,174.155,50.988,177.819,51.574z M181.945,55.641
		c2.625,0.419,3.97,0.092,3.073-0.814c-0.876-0.885-3.488-1.862-6.187-2.293c-2.031-0.324-4.177-0.302-3.094,0.793
		C176.823,54.422,179.668,55.277,181.945,55.641z"/>
	<path d="M163.967,46.103l4.084,1.495l0.049,0.008l-2.068-1.671l1.683,0.269l1.129,1.521l0.049,0.008l1.971-0.537l1.547,0.806
		l-2.84,0.079l0.021,0.021l4.167,1.243l-0.296,0.458l-4.011-1.483l-0.05-0.007l2.013,1.634l-1.683-0.269l-1.063-1.474l-0.048-0.008
		l-2.041,0.508l-1.502-0.78l2.795-0.104l-0.021-0.022l-4.103-1.196L163.967,46.103z"/>
	<path d="M182.064,48.086c-1.69-0.464-4.621-1.173-6.542-1.577l-1.269-1.071c2.344,0.576,5.55,1.48,7.006,1.96L182.064,48.086z"/>
	<path d="M309.95,156.588c0.15-0.207,0.116-0.62-0.342-1.084c-0.668-0.676-1.772-1.117-2.764-1.274
		c-1.04-0.166-1.348,0.005-1.265,0.595c0.141,0.797-0.623,1.038-2.057,0.809c-1.932-0.308-4.173-1.226-5.257-2.32
		c-0.51-0.518-0.612-0.915-0.497-1.136l1.813,0.485c-0.1,0.151-0.131,0.457,0.337,0.933c0.543,0.546,1.589,0.971,2.48,1.113
		c0.99,0.158,1.132-0.077,1.07-0.645c-0.084-0.759,0.51-1.048,2.289-0.762c2.106,0.335,4.279,1.268,5.478,2.48
		c0.553,0.558,0.742,1.023,0.601,1.302L309.95,156.588z"/>
	<path d="M291.554,149.159c0.732,0.109,1.557,0.436,1.921,0.805c0.323,0.327-0.042,0.464-0.785,0.346
		c-0.768-0.123-1.603-0.459-1.936-0.798C290.411,149.164,290.787,149.037,291.554,149.159z M307.924,152.644l-11.981-1.913
		l-0.918-0.928l11.982,1.914L307.924,152.644z"/>
	<path d="M287.907,147.37l-0.917-0.927l17.579,2.806l0.914,0.928L287.907,147.37z"/>
	<path d="M303.065,147.732c-0.836-0.152-2.071-0.367-3.135-0.538l-14.484-2.312l-0.905-0.917l7.525,1.202l-0.021-0.022
		c-1.658-0.539-3.109-1.268-3.922-2.091c-1.251-1.265,0.338-1.764,3.989-1.173c4.281,0.684,7.547,2.172,8.673,3.311
		c0.729,0.739,0.644,1.221-0.564,1.348l0.032,0.032l2.021,0.358L303.065,147.732z M297.315,146.004
		c0.272,0.044,0.523,0.066,0.75,0.084c1.332,0.063,1.842-0.309,1.175-0.983c-0.96-0.971-3.39-1.845-6.137-2.284
		c-2.402-0.383-3.937-0.184-2.957,0.806c0.626,0.633,2.226,1.386,4.071,1.839c0.268,0.061,0.598,0.141,0.942,0.196L297.315,146.004z
		"/>
	<path d="M294.298,138.866l-1.437-0.168l0.03,0.031c1.223,0.436,2.606,1.118,3.326,1.845c1.019,1.033-0.165,1.288-1.899,1.01
		c-2.896-0.462-5.565-1.81-7.489-3.777l-0.248-0.039c-0.989-0.158-2.657-0.327-1.626,0.715c0.471,0.477,1.306,1.026,2.205,1.471
		l-1.229-0.018c-1.061-0.525-2.085-1.203-2.721-1.846c-1.543-1.562,0.582-1.54,2.983-1.156l4.482,0.715
		c1.04,0.167,2.033,0.307,2.789,0.374L294.298,138.866z M288.319,138.026c0.95,1.004,2.51,2.221,4.836,2.592
		c1.411,0.224,1.684-0.07,1.214-0.543c-0.655-0.662-2.063-1.244-3.226-1.553c-0.252-0.067-0.521-0.128-0.743-0.163L288.319,138.026z
		"/>
	<path d="M270.132,129.397l14.483,2.312c1.064,0.17,2.266,0.353,3.052,0.452l0.825,0.831l-2.04-0.289l0.021,0.021
		c1.619,0.499,3.25,1.283,4.072,2.116c1.219,1.231-0.294,1.788-3.933,1.208c-3.975-0.626-7.469-2.07-8.698-3.315
		c-0.771-0.779-0.426-1.167,0.31-1.246l-0.02-0.02l-7.156-1.144L270.132,129.397z M281.523,131.997
		c-0.273-0.043-0.635-0.093-0.875-0.104c-1.251-0.086-1.889,0.238-1.201,0.935c0.947,0.96,3.491,1.844,6.141,2.268
		c2.426,0.388,3.931,0.202,2.94-0.799c-0.615-0.623-2.144-1.347-3.943-1.774c-0.329-0.08-0.637-0.139-0.982-0.192L281.523,131.997z"
		/>
	<path d="M275.532,125.075c4.431,0.707,7.653,2.322,8.874,3.556c1.364,1.381,0.041,2.065-3.746,1.461
		c-4.012-0.64-7.468-2.132-8.864-3.545C270.346,125.082,271.867,124.489,275.532,125.075z M279.657,129.14
		c2.624,0.42,3.97,0.094,3.073-0.812c-0.875-0.886-3.488-1.862-6.187-2.291c-2.029-0.327-4.177-0.305-3.093,0.791
		C274.535,127.924,277.38,128.777,279.657,129.14z"/>
	<path d="M272.146,121.231c2.926,0.449,3.348-0.158,2.43-1.086c-0.656-0.665-1.324-1.107-2.016-1.512l1.403,0.091
		c0.67,0.382,1.618,1.004,2.421,1.815c1.554,1.57,0.055,2.121-3.56,1.544c-3.614-0.578-7.357-1.939-8.827-3.424
		c-1.647-1.666,1.356-1.559,3.559-1.207c0.446,0.07,0.813,0.147,1.048,0.193L272.146,121.231z M267.898,118.262
		c-1.396-0.231-3.3-0.323-2.269,0.721c0.927,0.938,3.364,1.673,4.948,1.988L267.898,118.262z"/>
	<path d="M264.291,115.962c-1.236-0.197-2.243-0.349-3.2-0.475l-0.814-0.822l1.929,0.263l-0.021-0.021
		c-1.391-0.435-3.088-1.202-3.92-2.045c-0.698-0.707-0.794-1.646,3.316-0.989l7.154,1.143l0.917,0.928l-6.907-1.103
		c-1.93-0.309-3.237-0.26-2.372,0.614c0.604,0.612,2.089,1.248,3.457,1.6c0.316,0.085,0.708,0.166,1.079,0.225l7.205,1.15
		l0.916,0.927L264.291,115.962z"/>
	<path d="M260.991,105.565c0.537,0.289,1.465,0.891,2.143,1.576c1.522,1.54,0.062,2.149-3.603,1.563
		c-3.689-0.588-7.426-2.091-9.072-3.757c-0.543-0.547-0.7-0.98-0.653-1.186l1.893,0.48c-0.079,0.173-0.007,0.479,0.493,0.983
		c1.157,1.169,3.812,2.127,6.312,2.526c2.773,0.443,3.731-0.044,2.73-1.056c-0.521-0.526-1.188-0.925-1.72-1.232L260.991,105.565z"
		/>
	<path d="M257.568,101.725l-1.438-0.167l0.033,0.031c1.222,0.435,2.605,1.117,3.325,1.844c1.021,1.032-0.167,1.288-1.897,1.01
		c-2.899-0.462-5.567-1.811-7.492-3.778l-0.247-0.04c-0.99-0.159-2.658-0.326-1.627,0.717c0.47,0.474,1.307,1.025,2.205,1.469
		l-1.227-0.017c-1.061-0.525-2.087-1.204-2.722-1.846c-1.543-1.56,0.582-1.541,2.983-1.158l4.48,0.716
		c1.042,0.167,2.036,0.307,2.79,0.374L257.568,101.725z M251.59,100.886c0.951,1.005,2.507,2.22,4.834,2.592
		c1.41,0.225,1.684-0.068,1.216-0.542c-0.658-0.664-2.064-1.244-3.226-1.554c-0.254-0.067-0.523-0.127-0.745-0.163L251.59,100.886z"
		/>
	<path d="M233.404,92.257l14.482,2.311c1.064,0.171,2.268,0.354,3.052,0.453l0.823,0.832l-2.037-0.289l0.02,0.02
		c1.619,0.499,3.248,1.283,4.072,2.116c1.22,1.232-0.293,1.789-3.933,1.209c-3.974-0.626-7.468-2.072-8.698-3.315
		c-0.771-0.78-0.427-1.168,0.309-1.246l-0.021-0.021l-7.154-1.141L233.404,92.257z M244.792,94.855
		c-0.272-0.043-0.633-0.091-0.874-0.104c-1.25-0.085-1.889,0.239-1.201,0.936c0.947,0.958,3.492,1.844,6.141,2.267
		c2.425,0.387,3.93,0.201,2.939-0.8c-0.614-0.621-2.142-1.345-3.943-1.774c-0.328-0.079-0.635-0.136-0.983-0.192L244.792,94.855z"/>
	<path d="M246.664,90.699l-1.436-0.168l0.03,0.031c1.223,0.435,2.605,1.119,3.326,1.845c1.021,1.032-0.166,1.287-1.899,1.01
		c-2.896-0.461-5.565-1.811-7.489-3.779l-0.248-0.04c-0.991-0.157-2.658-0.326-1.626,0.718c0.469,0.475,1.305,1.024,2.205,1.47
		l-1.227-0.019c-1.062-0.523-2.087-1.203-2.723-1.845c-1.543-1.559,0.583-1.541,2.983-1.157l4.481,0.715
		c1.04,0.166,2.034,0.307,2.789,0.375L246.664,90.699z M240.685,89.859c0.95,1.002,2.507,2.22,4.833,2.59
		c1.412,0.226,1.684-0.068,1.216-0.543c-0.657-0.664-2.065-1.243-3.227-1.553c-0.253-0.067-0.521-0.128-0.745-0.163L240.685,89.859z
		"/>
	<path d="M242.127,86.111l-10.322-1.648l0.709,0.716l-1.66-0.264l-0.708-0.717l-0.571-0.091c-1.683-0.268-3.374-0.672-4.766-1.258
		c-1.137-0.475-1.917-0.99-2.343-1.422c-0.325-0.327-0.433-0.583-0.437-0.734l1.809,0.395c-0.013,0.114,0.051,0.282,0.312,0.546
		c0.782,0.791,2.614,1.253,4.446,1.545l0.644,0.102l-1.22-1.232l1.659,0.264l1.22,1.233l10.323,1.648L242.127,86.111z"/>
	<path d="M231.688,78.338c1.238,0.198,2.316,0.361,3.225,0.479l0.814,0.821l-1.904-0.259l0.021,0.021
		c1.206,0.396,3,1.136,3.895,2.042c0.792,0.802,0.701,1.595-3.507,0.922l-7.006-1.119l-0.917-0.927l6.634,1.059
		c2.278,0.364,3.521,0.314,2.688-0.529c-0.616-0.621-2.057-1.216-3.189-1.54c-0.374-0.103-0.802-0.198-1.199-0.261l-7.351-1.175
		l-0.918-0.926L231.688,78.338z"/>
	<path d="M224.694,75.923c-1.238-0.197-2.242-0.348-3.202-0.475l-0.813-0.822l1.929,0.263l-0.022-0.021
		c-1.389-0.435-3.085-1.203-3.92-2.045c-0.698-0.707-0.792-1.645,3.318-0.989l7.153,1.142l0.918,0.928l-6.906-1.104
		c-1.932-0.308-3.24-0.259-2.374,0.615c0.605,0.612,2.089,1.248,3.459,1.599c0.312,0.087,0.705,0.167,1.076,0.227l7.204,1.15
		l0.917,0.927L224.694,75.923z"/>
	<path d="M223.604,67.761c0.538,0.29,1.465,0.891,2.144,1.575c1.52,1.54,0.06,2.148-3.604,1.564
		c-3.689-0.587-7.424-2.091-9.072-3.756c-0.542-0.548-0.7-0.98-0.653-1.187l1.892,0.479c-0.079,0.174-0.007,0.478,0.494,0.984
		c1.156,1.17,3.812,2.126,6.313,2.525c2.772,0.442,3.73-0.043,2.73-1.055c-0.522-0.526-1.188-0.926-1.721-1.232L223.604,67.761z"/>
	<path d="M206.604,63.262c0.733,0.108,1.557,0.434,1.921,0.802c0.323,0.328-0.042,0.464-0.784,0.346
		c-0.768-0.123-1.602-0.459-1.935-0.797C205.462,63.266,205.838,63.14,206.604,63.262z M222.977,66.745l-11.983-1.913l-0.917-0.927
		l11.982,1.914L222.977,66.745z"/>
	<path d="M209.881,58.69c4.432,0.706,7.654,2.322,8.875,3.555c1.366,1.38,0.041,2.066-3.746,1.461
		c-4.011-0.641-7.467-2.133-8.863-3.545C204.697,58.697,206.217,58.105,209.881,58.69z M214.007,62.756
		c2.625,0.419,3.968,0.094,3.072-0.814c-0.875-0.885-3.487-1.862-6.187-2.292c-2.029-0.324-4.177-0.304-3.093,0.793
		S211.729,62.394,214.007,62.756z M199.909,58.029l4.812,1.851l0.656,0.664l-4.457-1.492L199.909,58.029z"/>
	<path d="M206.073,57.095c-1.238-0.198-2.242-0.349-3.201-0.475l-0.812-0.823l1.928,0.265l-0.021-0.022
		c-1.39-0.435-3.087-1.203-3.919-2.045c-0.7-0.706-0.794-1.645,3.315-0.988l7.154,1.142l0.918,0.927l-6.907-1.103
		c-1.931-0.308-3.238-0.26-2.374,0.615c0.605,0.611,2.09,1.248,3.459,1.599c0.314,0.086,0.707,0.167,1.078,0.225l7.204,1.15
		l0.917,0.928L206.073,57.095z"/>
	<path d="M212.655,53.717c-1.691-0.466-4.62-1.173-6.542-1.578l-1.259-1.062c2.355,0.589,5.562,1.492,7.017,1.972L212.655,53.717z
		 M199.16,51.18c-0.916-0.146-1.82-0.513-2.174-0.871c-0.375-0.379,0.029-0.519,0.945-0.373c0.866,0.139,1.774,0.488,2.15,0.868
		C200.445,51.172,200.026,51.319,199.16,51.18z"/>
	<path d="M324.191,158.755l-0.918-0.927l7.476,1.193l-0.02-0.021c-0.765-0.248-1.538-0.565-2.191-0.909
		c-0.642-0.333-1.214-0.699-1.556-1.047c-0.678-0.686-0.773-1.624,3.362-0.964l7.129,1.139l0.918,0.927l-6.882-1.099
		c-1.932-0.308-3.264-0.263-2.397,0.611c0.593,0.601,2.053,1.233,3.407,1.592c0.35,0.1,0.683,0.162,1.103,0.229l7.229,1.153
		l0.918,0.928L324.191,158.755z"/>
	<path d="M333.188,152.887l-1.437-0.168l0.03,0.031c1.223,0.436,2.606,1.118,3.326,1.845c1.021,1.033-0.165,1.288-1.9,1.011
		c-2.896-0.463-5.564-1.812-7.488-3.777l-0.247-0.04c-0.991-0.159-2.658-0.327-1.627,0.715c0.47,0.476,1.306,1.026,2.206,1.472
		l-1.229-0.019c-1.062-0.525-2.085-1.203-2.722-1.846c-1.541-1.561,0.583-1.539,2.983-1.156l4.48,0.716
		c1.041,0.165,2.034,0.306,2.789,0.374L333.188,152.887z M327.209,152.047c0.951,1.005,2.509,2.221,4.834,2.592
		c1.412,0.225,1.685-0.068,1.215-0.542c-0.656-0.664-2.062-1.245-3.225-1.555c-0.254-0.066-0.521-0.127-0.744-0.163L327.209,152.047
		z"/>
	<path d="M320.007,147c-1.237-0.197-2.241-0.348-3.2-0.476l-0.804-0.811l1.889,0.266l-0.031-0.031
		c-1.419-0.468-2.953-1.111-3.785-1.953c-0.689-0.696-0.221-1.065,0.972-1.062l-0.021-0.021c-0.825-0.264-1.543-0.548-2.123-0.818
		c-0.847-0.392-1.477-0.777-1.957-1.261c-0.667-0.676-0.617-1.511,3.543-0.847l7.054,1.127l0.897,0.906l-6.784-1.083
		c-2.302-0.367-3.334-0.231-2.594,0.517c0.521,0.528,1.843,1.084,3.065,1.414c0.337,0.089,0.766,0.183,1.161,0.247l7.403,1.182
		l0.895,0.906l-7.179-1.146c-1.906-0.305-2.938-0.169-2.239,0.538c0.573,0.58,2.079,1.175,3.314,1.497
		c0.374,0.104,0.767,0.185,1.138,0.243l7.229,1.154l0.896,0.905L320.007,147z"/>
	<path d="M312.563,134.812c1.237,0.199,2.314,0.36,3.224,0.48l0.815,0.822l-1.903-0.259l0.02,0.02
		c1.205,0.396,2.999,1.136,3.896,2.043c0.792,0.801,0.7,1.594-3.507,0.923l-7.007-1.119l-0.917-0.928l6.636,1.06
		c2.276,0.364,3.521,0.312,2.687-0.529c-0.615-0.624-2.058-1.218-3.19-1.54c-0.375-0.104-0.802-0.199-1.197-0.263l-7.354-1.174
		l-0.917-0.927L312.563,134.812z"/>
	<path d="M308.201,132.384c2.926,0.448,3.347-0.158,2.43-1.084c-0.657-0.664-1.326-1.108-2.016-1.513l1.402,0.091
		c0.671,0.382,1.618,1.004,2.42,1.816c1.555,1.569,0.057,2.12-3.559,1.544c-3.614-0.578-7.358-1.938-8.826-3.425
		c-1.648-1.665,1.356-1.558,3.559-1.207c0.445,0.072,0.813,0.148,1.046,0.194L308.201,132.384z M303.953,129.417
		c-1.396-0.232-3.301-0.323-2.269,0.721c0.927,0.937,3.365,1.674,4.947,1.988L303.953,129.417z"/>
	<path d="M300.838,127.196c-1.409-0.226-2.612-0.407-3.694-0.554l-0.804-0.812l2.321,0.345l-0.042-0.043
		c-1.84-0.489-3.407-1.209-4.022-1.831c-0.104-0.105-0.151-0.175-0.185-0.252l2.054,0.329c0.045,0.087,0.113,0.177,0.239,0.303
		c0.646,0.655,2.268,1.305,4.027,1.691c0.317,0.067,0.686,0.145,1.056,0.203l6.388,1.021l0.907,0.916L300.838,127.196z"/>
	<path d="M288.896,121.233l3.441,0.549l-1.313-1.328l1.658,0.264l1.313,1.328l6.462,1.032c1.485,0.236,2.149,0.192,1.64-0.324
		c-0.24-0.242-0.492-0.434-0.681-0.562l1.592,0.219c0.35,0.208,0.757,0.511,1.109,0.87c0.429,0.432,0.45,0.729,0.076,0.854
		c-0.384,0.16-1.354,0.087-2.766-0.14l-6.536-1.044l0.781,0.791l-1.658-0.265l-0.781-0.791l-2.872-0.459L288.896,121.233z"/>
	<path d="M291.38,115.797c4.432,0.708,7.654,2.324,8.874,3.556c1.366,1.381,0.043,2.065-3.746,1.461
		c-4.01-0.641-7.467-2.133-8.863-3.544C286.197,115.805,287.716,115.211,291.38,115.797z M295.507,119.864
		c2.623,0.418,3.968,0.092,3.071-0.813c-0.874-0.886-3.487-1.862-6.186-2.293c-2.03-0.324-4.178-0.303-3.094,0.793
		C290.383,118.647,293.229,119.5,295.507,119.864z"/>
	<path d="M272.167,106.152l14.483,2.312c1.064,0.171,2.268,0.352,3.052,0.451l0.823,0.834l-2.037-0.291l0.021,0.022
		c1.619,0.498,3.25,1.282,4.072,2.114c1.22,1.233-0.294,1.791-3.933,1.209c-3.976-0.625-7.468-2.07-8.699-3.313
		c-0.771-0.781-0.426-1.169,0.312-1.248l-0.021-0.021l-7.155-1.143L272.167,106.152z M283.557,108.751
		c-0.271-0.043-0.634-0.093-0.874-0.104c-1.25-0.084-1.889,0.24-1.202,0.935c0.949,0.959,3.492,1.846,6.142,2.267
		c2.426,0.387,3.931,0.203,2.94-0.799c-0.615-0.623-2.144-1.345-3.943-1.774c-0.329-0.08-0.636-0.138-0.982-0.193L283.557,108.751z"
		/>
	<path d="M282.117,106.008c2.925,0.449,3.346-0.158,2.428-1.085c-0.657-0.665-1.324-1.108-2.015-1.512l1.402,0.092
		c0.671,0.381,1.618,1.005,2.422,1.814c1.552,1.571,0.055,2.122-3.562,1.545c-3.613-0.578-7.356-1.938-8.826-3.425
		c-1.647-1.665,1.357-1.558,3.56-1.207c0.445,0.072,0.812,0.148,1.046,0.194L282.117,106.008z M277.868,103.04
		c-1.397-0.233-3.302-0.323-2.27,0.72c0.929,0.938,3.365,1.674,4.947,1.99L277.868,103.04z"/>
	<path d="M273.298,95.11c1.238,0.199,2.316,0.362,3.228,0.479l0.812,0.823l-1.902-0.26l0.021,0.021
		c1.206,0.397,2.999,1.135,3.896,2.042c0.791,0.802,0.699,1.594-3.509,0.922l-7.005-1.118l-0.918-0.927l6.635,1.059
		c2.277,0.364,3.521,0.313,2.687-0.529c-0.616-0.622-2.058-1.216-3.189-1.539c-0.374-0.105-0.802-0.198-1.198-0.262l-7.352-1.173
		l-0.918-0.928L273.298,95.11z"/>
	<path d="M266.305,92.697c-1.238-0.197-2.243-0.35-3.201-0.475l-0.813-0.823l1.929,0.264l-0.021-0.021
		c-1.389-0.435-3.086-1.202-3.92-2.045c-0.698-0.707-0.793-1.645,3.317-0.989l7.155,1.143l0.916,0.927l-6.906-1.102
		c-1.931-0.309-3.238-0.261-2.374,0.615c0.605,0.611,2.089,1.248,3.458,1.599c0.315,0.086,0.708,0.167,1.079,0.227l7.203,1.15
		l0.917,0.927L266.305,92.697z"/>
	<path d="M258.803,84.69c-1.411-0.225-2.613-0.41-3.696-0.555l-0.803-0.811l2.321,0.343l-0.041-0.042
		c-1.839-0.489-3.407-1.209-4.021-1.832c-0.105-0.105-0.154-0.175-0.187-0.251l2.055,0.328c0.044,0.086,0.113,0.178,0.238,0.304
		c0.646,0.653,2.268,1.303,4.026,1.69c0.318,0.069,0.687,0.146,1.057,0.204l6.389,1.02l0.906,0.917L258.803,84.69z"/>
	<path d="M257.636,81.254c2.926,0.45,3.348-0.157,2.43-1.085c-0.657-0.664-1.325-1.107-2.017-1.511l1.403,0.09
		c0.67,0.383,1.619,1.004,2.421,1.816c1.553,1.57,0.055,2.121-3.56,1.543c-3.614-0.577-7.356-1.938-8.827-3.424
		c-1.647-1.665,1.357-1.559,3.56-1.206c0.445,0.071,0.813,0.147,1.045,0.193L257.636,81.254z M253.388,78.287
		c-1.396-0.232-3.3-0.323-2.268,0.72c0.928,0.938,3.364,1.673,4.947,1.988L253.388,78.287z"/>
	<path d="M246.183,75.111l5.743,0.074c0.923,0.005,1.777,0.027,2.665,0.08l-0.032-0.032c-1.105-0.274-2.242-0.579-3.498-0.922
		l-7.713-2.066l-0.958-0.97l13.961,3.917l0.877,0.884l-10.064,0.027L246.183,75.111z"/>
	<path d="M242.954,66.829c4.432,0.707,7.654,2.322,8.873,3.556c1.366,1.38,0.043,2.065-3.746,1.461
		c-4.01-0.642-7.467-2.134-8.863-3.546C237.768,66.834,239.289,66.244,242.954,66.829z M247.08,70.896
		c2.624,0.419,3.969,0.093,3.072-0.814c-0.875-0.884-3.488-1.861-6.186-2.292c-2.03-0.323-4.178-0.302-3.094,0.793
		C241.956,69.678,244.802,70.532,247.08,70.896z"/>
	<path d="M230.308,63.823l-0.918-0.926l17.578,2.806l0.917,0.927L230.308,63.823z"/>
	<path d="M241.382,60.434c0.538,0.291,1.465,0.891,2.142,1.576c1.522,1.539,0.062,2.149-3.603,1.564
		c-3.689-0.589-7.426-2.091-9.072-3.756c-0.543-0.548-0.7-0.982-0.653-1.188l1.893,0.479c-0.079,0.174-0.007,0.479,0.493,0.985
		c1.157,1.17,3.812,2.126,6.313,2.526c2.772,0.443,3.73-0.042,2.73-1.056c-0.521-0.526-1.188-0.926-1.721-1.233L241.382,60.434z"/>
	<path d="M230.161,53.894c4.431,0.708,7.655,2.323,8.874,3.556c1.367,1.38,0.042,2.065-3.745,1.46
		c-4.011-0.64-7.467-2.133-8.865-3.546C224.976,53.9,226.497,53.308,230.161,53.894z M234.287,57.96
		c2.624,0.418,3.969,0.092,3.072-0.814c-0.875-0.885-3.488-1.862-6.186-2.292c-2.03-0.324-4.177-0.304-3.095,0.793
		C229.164,56.743,232.01,57.597,234.287,57.96z M220.189,53.233l4.812,1.851l0.656,0.666l-4.457-1.495L220.189,53.233z"/>
	<path d="M226.354,52.299c-1.237-0.197-2.244-0.349-3.201-0.475l-0.813-0.822l1.929,0.264l-0.021-0.022
		c-1.389-0.435-3.087-1.202-3.921-2.045c-0.698-0.707-0.792-1.645,3.318-0.988l7.155,1.142l0.917,0.928l-6.906-1.104
		c-1.932-0.308-3.239-0.26-2.375,0.616c0.605,0.611,2.088,1.247,3.458,1.6c0.314,0.086,0.706,0.166,1.077,0.224l7.205,1.15
		l0.918,0.927L226.354,52.299z"/>
	<path d="M366.187,162.533l0.021,0.02c1.46,0.465,2.963,1.185,3.776,2.007c1.179,1.19-0.288,1.772-3.929,1.191
		c-4.481-0.715-7.68-2.265-8.744-3.341c-0.781-0.789-0.388-1.17,0.526-1.237l-0.021-0.021l-1.84-0.319l-0.864-0.875
		c1.036,0.184,2.086,0.359,3.325,0.556l13.591,2.172l0.916,0.928L366.187,162.533z M360.914,161.69
		c-0.296-0.047-0.633-0.093-0.874-0.104c-1.2-0.075-1.851,0.237-1.163,0.934c0.949,0.958,3.428,1.843,6.128,2.274
		c2.376,0.38,3.975,0.226,2.965-0.796c-0.595-0.601-1.972-1.256-3.689-1.708c-0.339-0.09-0.79-0.188-1.113-0.24L360.914,161.69z"/>
	<path d="M358.124,155.582c1.238,0.197,2.317,0.359,3.228,0.479l0.813,0.821l-1.904-0.26l0.02,0.021
		c1.207,0.396,3,1.136,3.896,2.043c0.794,0.801,0.701,1.594-3.508,0.922l-7.006-1.12l-0.916-0.926l6.634,1.059
		c2.277,0.364,3.521,0.314,2.687-0.529c-0.613-0.623-2.057-1.216-3.189-1.538c-0.375-0.105-0.802-0.199-1.197-0.264l-7.353-1.174
		l-0.916-0.926L358.124,155.582z"/>
	<path d="M353.763,153.153c2.926,0.449,3.347-0.158,2.43-1.084c-0.657-0.666-1.325-1.109-2.015-1.513l1.4,0.091
		c0.672,0.382,1.62,1.005,2.423,1.816c1.552,1.57,0.054,2.12-3.561,1.544c-3.614-0.578-7.356-1.938-8.826-3.426
		c-1.647-1.665,1.355-1.558,3.56-1.206c0.444,0.072,0.812,0.148,1.044,0.193L353.763,153.153z M349.516,150.184
		c-1.398-0.231-3.302-0.322-2.27,0.722c0.928,0.938,3.363,1.673,4.946,1.987L349.516,150.184z"/>
	<path d="M344.192,145.73c-1.412-0.226-2.613-0.408-3.695-0.555l-0.804-0.812l2.321,0.345l-0.042-0.042
		c-1.841-0.489-3.405-1.211-4.021-1.831c-0.104-0.105-0.152-0.176-0.187-0.251l2.054,0.326c0.045,0.088,0.114,0.179,0.24,0.306
		c0.646,0.652,2.268,1.304,4.026,1.69c0.317,0.066,0.686,0.145,1.058,0.204l6.387,1.02l0.908,0.917L344.192,145.73z"/>
	<path d="M343.023,142.294c2.927,0.45,3.347-0.158,2.43-1.086c-0.656-0.664-1.324-1.107-2.014-1.511l1.401,0.092
		c0.671,0.381,1.62,1.003,2.422,1.813c1.554,1.572,0.056,2.122-3.56,1.545c-3.615-0.576-7.358-1.938-8.827-3.425
		c-1.646-1.665,1.356-1.559,3.562-1.206c0.444,0.071,0.811,0.146,1.043,0.193L343.023,142.294z M338.777,139.327
		c-1.396-0.232-3.302-0.324-2.271,0.72c0.928,0.938,3.366,1.674,4.949,1.988L338.777,139.327z"/>
	<path d="M339.866,134.715c0.536,0.29,1.465,0.891,2.143,1.575c1.521,1.539,0.062,2.15-3.604,1.563
		c-3.688-0.589-7.423-2.09-9.07-3.756c-0.543-0.548-0.701-0.98-0.654-1.186l1.893,0.479c-0.077,0.175-0.007,0.479,0.493,0.983
		c1.158,1.171,3.812,2.127,6.313,2.525c2.772,0.442,3.73-0.043,2.73-1.055c-0.521-0.527-1.188-0.926-1.722-1.232L339.866,134.715z"
		/>
	<path d="M322.867,130.214c0.732,0.11,1.557,0.437,1.921,0.805c0.322,0.327-0.042,0.465-0.785,0.346
		c-0.766-0.122-1.601-0.459-1.935-0.798C321.723,130.22,322.099,130.094,322.867,130.214z M339.238,133.7l-11.981-1.913
		l-0.918-0.927l11.982,1.912L339.238,133.7z"/>
	<path d="M336.84,131.275c-0.84-0.151-2.072-0.366-3.138-0.537l-14.482-2.312l-0.907-0.917l7.527,1.201l-0.021-0.021
		c-1.662-0.54-3.111-1.269-3.924-2.091c-1.251-1.265,0.339-1.764,3.987-1.175c4.283,0.687,7.549,2.174,8.675,3.312
		c0.731,0.737,0.646,1.221-0.565,1.348l0.032,0.031l2.021,0.359L336.84,131.275z M331.087,129.547
		c0.272,0.046,0.526,0.068,0.752,0.086c1.332,0.062,1.839-0.309,1.173-0.984c-0.96-0.971-3.389-1.846-6.137-2.284
		c-2.402-0.384-3.935-0.186-2.956,0.808c0.626,0.631,2.226,1.383,4.071,1.838c0.27,0.061,0.596,0.139,0.942,0.195L331.087,129.547z"
		/>
	<path d="M314.495,121.75c0.732,0.109,1.556,0.435,1.921,0.804c0.323,0.328-0.043,0.464-0.786,0.345
		c-0.766-0.121-1.6-0.459-1.933-0.795C313.351,121.755,313.727,121.628,314.495,121.75z M330.865,125.234l-11.982-1.913
		l-0.916-0.926l11.982,1.912L330.865,125.234z"/>
	<path d="M317.77,117.179c4.432,0.708,7.655,2.323,8.874,3.555c1.366,1.381,0.042,2.067-3.745,1.461
		c-4.011-0.639-7.469-2.132-8.865-3.545C312.586,117.185,314.104,116.594,317.77,117.179z M321.895,121.246
		c2.626,0.419,3.971,0.092,3.074-0.814c-0.874-0.885-3.488-1.862-6.187-2.292c-2.032-0.325-4.177-0.303-3.094,0.793
		C316.774,120.029,319.618,120.882,321.895,121.246z M307.799,116.518l4.811,1.852l0.656,0.664l-4.457-1.493L307.799,116.518z"/>
	<path d="M314.385,113.334c2.926,0.45,3.347-0.158,2.429-1.085c-0.657-0.664-1.324-1.108-2.015-1.511l1.402,0.091
		c0.67,0.382,1.618,1.004,2.421,1.816c1.554,1.569,0.055,2.121-3.56,1.543c-3.613-0.576-7.357-1.937-8.827-3.423
		c-1.646-1.666,1.357-1.559,3.561-1.206c0.445,0.071,0.812,0.147,1.046,0.192L314.385,113.334z M310.137,110.367
		c-1.396-0.232-3.301-0.323-2.27,0.721c0.928,0.938,3.365,1.672,4.949,1.988L310.137,110.367z"/>
	<path d="M306.53,108.068c-1.238-0.197-2.242-0.349-3.202-0.475l-0.812-0.822l1.927,0.263l-0.02-0.022
		c-1.388-0.436-3.086-1.202-3.92-2.045c-0.698-0.707-0.793-1.645,3.318-0.988l7.154,1.141l0.915,0.928l-6.906-1.103
		c-1.932-0.308-3.237-0.26-2.373,0.615c0.605,0.611,2.089,1.247,3.459,1.6c0.313,0.084,0.707,0.167,1.077,0.225l7.204,1.15
		l0.918,0.928L306.53,108.068z"/>
	<path d="M289.695,98.571l-0.918-0.927l17.578,2.806l0.917,0.928L289.695,98.571z"/>
	<path d="M302.018,96.065l-1.437-0.167l0.03,0.03c1.223,0.435,2.607,1.118,3.326,1.845c1.021,1.034-0.167,1.287-1.9,1.011
		c-2.895-0.462-5.564-1.812-7.488-3.779l-0.248-0.038c-0.99-0.159-2.657-0.328-1.625,0.716c0.469,0.474,1.306,1.025,2.204,1.47
		l-1.229-0.018c-1.059-0.524-2.085-1.203-2.721-1.846c-1.543-1.561,0.583-1.542,2.983-1.158l4.48,0.717
		c1.04,0.165,2.035,0.306,2.789,0.374L302.018,96.065z M296.04,95.225c0.95,1.003,2.508,2.221,4.835,2.591
		c1.409,0.227,1.683-0.067,1.215-0.543c-0.658-0.662-2.065-1.243-3.226-1.552c-0.254-0.067-0.521-0.128-0.745-0.164L296.04,95.225z"
		/>
	<path d="M281.048,87.994l3.44,0.549l-1.312-1.327l1.658,0.266l1.312,1.328l6.461,1.031c1.486,0.237,2.149,0.192,1.64-0.325
		c-0.239-0.242-0.491-0.433-0.681-0.561l1.592,0.218c0.352,0.207,0.757,0.512,1.111,0.87c0.427,0.432,0.449,0.728,0.073,0.854
		c-0.383,0.162-1.353,0.086-2.765-0.14l-6.535-1.043l0.781,0.791l-1.657-0.265l-0.782-0.791l-2.872-0.459L281.048,87.994z"/>
	<path d="M285.88,86.768c-1.409-0.226-2.612-0.409-3.695-0.556l-0.803-0.811l2.321,0.344l-0.042-0.043
		c-1.839-0.489-3.405-1.209-4.021-1.831c-0.104-0.106-0.152-0.176-0.188-0.253l2.056,0.329c0.045,0.087,0.114,0.178,0.239,0.305
		c0.646,0.653,2.268,1.302,4.027,1.689c0.317,0.068,0.687,0.146,1.056,0.206l6.389,1.018l0.905,0.918L285.88,86.768z"/>
	<path d="M287.975,81.864l-1.438-0.167l0.031,0.032c1.223,0.435,2.606,1.117,3.325,1.844c1.021,1.033-0.165,1.288-1.898,1.011
		c-2.897-0.463-5.566-1.812-7.489-3.779l-0.248-0.04c-0.991-0.158-2.657-0.327-1.625,0.718c0.468,0.474,1.304,1.024,2.203,1.47
		l-1.228-0.019c-1.06-0.523-2.085-1.202-2.722-1.845c-1.541-1.559,0.584-1.541,2.982-1.157l4.482,0.715
		c1.039,0.166,2.034,0.308,2.788,0.374L287.975,81.864z M281.996,81.024c0.95,1.004,2.508,2.221,4.835,2.591
		c1.409,0.227,1.684-0.067,1.215-0.542c-0.656-0.664-2.064-1.243-3.226-1.553c-0.254-0.067-0.521-0.128-0.745-0.164L281.996,81.024z
		"/>
	<path d="M283.639,79.379c0.151-0.208,0.119-0.621-0.341-1.084c-0.667-0.674-1.772-1.118-2.764-1.277
		c-1.04-0.166-1.349,0.007-1.265,0.598c0.139,0.794-0.621,1.037-2.058,0.807c-1.932-0.308-4.172-1.225-5.257-2.321
		c-0.51-0.517-0.612-0.915-0.498-1.135l1.815,0.484c-0.099,0.152-0.131,0.458,0.338,0.933c0.543,0.547,1.588,0.972,2.478,1.114
		c0.992,0.158,1.134-0.077,1.072-0.646c-0.084-0.759,0.509-1.046,2.291-0.761c2.104,0.336,4.277,1.269,5.475,2.48
		c0.554,0.559,0.741,1.024,0.603,1.303L283.639,79.379z"/>
	<path d="M275.508,74.023c2.925,0.45,3.347-0.158,2.43-1.084c-0.657-0.665-1.326-1.108-2.016-1.512l1.401,0.091
		c0.671,0.383,1.619,1.004,2.422,1.814c1.554,1.572,0.055,2.123-3.56,1.546c-3.614-0.579-7.357-1.939-8.826-3.425
		c-1.647-1.666,1.355-1.559,3.559-1.207c0.445,0.071,0.812,0.148,1.045,0.194L275.508,74.023z M271.26,71.055
		c-1.396-0.231-3.302-0.324-2.27,0.72c0.927,0.938,3.366,1.674,4.948,1.988L271.26,71.055z"/>
	<path d="M268.147,68.836c-1.411-0.226-2.613-0.409-3.696-0.555l-0.803-0.812l2.322,0.344l-0.042-0.042
		c-1.84-0.489-3.407-1.209-4.021-1.832c-0.104-0.104-0.152-0.175-0.188-0.251l2.055,0.328c0.044,0.087,0.114,0.178,0.238,0.304
		c0.647,0.653,2.269,1.302,4.028,1.691c0.317,0.067,0.686,0.144,1.056,0.203l6.388,1.02l0.907,0.917L268.147,68.836z"/>
	<path d="M270.242,63.932l-1.438-0.168l0.031,0.031c1.221,0.436,2.605,1.119,3.324,1.846c1.022,1.033-0.166,1.287-1.898,1.01
		c-2.896-0.461-5.565-1.811-7.489-3.778l-0.247-0.04c-0.992-0.158-2.659-0.327-1.626,0.717c0.468,0.475,1.305,1.025,2.204,1.47
		l-1.228-0.018c-1.061-0.524-2.086-1.204-2.722-1.846c-1.543-1.56,0.582-1.542,2.983-1.157l4.481,0.715
		c1.038,0.167,2.034,0.308,2.789,0.375L270.242,63.932z M264.261,63.093c0.951,1.003,2.508,2.22,4.835,2.591
		c1.411,0.225,1.685-0.068,1.215-0.542c-0.656-0.664-2.063-1.244-3.226-1.554c-0.253-0.068-0.522-0.127-0.745-0.164L264.261,63.093z
		"/>
	<path d="M271.648,62.763c-1.69-0.466-4.62-1.173-6.543-1.578l-1.269-1.073c2.343,0.578,5.55,1.481,7.006,1.962L271.648,62.763z"/>
	<path d="M388.884,168.801l5.974,0.013c0.679,0.012,1.494,0.034,2.13,0.064l-0.021-0.021c-0.812-0.21-1.834-0.461-2.823-0.727
		l-8.032-2.134l-0.969-0.98l9.918,2.755c4.766,1.32,7.317,2.109,9.23,2.946c1.387,0.604,2.209,1.117,2.537,1.364l-1.604-0.062
		c-0.401-0.258-1.052-0.619-1.868-0.981c-0.72-0.327-1.873-0.776-3.197-1.167c-0.265-0.077-0.468-0.136-0.594-0.157
		c-0.123-0.02-0.273-0.024-0.504-0.025l-9.177,0.122L388.884,168.801z"/>
	<path d="M387.973,162.442c2.925,0.448,3.347-0.159,2.429-1.086c-0.656-0.664-1.325-1.108-2.015-1.511l1.401,0.089
		c0.671,0.383,1.618,1.004,2.422,1.817c1.552,1.57,0.054,2.121-3.56,1.544c-3.615-0.579-7.357-1.938-8.828-3.424
		c-1.646-1.666,1.356-1.559,3.56-1.207c0.445,0.07,0.813,0.148,1.045,0.193L387.973,162.442z M383.725,159.472
		c-1.397-0.229-3.301-0.321-2.271,0.721c0.928,0.938,3.365,1.674,4.949,1.988L383.725,159.472z"/>
	<path d="M380.613,157.253c-1.412-0.226-2.615-0.408-3.697-0.556l-0.804-0.81l2.321,0.343l-0.041-0.042
		c-1.839-0.488-3.405-1.21-4.021-1.83c-0.104-0.107-0.152-0.177-0.186-0.253l2.054,0.327c0.046,0.089,0.113,0.179,0.239,0.306
		c0.646,0.652,2.267,1.301,4.026,1.69c0.317,0.067,0.687,0.145,1.059,0.204l6.385,1.019l0.907,0.917L380.613,157.253z"/>
	<path d="M382.705,152.348l-1.437-0.165l0.031,0.031c1.222,0.435,2.605,1.117,3.325,1.845c1.02,1.033-0.167,1.287-1.899,1.01
		c-2.896-0.463-5.565-1.812-7.489-3.778l-0.248-0.04c-0.991-0.157-2.657-0.326-1.626,0.718c0.471,0.475,1.305,1.025,2.205,1.47
		l-1.227-0.019c-1.062-0.523-2.086-1.203-2.722-1.845c-1.544-1.561,0.582-1.541,2.983-1.157l4.481,0.716
		c1.038,0.164,2.033,0.307,2.787,0.373L382.705,152.348z M376.725,151.51c0.951,1.004,2.507,2.22,4.836,2.592
		c1.41,0.226,1.683-0.068,1.213-0.542c-0.657-0.664-2.062-1.244-3.224-1.553c-0.254-0.069-0.523-0.129-0.745-0.164L376.725,151.51z"
		/>
	<path d="M361.736,144.279l3.44,0.55l-1.312-1.328l1.658,0.263l1.313,1.33l6.461,1.032c1.485,0.236,2.149,0.191,1.64-0.324
		c-0.24-0.243-0.493-0.435-0.681-0.562l1.592,0.219c0.352,0.206,0.756,0.513,1.109,0.87c0.428,0.432,0.449,0.728,0.075,0.854
		c-0.385,0.161-1.353,0.086-2.767-0.14L367.73,146l0.783,0.791l-1.659-0.265l-0.781-0.791l-2.871-0.458L361.736,144.279z"/>
	<path d="M372.018,141.543l-1.437-0.167l0.032,0.032c1.22,0.435,2.605,1.117,3.323,1.845c1.022,1.032-0.166,1.286-1.898,1.011
		c-2.896-0.464-5.564-1.812-7.49-3.779l-0.245-0.039c-0.99-0.159-2.658-0.327-1.627,0.717c0.47,0.474,1.304,1.024,2.205,1.469
		l-1.228-0.018c-1.061-0.523-2.086-1.203-2.721-1.846c-1.543-1.561,0.581-1.541,2.982-1.156l4.482,0.716
		c1.037,0.164,2.032,0.306,2.787,0.372L372.018,141.543z M366.039,140.705c0.95,1.004,2.507,2.22,4.837,2.592
		c1.41,0.226,1.683-0.069,1.212-0.543c-0.656-0.664-2.062-1.243-3.224-1.552c-0.254-0.068-0.524-0.129-0.746-0.164L366.039,140.705z
		"/>
	<path d="M361.047,137.891c-1.238-0.195-2.242-0.348-3.2-0.476l-0.813-0.82l1.927,0.263l-0.021-0.021
		c-1.387-0.436-3.085-1.203-3.918-2.046c-0.7-0.706-0.793-1.645,3.316-0.988l7.154,1.142l0.916,0.928l-6.906-1.104
		c-1.931-0.307-3.236-0.259-2.372,0.615c0.604,0.612,2.087,1.249,3.457,1.601c0.313,0.085,0.708,0.166,1.077,0.225l7.206,1.149
		l0.916,0.929L361.047,137.891z"/>
	<path d="M347.515,129.899l3.44,0.551l-1.312-1.329l1.657,0.265l1.314,1.328l6.461,1.032c1.484,0.236,2.149,0.191,1.639-0.324
		c-0.239-0.242-0.492-0.435-0.68-0.562l1.592,0.22c0.35,0.205,0.755,0.509,1.11,0.868c0.427,0.432,0.448,0.728,0.074,0.855
		c-0.384,0.161-1.354,0.085-2.766-0.141l-6.534-1.043l0.782,0.791l-1.659-0.265l-0.782-0.791l-2.872-0.459L347.515,129.899z"/>
	<path d="M357.797,127.165l-1.437-0.167l0.03,0.031c1.223,0.436,2.606,1.117,3.327,1.845c1.021,1.033-0.167,1.287-1.898,1.01
		c-2.897-0.461-5.566-1.811-7.491-3.777l-0.247-0.04c-0.989-0.158-2.659-0.327-1.626,0.716c0.47,0.476,1.304,1.025,2.205,1.471
		l-1.228-0.018c-1.061-0.524-2.086-1.203-2.721-1.847c-1.544-1.559,0.582-1.54,2.981-1.155l4.483,0.715
		c1.038,0.165,2.033,0.307,2.787,0.374L357.797,127.165z M351.819,126.327c0.95,1.003,2.506,2.219,4.836,2.59
		c1.409,0.226,1.683-0.067,1.212-0.543c-0.656-0.664-2.061-1.243-3.223-1.553c-0.254-0.068-0.523-0.128-0.746-0.164L351.819,126.327
		z"/>
	<path d="M351.251,122.444c0.151-0.207,0.119-0.621-0.341-1.084c-0.666-0.674-1.773-1.119-2.763-1.276
		c-1.04-0.166-1.349,0.006-1.265,0.597c0.139,0.795-0.621,1.037-2.058,0.808c-1.931-0.31-4.172-1.225-5.257-2.322
		c-0.509-0.516-0.612-0.914-0.499-1.135l1.816,0.485c-0.099,0.152-0.131,0.458,0.338,0.933c0.542,0.548,1.587,0.973,2.478,1.114
		c0.991,0.157,1.135-0.077,1.071-0.645c-0.083-0.759,0.509-1.047,2.291-0.763c2.104,0.337,4.277,1.269,5.477,2.481
		c0.553,0.56,0.741,1.024,0.602,1.304L351.251,122.444z"/>
	<path d="M341.738,113.709c1.238,0.196,2.317,0.36,3.227,0.479l0.813,0.822l-1.904-0.259l0.021,0.02
		c1.205,0.397,2.999,1.136,3.896,2.042c0.792,0.801,0.7,1.594-3.507,0.922l-7.008-1.119l-0.916-0.929l6.635,1.061
		c2.277,0.364,3.52,0.314,2.688-0.53c-0.615-0.623-2.06-1.216-3.191-1.54c-0.374-0.104-0.803-0.198-1.197-0.261l-7.352-1.173
		l-0.917-0.927L341.738,113.709z"/>
	<path d="M324.744,106.875l3.443,0.549l-1.314-1.328l1.658,0.265l1.314,1.328l6.462,1.032c1.484,0.238,2.148,0.192,1.638-0.324
		c-0.239-0.243-0.492-0.434-0.681-0.562l1.593,0.219c0.351,0.208,0.756,0.512,1.11,0.869c0.427,0.433,0.449,0.729,0.075,0.856
		c-0.385,0.16-1.355,0.086-2.767-0.14l-6.534-1.043l0.78,0.79l-1.658-0.264l-0.781-0.79l-2.871-0.459L324.744,106.875z"/>
	<path d="M327.228,101.44c4.433,0.708,7.656,2.322,8.875,3.555c1.365,1.381,0.041,2.067-3.746,1.462
		c-4.011-0.641-7.468-2.134-8.864-3.545C322.044,101.446,323.566,100.854,327.228,101.44z M331.355,105.506
		c2.625,0.419,3.971,0.093,3.074-0.814c-0.876-0.885-3.49-1.861-6.189-2.292c-2.029-0.324-4.176-0.303-3.092,0.793
		C326.231,104.289,329.079,105.143,331.355,105.506z"/>
	<path d="M323.421,99.845c-1.239-0.197-2.241-0.349-3.201-0.475l-0.812-0.823l1.928,0.263l-0.021-0.021
		c-1.389-0.433-3.086-1.202-3.919-2.045c-0.698-0.707-0.793-1.644,3.316-0.988l7.154,1.143l0.919,0.928l-6.908-1.103
		c-1.931-0.309-3.238-0.26-2.372,0.614c0.604,0.612,2.087,1.248,3.456,1.599c0.314,0.087,0.708,0.167,1.079,0.226l7.204,1.15
		l0.917,0.928L323.421,99.845z"/>
	<path d="M309.888,91.852l3.44,0.55l-1.312-1.328l1.66,0.265l1.312,1.329l6.461,1.03c1.485,0.238,2.15,0.193,1.64-0.323
		c-0.24-0.243-0.492-0.434-0.681-0.561L324,93.031c0.352,0.208,0.755,0.511,1.109,0.869c0.428,0.433,0.45,0.729,0.074,0.856
		c-0.384,0.161-1.353,0.084-2.765-0.14l-6.535-1.044l0.781,0.791l-1.658-0.265l-0.782-0.791l-2.87-0.458L309.888,91.852z"/>
	<path d="M316.921,90.596c2.925,0.45,3.345-0.158,2.429-1.085c-0.656-0.665-1.324-1.108-2.014-1.511l1.402,0.091
		c0.669,0.382,1.618,1.004,2.42,1.815c1.554,1.57,0.056,2.122-3.56,1.545c-3.614-0.577-7.356-1.939-8.827-3.425
		c-1.647-1.665,1.356-1.558,3.562-1.207c0.442,0.07,0.811,0.148,1.043,0.194L316.921,90.596z M312.673,87.628
		c-1.398-0.233-3.303-0.323-2.27,0.72c0.927,0.938,3.365,1.673,4.948,1.989L312.673,87.628z"/>
	<path d="M309.562,85.409c-1.414-0.226-2.615-0.408-3.698-0.555l-0.802-0.812l2.32,0.343l-0.042-0.042
		c-1.839-0.49-3.405-1.21-4.021-1.832c-0.104-0.105-0.152-0.175-0.188-0.251l2.056,0.328c0.047,0.087,0.114,0.178,0.239,0.305
		c0.646,0.654,2.267,1.302,4.026,1.69c0.318,0.067,0.686,0.145,1.058,0.204l6.387,1.02l0.908,0.917L309.562,85.409z"/>
	<path d="M311.655,80.504l-1.438-0.167l0.032,0.03c1.22,0.436,2.605,1.118,3.324,1.846c1.021,1.032-0.166,1.287-1.898,1.01
		c-2.896-0.461-5.567-1.811-7.489-3.778l-0.249-0.04c-0.99-0.158-2.657-0.326-1.626,0.717c0.469,0.474,1.305,1.026,2.205,1.471
		l-1.229-0.018c-1.059-0.524-2.084-1.204-2.721-1.846c-1.542-1.559,0.583-1.541,2.982-1.157l4.483,0.715
		c1.038,0.167,2.034,0.308,2.787,0.375L311.655,80.504z M305.674,79.666c0.95,1.002,2.507,2.22,4.835,2.591
		c1.412,0.225,1.684-0.068,1.214-0.543c-0.656-0.664-2.062-1.244-3.225-1.553c-0.252-0.067-0.522-0.129-0.744-0.164L305.674,79.666z
		"/>
	<path d="M425.619,172.021l0.02,0.021c1.46,0.465,2.963,1.184,3.775,2.007c1.179,1.189-0.288,1.772-3.929,1.189
		c-4.479-0.714-7.681-2.262-8.742-3.339c-0.783-0.79-0.387-1.17,0.524-1.238l-0.021-0.021l-1.838-0.319l-0.865-0.875
		c1.038,0.185,2.088,0.36,3.323,0.559l13.593,2.169l0.918,0.927L425.619,172.021z M420.344,171.179
		c-0.296-0.047-0.631-0.093-0.873-0.104c-1.203-0.075-1.852,0.238-1.162,0.934c0.947,0.959,3.429,1.842,6.124,2.274
		c2.379,0.378,3.979,0.225,2.967-0.798c-0.593-0.6-1.973-1.256-3.688-1.707c-0.341-0.09-0.793-0.188-1.113-0.239L420.344,171.179z"
		/>
	<path d="M417.556,165.069c1.237,0.198,2.315,0.361,3.225,0.481l0.813,0.82l-1.903-0.259l0.02,0.021
		c1.205,0.396,3.001,1.137,3.896,2.042c0.792,0.802,0.703,1.595-3.508,0.924l-7.006-1.119l-0.917-0.927l6.635,1.06
		c2.278,0.363,3.521,0.312,2.687-0.53c-0.615-0.623-2.058-1.217-3.189-1.538c-0.375-0.106-0.801-0.2-1.197-0.264l-7.354-1.174
		l-0.917-0.927L417.556,165.069z"/>
	<path d="M413.195,162.642c2.924,0.449,3.346-0.158,2.43-1.086c-0.659-0.664-1.327-1.108-2.019-1.511l1.405,0.091
		c0.669,0.384,1.617,1.004,2.419,1.816c1.554,1.569,0.056,2.121-3.56,1.543c-3.613-0.576-7.356-1.938-8.826-3.425
		c-1.646-1.665,1.356-1.558,3.559-1.206c0.445,0.071,0.813,0.147,1.047,0.194L413.195,162.642z M408.944,159.672
		c-1.395-0.23-3.299-0.321-2.268,0.722c0.928,0.938,3.364,1.674,4.947,1.988L408.944,159.672z"/>
	<path d="M405.761,155.125c2.924,0.45,3.346-0.157,2.428-1.085c-0.656-0.664-1.324-1.107-2.016-1.512l1.405,0.091
		c0.669,0.383,1.617,1.005,2.419,1.815c1.553,1.57,0.056,2.121-3.559,1.545c-3.614-0.577-7.357-1.938-8.828-3.424
		c-1.647-1.665,1.355-1.559,3.559-1.208c0.446,0.071,0.814,0.148,1.048,0.194L405.761,155.125z M401.511,152.157
		c-1.396-0.231-3.299-0.322-2.268,0.72c0.929,0.938,3.364,1.674,4.946,1.988L401.511,152.157z"/>
	<path d="M397.904,149.857c-1.236-0.196-2.242-0.349-3.202-0.476l-0.812-0.82l1.931,0.264l-0.022-0.022
		c-1.39-0.434-3.087-1.203-3.921-2.046c-0.698-0.706-0.791-1.645,3.316-0.987l7.156,1.143l0.916,0.927l-6.906-1.103
		c-1.932-0.31-3.238-0.26-2.372,0.615c0.604,0.61,2.088,1.249,3.458,1.6c0.314,0.086,0.705,0.166,1.078,0.227l7.201,1.148
		l0.919,0.927L397.904,149.857z"/>
	<path d="M392.542,141.757c2.924,0.449,3.346-0.157,2.43-1.085c-0.658-0.664-1.325-1.108-2.018-1.512l1.405,0.092
		c0.668,0.382,1.616,1.004,2.42,1.815c1.552,1.57,0.055,2.12-3.562,1.544c-3.612-0.578-7.356-1.938-8.826-3.425
		c-1.646-1.665,1.356-1.559,3.56-1.208c0.445,0.073,0.813,0.149,1.048,0.195L392.542,141.757z M388.292,138.789
		c-1.397-0.231-3.301-0.321-2.27,0.722c0.928,0.938,3.364,1.673,4.946,1.988L388.292,138.789z"/>
	<path d="M375.847,135.08l-0.916-0.928l17.574,2.807l0.918,0.927L375.847,135.08z"/>
	<path d="M386.65,132.934c0.15-0.207,0.116-0.621-0.343-1.084c-0.667-0.676-1.771-1.117-2.762-1.275
		c-1.039-0.167-1.349,0.007-1.266,0.596c0.141,0.795-0.622,1.037-2.057,0.808c-1.932-0.307-4.173-1.225-5.257-2.321
		c-0.51-0.516-0.611-0.914-0.498-1.135l1.813,0.484c-0.099,0.153-0.129,0.458,0.339,0.934c0.542,0.548,1.588,0.972,2.478,1.114
		c0.991,0.157,1.134-0.076,1.072-0.646c-0.083-0.759,0.507-1.047,2.292-0.763c2.103,0.337,4.275,1.27,5.475,2.481
		c0.553,0.559,0.742,1.024,0.6,1.303L386.65,132.934z"/>
	<path d="M378.519,127.58c2.924,0.447,3.346-0.159,2.43-1.086c-0.657-0.664-1.326-1.107-2.018-1.512l1.404,0.092
		c0.67,0.382,1.617,1.002,2.421,1.813c1.552,1.572,0.055,2.122-3.561,1.544c-3.613-0.575-7.358-1.937-8.826-3.423
		c-1.647-1.665,1.355-1.558,3.558-1.207c0.445,0.072,0.813,0.148,1.049,0.194L378.519,127.58z M374.271,124.61
		c-1.398-0.231-3.302-0.322-2.27,0.722c0.928,0.937,3.364,1.674,4.947,1.987L374.271,124.61z"/>
	<path d="M371.332,122.417c-1.536-0.245-2.753-0.422-3.872-0.582l-0.822-0.833l2.013,0.286l-0.021-0.021
		c-1.835-0.612-3.297-1.352-4.119-2.183c-1.22-1.235,0.313-1.769,3.953-1.189c4.308,0.688,7.541,2.145,8.729,3.347
		c0.668,0.675,0.558,1.154-0.328,1.271l0.021,0.021l6.512,1.04l0.906,0.916L371.332,122.417z M373.619,122.011
		c0.32,0.051,0.597,0.077,0.848,0.1c1.343,0.074,1.831-0.32,1.175-0.984c-0.969-0.98-3.414-1.849-6.162-2.288
		c-2.401-0.383-3.924-0.174-2.953,0.807c0.625,0.632,2.271,1.392,4.083,1.833c0.304,0.074,0.657,0.158,0.955,0.206L373.619,122.011z
		"/>
	<path d="M365.979,112.918c1.238,0.197,2.317,0.36,3.228,0.478l0.812,0.823l-1.904-0.26l0.021,0.021
		c1.204,0.396,2.999,1.136,3.895,2.042c0.792,0.801,0.703,1.594-3.508,0.922l-7.005-1.119l-0.917-0.926l6.634,1.058
		c2.28,0.365,3.521,0.314,2.687-0.529c-0.614-0.621-2.056-1.216-3.188-1.539c-0.375-0.104-0.801-0.198-1.196-0.261l-7.354-1.175
		l-0.917-0.927L365.979,112.918z"/>
	<path d="M350.148,109.094l-0.918-0.928l17.577,2.807l0.917,0.926L350.148,109.094z"/>
	<path d="M361.222,105.704c0.536,0.29,1.464,0.891,2.141,1.576c1.522,1.54,0.062,2.149-3.601,1.565
		c-3.688-0.589-7.428-2.093-9.073-3.757c-0.542-0.548-0.698-0.98-0.651-1.187l1.89,0.479c-0.077,0.175-0.007,0.479,0.493,0.985
		c1.157,1.169,3.814,2.126,6.315,2.526c2.771,0.442,3.729-0.043,2.729-1.057c-0.521-0.525-1.187-0.926-1.721-1.233L361.222,105.704z
		"/>
	<path d="M352.348,103.373c-1.41-0.225-2.613-0.409-3.696-0.555l-0.801-0.812l2.321,0.345l-0.042-0.043
		c-1.84-0.489-3.407-1.209-4.021-1.831c-0.105-0.106-0.152-0.176-0.186-0.25l2.054,0.327c0.044,0.087,0.113,0.178,0.238,0.305
		c0.645,0.653,2.269,1.301,4.026,1.69c0.318,0.068,0.687,0.145,1.059,0.204l6.386,1.02l0.907,0.917L352.348,103.373z"/>
	<path d="M346.632,95.758c4.431,0.707,7.653,2.322,8.874,3.555c1.364,1.38,0.043,2.067-3.746,1.462
		c-4.01-0.64-7.467-2.133-8.864-3.545C341.448,95.765,342.969,95.172,346.632,95.758z M350.76,99.825
		c2.624,0.419,3.968,0.093,3.072-0.815c-0.877-0.884-3.489-1.86-6.188-2.292c-2.028-0.324-4.177-0.303-3.094,0.794
		C345.635,98.608,348.481,99.461,350.76,99.825z"/>
	<path d="M337.039,91.074l5.976,0.014c0.679,0.01,1.492,0.034,2.128,0.064l-0.021-0.021c-0.812-0.21-1.83-0.462-2.823-0.726
		l-8.032-2.135l-0.97-0.979l9.917,2.753c4.767,1.32,7.319,2.109,9.231,2.947c1.39,0.604,2.208,1.117,2.538,1.365l-1.603-0.06
		c-0.404-0.262-1.052-0.622-1.867-0.983c-0.722-0.329-1.877-0.78-3.198-1.168c-0.264-0.077-0.47-0.136-0.593-0.157
		c-0.124-0.018-0.277-0.025-0.507-0.026l-9.177,0.124L337.039,91.074z"/>
	<path d="M341.691,85.576l-1.437-0.167l0.032,0.033c1.221,0.434,2.604,1.117,3.324,1.843c1.022,1.033-0.164,1.29-1.897,1.011
		c-2.897-0.462-5.564-1.811-7.489-3.777l-0.249-0.041c-0.989-0.158-2.657-0.326-1.625,0.717c0.47,0.474,1.307,1.025,2.204,1.47
		l-1.229-0.018c-1.058-0.524-2.083-1.204-2.72-1.847c-1.543-1.559,0.582-1.539,2.984-1.156l4.48,0.715
		c1.041,0.167,2.033,0.307,2.788,0.375L341.691,85.576z M335.712,84.737c0.951,1.003,2.508,2.22,4.836,2.592
		c1.411,0.225,1.684-0.069,1.215-0.543c-0.657-0.664-2.064-1.244-3.225-1.553c-0.255-0.067-0.521-0.127-0.746-0.163L335.712,84.737z
		"/>
	<path d="M331.144,79.676c2.925,0.448,3.348-0.159,2.43-1.088c-0.657-0.663-1.325-1.106-2.016-1.509l1.402,0.09
		c0.67,0.382,1.618,1.004,2.421,1.816c1.553,1.57,0.055,2.121-3.56,1.543c-3.613-0.577-7.357-1.938-8.828-3.424
		c-1.646-1.666,1.356-1.559,3.561-1.206c0.445,0.07,0.811,0.147,1.047,0.193L331.144,79.676z M326.896,76.707
		c-1.397-0.233-3.3-0.324-2.269,0.72c0.928,0.938,3.364,1.673,4.947,1.988L326.896,76.707z"/>
	<path d="M329.923,75.573c0.15-0.207,0.116-0.62-0.342-1.084c-0.667-0.674-1.771-1.118-2.764-1.276
		c-1.038-0.166-1.347,0.007-1.265,0.598c0.141,0.795-0.62,1.036-2.057,0.808c-1.931-0.31-4.173-1.227-5.257-2.322
		c-0.512-0.516-0.611-0.915-0.497-1.135l1.813,0.484c-0.101,0.152-0.131,0.458,0.339,0.932c0.541,0.549,1.588,0.972,2.478,1.114
		c0.989,0.158,1.136-0.075,1.072-0.645c-0.084-0.76,0.507-1.047,2.291-0.761c2.104,0.335,4.275,1.268,5.474,2.48
		c0.553,0.558,0.742,1.024,0.601,1.303L329.923,75.573z"/>
	<path d="M311.37,68.049l3.441,0.549l-1.313-1.327l1.659,0.265l1.313,1.327l6.461,1.031c1.484,0.237,2.149,0.193,1.639-0.324
		c-0.239-0.242-0.49-0.434-0.68-0.561l1.594,0.218c0.349,0.207,0.754,0.51,1.107,0.87c0.428,0.431,0.451,0.728,0.076,0.854
		c-0.383,0.161-1.355,0.085-2.765-0.139l-6.536-1.045l0.782,0.792l-1.659-0.265l-0.782-0.792l-2.872-0.458L311.37,68.049z"/>
	<path d="M321.654,65.315l-1.438-0.168l0.031,0.031c1.222,0.435,2.605,1.119,3.325,1.844c1.021,1.034-0.164,1.289-1.898,1.011
		c-2.896-0.462-5.563-1.812-7.488-3.778l-0.25-0.041c-0.986-0.157-2.655-0.326-1.623,0.718c0.469,0.474,1.305,1.024,2.203,1.471
		l-1.228-0.019c-1.06-0.524-2.086-1.203-2.721-1.846c-1.544-1.56,0.58-1.541,2.983-1.157l4.481,0.715
		c1.04,0.167,2.033,0.307,2.787,0.374L321.654,65.315z M315.675,64.475c0.951,1.003,2.508,2.22,4.835,2.591
		c1.411,0.225,1.683-0.068,1.214-0.543c-0.656-0.664-2.063-1.243-3.224-1.552c-0.255-0.067-0.523-0.127-0.745-0.163L315.675,64.475z
		"/>
	<path d="M319.463,63.1c-0.837-0.152-2.071-0.367-3.136-0.537l-14.482-2.312l-0.907-0.918l7.526,1.202l-0.021-0.021
		c-1.659-0.541-3.11-1.269-3.923-2.091c-1.25-1.264,0.339-1.766,3.989-1.174c4.283,0.685,7.546,2.173,8.672,3.31
		c0.731,0.738,0.646,1.223-0.562,1.349l0.031,0.032l2.021,0.358L319.463,63.1z M313.711,61.373c0.273,0.044,0.524,0.067,0.751,0.085
		c1.333,0.062,1.842-0.31,1.175-0.984c-0.959-0.969-3.39-1.846-6.138-2.285c-2.4-0.382-3.933-0.185-2.955,0.808
		c0.626,0.632,2.224,1.384,4.07,1.838c0.269,0.061,0.597,0.14,0.944,0.195L313.711,61.373z"/>
	<path d="M310.697,54.234l-1.438-0.168l0.031,0.032c1.223,0.434,2.605,1.116,3.325,1.844c1.021,1.033-0.165,1.288-1.898,1.011
		c-2.897-0.463-5.564-1.812-7.488-3.778l-0.25-0.04c-0.987-0.158-2.656-0.327-1.623,0.716c0.468,0.475,1.305,1.027,2.202,1.471
		l-1.228-0.019c-1.06-0.523-2.085-1.203-2.722-1.845c-1.542-1.56,0.583-1.54,2.985-1.157l4.479,0.715
		c1.041,0.167,2.033,0.308,2.788,0.375L310.697,54.234z M304.717,53.395c0.952,1.004,2.509,2.22,4.835,2.591
		c1.412,0.225,1.684-0.068,1.215-0.543c-0.657-0.664-2.064-1.244-3.225-1.553c-0.255-0.068-0.523-0.128-0.745-0.164L304.717,53.395z
		"/>
	<path d="M448.314,178.291l5.977,0.013c0.677,0.011,1.492,0.034,2.127,0.064l-0.021-0.021c-0.811-0.209-1.831-0.462-2.822-0.725
		l-8.032-2.136l-0.97-0.98l9.917,2.755c4.766,1.32,7.32,2.11,9.231,2.948c1.39,0.603,2.207,1.116,2.537,1.363l-1.603-0.062
		c-0.402-0.258-1.05-0.62-1.866-0.98c-0.723-0.328-1.876-0.779-3.198-1.167c-0.265-0.078-0.47-0.139-0.593-0.158
		c-0.124-0.02-0.275-0.026-0.507-0.026l-9.177,0.123L448.314,178.291z"/>
	<path d="M450.715,170.515l-1.438-0.167l0.032,0.03c1.222,0.436,2.605,1.117,3.325,1.845c1.021,1.033-0.165,1.288-1.899,1.012
		c-2.896-0.463-5.563-1.812-7.487-3.779l-0.25-0.039c-0.988-0.157-2.655-0.326-1.624,0.717c0.47,0.474,1.305,1.024,2.203,1.47
		l-1.229-0.019c-1.06-0.523-2.084-1.202-2.72-1.845c-1.544-1.561,0.582-1.541,2.983-1.157l4.479,0.716
		c1.042,0.166,2.035,0.305,2.789,0.374L450.715,170.515z M444.738,169.676c0.949,1.004,2.507,2.22,4.835,2.591
		c1.409,0.225,1.683-0.068,1.214-0.543c-0.656-0.662-2.064-1.244-3.224-1.552c-0.255-0.068-0.522-0.129-0.746-0.165L444.738,169.676
		z"/>
	<path d="M428.697,163.218l-0.916-0.929l17.574,2.806l0.918,0.929L428.697,163.218z"/>
	<path d="M433.158,157.946c4.431,0.708,7.655,2.324,8.875,3.557c1.364,1.381,0.042,2.065-3.746,1.462
		c-4.011-0.641-7.469-2.134-8.865-3.546C427.973,157.953,429.495,157.361,433.158,157.946z M437.285,162.013
		c2.624,0.42,3.969,0.094,3.072-0.812c-0.877-0.886-3.488-1.862-6.187-2.294c-2.029-0.324-4.178-0.303-3.093,0.793
		C432.161,160.796,435.007,161.649,437.285,162.013z"/>
	<path d="M435.986,157.519c0.149-0.207,0.116-0.621-0.342-1.086c-0.667-0.673-1.771-1.115-2.762-1.274
		c-1.04-0.165-1.348,0.007-1.267,0.597c0.141,0.794-0.621,1.037-2.057,0.808c-1.93-0.309-4.172-1.226-5.256-2.321
		c-0.512-0.517-0.613-0.914-0.496-1.136l1.812,0.485c-0.1,0.153-0.13,0.459,0.338,0.933c0.543,0.548,1.588,0.973,2.479,1.114
		c0.989,0.159,1.134-0.076,1.072-0.646c-0.084-0.759,0.507-1.046,2.29-0.761c2.104,0.336,4.277,1.268,5.475,2.48
		c0.554,0.559,0.743,1.022,0.6,1.304L435.986,157.519z"/>
	<path d="M423.012,149.941c-1.238-0.195-2.243-0.348-3.202-0.474l-0.802-0.813l1.888,0.268l-0.031-0.032
		c-1.42-0.467-2.952-1.108-3.787-1.952c-0.687-0.696-0.218-1.064,0.973-1.061l-0.019-0.021c-0.825-0.265-1.544-0.548-2.124-0.818
		c-0.847-0.393-1.477-0.776-1.957-1.262c-0.667-0.675-0.616-1.511,3.542-0.847l7.056,1.127l0.896,0.906l-6.782-1.082
		c-2.303-0.368-3.336-0.231-2.594,0.517c0.52,0.528,1.844,1.084,3.064,1.414c0.34,0.088,0.767,0.184,1.162,0.247l7.401,1.182
		l0.896,0.905l-7.182-1.146c-1.904-0.305-2.937-0.167-2.237,0.539c0.572,0.58,2.078,1.175,3.314,1.496
		c0.374,0.104,0.767,0.185,1.138,0.244l7.229,1.153l0.896,0.905L423.012,149.941z"/>
	<path d="M415.566,137.755c1.238,0.197,2.317,0.361,3.227,0.479l0.813,0.821l-1.905-0.259l0.021,0.021
		c1.205,0.396,2.999,1.136,3.896,2.042c0.791,0.803,0.702,1.595-3.509,0.923l-7.006-1.119l-0.917-0.927l6.635,1.06
		c2.279,0.364,3.521,0.313,2.687-0.53c-0.615-0.62-2.056-1.215-3.189-1.538c-0.373-0.104-0.8-0.198-1.196-0.263l-7.354-1.174
		l-0.917-0.927L415.566,137.755z"/>
	<path d="M411.207,135.328c2.923,0.45,3.346-0.158,2.429-1.085c-0.657-0.664-1.324-1.108-2.017-1.513l1.404,0.092
		c0.669,0.382,1.617,1.004,2.419,1.814c1.554,1.571,0.055,2.122-3.56,1.544c-3.613-0.576-7.357-1.938-8.827-3.423
		c-1.646-1.665,1.355-1.56,3.561-1.208c0.445,0.071,0.812,0.148,1.046,0.194L411.207,135.328z M406.957,132.36
		c-1.396-0.231-3.301-0.324-2.269,0.721c0.929,0.938,3.365,1.672,4.947,1.987L406.957,132.36z"/>
	<path d="M403.844,130.139c-1.41-0.226-2.614-0.408-3.696-0.555l-0.803-0.812l2.32,0.344l-0.042-0.042
		c-1.837-0.488-3.405-1.21-4.021-1.832c-0.104-0.104-0.152-0.174-0.186-0.251l2.056,0.328c0.043,0.087,0.111,0.177,0.236,0.304
		c0.646,0.653,2.27,1.304,4.027,1.691c0.319,0.068,0.685,0.144,1.058,0.203l6.386,1.021l0.908,0.917L403.844,130.139z"/>
	<path d="M391.901,124.175l3.44,0.549l-1.313-1.327l1.659,0.265L397,124.99l6.462,1.031c1.485,0.237,2.148,0.192,1.638-0.323
		c-0.238-0.243-0.491-0.435-0.679-0.562l1.592,0.219c0.35,0.206,0.755,0.511,1.108,0.869c0.428,0.433,0.451,0.729,0.076,0.855
		c-0.384,0.161-1.354,0.085-2.765-0.14l-6.537-1.044l0.782,0.791l-1.658-0.266l-0.782-0.79l-2.871-0.458L391.901,124.175z"/>
	<path d="M394.384,118.74c4.432,0.708,7.654,2.323,8.875,3.555c1.365,1.382,0.043,2.067-3.746,1.462
		c-4.012-0.641-7.467-2.133-8.864-3.544C389.2,118.747,390.721,118.155,394.384,118.74z M398.511,122.807
		c2.625,0.421,3.968,0.092,3.073-0.814c-0.876-0.885-3.489-1.861-6.187-2.292c-2.029-0.325-4.178-0.303-3.095,0.792
		C393.387,121.59,396.234,122.443,398.511,122.807z"/>
	<path d="M397.213,118.312c0.149-0.208,0.116-0.62-0.342-1.084c-0.667-0.674-1.772-1.118-2.763-1.275
		c-1.04-0.166-1.348,0.007-1.266,0.597c0.14,0.795-0.622,1.037-2.057,0.809c-1.931-0.309-4.173-1.226-5.256-2.322
		c-0.512-0.516-0.613-0.914-0.497-1.136l1.812,0.485c-0.099,0.153-0.13,0.458,0.338,0.933c0.543,0.548,1.589,0.972,2.479,1.115
		c0.99,0.158,1.134-0.077,1.071-0.646c-0.084-0.759,0.507-1.046,2.291-0.761c2.104,0.336,4.276,1.269,5.477,2.481
		c0.551,0.558,0.742,1.023,0.6,1.303L397.213,118.312z"/>
	<path d="M375.401,109.326l-0.917-0.927l17.577,2.806l0.916,0.926L375.401,109.326z"/>
	<path d="M379.861,104.055c4.433,0.707,7.656,2.323,8.874,3.557c1.367,1.38,0.044,2.065-3.745,1.46
		c-4.01-0.641-7.467-2.132-8.864-3.545C374.676,104.062,376.198,103.471,379.861,104.055z M383.989,108.122
		c2.624,0.419,3.969,0.094,3.071-0.815c-0.875-0.885-3.489-1.861-6.186-2.292c-2.03-0.323-4.18-0.303-3.095,0.793
		C378.865,106.904,381.711,107.759,383.989,108.122z"/>
	<path d="M382.69,103.627c0.15-0.207,0.117-0.621-0.343-1.086c-0.665-0.673-1.77-1.116-2.762-1.274
		c-1.039-0.166-1.347,0.005-1.264,0.597c0.139,0.793-0.623,1.037-2.059,0.807c-1.932-0.307-4.172-1.224-5.256-2.32
		c-0.511-0.516-0.612-0.915-0.497-1.136l1.812,0.483c-0.099,0.154-0.13,0.459,0.339,0.935c0.543,0.547,1.587,0.972,2.477,1.114
		c0.991,0.157,1.136-0.077,1.073-0.646c-0.084-0.758,0.507-1.045,2.292-0.76c2.103,0.334,4.276,1.267,5.474,2.479
		c0.553,0.56,0.743,1.024,0.601,1.303L382.69,103.627z"/>
	<path d="M361.927,93.866l3.439,0.55l-1.312-1.327l1.659,0.264l1.313,1.328l6.461,1.03c1.485,0.238,2.148,0.193,1.638-0.322
		c-0.238-0.244-0.489-0.435-0.68-0.563l1.595,0.22c0.35,0.208,0.753,0.511,1.108,0.869c0.428,0.434,0.451,0.729,0.075,0.857
		c-0.384,0.16-1.355,0.085-2.765-0.14l-6.538-1.045l0.783,0.792l-1.66-0.266l-0.78-0.79l-2.872-0.458L361.927,93.866z"/>
	<path d="M364.411,88.432c4.431,0.708,7.654,2.322,8.875,3.556c1.365,1.381,0.042,2.066-3.745,1.46
		c-4.011-0.639-7.469-2.132-8.864-3.545C359.227,88.438,360.748,87.847,364.411,88.432z M368.539,92.499
		c2.625,0.419,3.968,0.091,3.07-0.815c-0.875-0.885-3.488-1.862-6.186-2.292c-2.029-0.324-4.177-0.303-3.094,0.794
		C363.414,91.281,366.26,92.135,368.539,92.499z"/>
	<path d="M361.098,86.917c-1.411-0.226-2.613-0.409-3.696-0.554l-0.803-0.814l2.322,0.344l-0.042-0.042
		c-1.839-0.488-3.407-1.208-4.022-1.83c-0.104-0.105-0.151-0.176-0.185-0.252l2.053,0.328c0.045,0.088,0.114,0.179,0.238,0.305
		c0.646,0.653,2.27,1.303,4.029,1.691c0.318,0.067,0.685,0.144,1.057,0.203l6.387,1.021l0.906,0.916L361.098,86.917z"/>
	<path d="M359.932,83.481c2.925,0.449,3.348-0.158,2.43-1.085c-0.656-0.665-1.324-1.108-2.016-1.512l1.402,0.091
		c0.67,0.382,1.619,1.004,2.421,1.815c1.552,1.571,0.056,2.121-3.559,1.544c-3.614-0.577-7.36-1.938-8.829-3.425
		c-1.646-1.664,1.356-1.558,3.561-1.206c0.446,0.071,0.812,0.148,1.047,0.194L359.932,83.481z M355.684,80.513
		c-1.397-0.232-3.301-0.323-2.269,0.721c0.929,0.937,3.364,1.673,4.946,1.988L355.684,80.513z"/>
	<path d="M358.022,76.785l-1.438-0.168l0.03,0.031c1.222,0.435,2.605,1.118,3.324,1.845c1.022,1.033-0.163,1.288-1.897,1.011
		c-2.896-0.463-5.565-1.813-7.487-3.778l-0.25-0.041c-0.989-0.157-2.656-0.326-1.625,0.718c0.469,0.474,1.306,1.025,2.204,1.47
		l-1.229-0.02c-1.061-0.523-2.086-1.202-2.722-1.846c-1.543-1.56,0.583-1.539,2.985-1.156l4.479,0.716
		c1.041,0.166,2.035,0.307,2.789,0.375L358.022,76.785z M352.042,75.944c0.951,1.005,2.508,2.22,4.834,2.592
		c1.412,0.225,1.685-0.069,1.216-0.543c-0.656-0.665-2.065-1.243-3.225-1.553c-0.255-0.069-0.522-0.128-0.745-0.164L352.042,75.944z
		"/>
	<path d="M355.831,74.57c-0.837-0.152-2.07-0.367-3.136-0.537l-14.481-2.313l-0.907-0.917l7.524,1.202l-0.021-0.021
		c-1.66-0.54-3.108-1.269-3.923-2.091c-1.25-1.264,0.339-1.765,3.989-1.173c4.283,0.684,7.547,2.171,8.671,3.311
		c0.731,0.738,0.647,1.22-0.562,1.347l0.031,0.032l2.021,0.359L355.831,74.57z M350.08,72.843c0.272,0.044,0.523,0.066,0.75,0.085
		c1.333,0.062,1.843-0.31,1.176-0.984c-0.96-0.971-3.39-1.846-6.139-2.285c-2.4-0.383-3.934-0.184-2.954,0.807
		c0.626,0.632,2.223,1.385,4.068,1.838c0.27,0.062,0.6,0.14,0.946,0.197L350.08,72.843z"/>
	<path d="M347.064,65.705l-1.438-0.167l0.03,0.033c1.223,0.434,2.606,1.116,3.325,1.843c1.021,1.034-0.162,1.288-1.898,1.011
		c-2.895-0.462-5.564-1.812-7.487-3.779l-0.25-0.039c-0.988-0.158-2.655-0.327-1.623,0.716c0.469,0.474,1.305,1.026,2.202,1.47
		l-1.227-0.019c-1.061-0.523-2.087-1.202-2.723-1.845c-1.542-1.56,0.583-1.54,2.985-1.157l4.479,0.715
		c1.042,0.167,2.034,0.308,2.789,0.375L347.064,65.705z M341.085,64.865c0.951,1.004,2.508,2.22,4.835,2.591
		c1.409,0.227,1.683-0.067,1.214-0.542c-0.656-0.664-2.064-1.244-3.225-1.554c-0.256-0.066-0.522-0.127-0.746-0.162L341.085,64.865z
		"/>
	<path d="M486.302,181.578c0.539,0.288,1.467,0.89,2.143,1.575c1.522,1.538,0.062,2.149-3.602,1.565
		c-3.688-0.591-7.425-2.092-9.072-3.757c-0.543-0.549-0.698-0.982-0.651-1.188l1.89,0.48c-0.077,0.174-0.006,0.478,0.494,0.983
		c1.157,1.171,3.812,2.127,6.314,2.526c2.771,0.44,3.729-0.043,2.729-1.056c-0.521-0.527-1.188-0.926-1.721-1.233L486.302,181.578z"
		/>
	<path d="M475.08,175.036c4.434,0.708,7.657,2.325,8.876,3.556c1.365,1.381,0.043,2.066-3.745,1.462
		c-4.01-0.642-7.468-2.135-8.864-3.545C469.897,175.042,471.418,174.451,475.08,175.036z M479.208,179.103
		c2.625,0.419,3.968,0.092,3.071-0.814c-0.875-0.887-3.487-1.86-6.185-2.293c-2.03-0.323-4.179-0.303-3.095,0.794
		C474.083,177.885,476.931,178.739,479.208,179.103z"/>
	<path d="M471.274,173.441c-1.235-0.197-2.24-0.349-3.201-0.475l-0.812-0.823l1.929,0.265l-0.021-0.021
		c-1.39-0.436-3.088-1.202-3.92-2.047c-0.699-0.706-0.792-1.644,3.315-0.989l7.155,1.144l0.919,0.927l-6.909-1.102
		c-1.929-0.309-3.237-0.26-2.37,0.614c0.604,0.612,2.089,1.248,3.458,1.6c0.312,0.087,0.705,0.166,1.079,0.226l7.202,1.15
		l0.915,0.927L471.274,173.441z"/>
	<path d="M462.027,166.852l5.743,0.073c0.921,0.006,1.776,0.025,2.664,0.078l-0.032-0.031c-1.104-0.273-2.242-0.58-3.497-0.922
		l-7.715-2.067l-0.958-0.969l13.963,3.916l0.875,0.886l-10.063,0.026L462.027,166.852z"/>
	<path d="M463.348,162.748c2.923,0.449,3.347-0.157,2.429-1.084c-0.657-0.665-1.326-1.108-2.018-1.512l1.403,0.091
		c0.671,0.382,1.618,1.004,2.421,1.814c1.554,1.571,0.057,2.121-3.56,1.545c-3.614-0.578-7.358-1.938-8.827-3.426
		c-1.647-1.664,1.355-1.558,3.56-1.205c0.445,0.07,0.813,0.146,1.047,0.192L463.348,162.748z M459.098,159.78
		c-1.396-0.233-3.299-0.323-2.268,0.721c0.928,0.938,3.363,1.673,4.945,1.987L459.098,159.78z"/>
	<path d="M455.986,157.56c-1.412-0.225-2.613-0.408-3.697-0.555l-0.803-0.812l2.32,0.346l-0.043-0.044
		c-1.837-0.489-3.405-1.209-4.02-1.83c-0.104-0.105-0.152-0.175-0.186-0.252l2.055,0.328c0.045,0.087,0.112,0.177,0.236,0.303
		c0.648,0.654,2.271,1.305,4.03,1.691c0.317,0.068,0.685,0.146,1.057,0.204l6.386,1.02l0.907,0.917L455.986,157.56z"/>
	<path d="M444.041,151.595l3.443,0.55l-1.314-1.328l1.658,0.267l1.312,1.327l6.464,1.03c1.483,0.238,2.147,0.193,1.638-0.324
		c-0.24-0.241-0.491-0.433-0.681-0.56l1.594,0.218c0.35,0.207,0.753,0.511,1.109,0.87c0.426,0.432,0.449,0.729,0.074,0.855
		c-0.383,0.159-1.354,0.085-2.765-0.142l-6.536-1.043l0.782,0.792l-1.658-0.267l-0.783-0.789l-2.871-0.459L444.041,151.595z"/>
	<path d="M440.75,148.203c0.731,0.108,1.556,0.435,1.921,0.803c0.321,0.327-0.044,0.466-0.785,0.347
		c-0.767-0.123-1.601-0.459-1.935-0.798C439.607,148.208,439.981,148.08,440.75,148.203z M457.119,151.686l-11.981-1.913
		l-0.918-0.928l11.983,1.913L457.119,151.686z"/>
	<path d="M432.746,142.007l14.483,2.312c1.063,0.172,2.267,0.354,3.053,0.453l0.822,0.833l-2.037-0.29l0.021,0.021
		c1.619,0.497,3.247,1.28,4.07,2.113c1.221,1.233-0.292,1.791-3.933,1.21c-3.975-0.627-7.468-2.071-8.698-3.315
		c-0.77-0.78-0.426-1.169,0.312-1.246l-0.021-0.021l-7.154-1.142L432.746,142.007z M444.136,144.607
		c-0.273-0.044-0.636-0.093-0.877-0.104c-1.248-0.085-1.888,0.24-1.2,0.935c0.949,0.959,3.491,1.844,6.141,2.269
		c2.428,0.387,3.933,0.2,2.94-0.801c-0.614-0.621-2.144-1.345-3.943-1.774c-0.328-0.078-0.637-0.137-0.982-0.193L444.136,144.607z"
		/>
	<path d="M438.144,137.684c4.431,0.708,7.654,2.323,8.875,3.556c1.365,1.382,0.041,2.067-3.746,1.462
		c-4.011-0.641-7.469-2.133-8.866-3.546C432.959,137.69,434.479,137.1,438.144,137.684z M442.271,141.751
		c2.624,0.419,3.968,0.092,3.071-0.814c-0.876-0.885-3.489-1.86-6.187-2.291c-2.027-0.324-4.178-0.303-3.093,0.792
		C437.147,140.534,439.993,141.388,442.271,141.751z"/>
	<path d="M434.759,133.841c2.924,0.449,3.347-0.157,2.43-1.085c-0.656-0.665-1.324-1.108-2.016-1.513l1.402,0.092
		c0.67,0.383,1.618,1.004,2.421,1.814c1.552,1.571,0.055,2.122-3.56,1.545c-3.614-0.576-7.357-1.938-8.829-3.425
		c-1.645-1.665,1.357-1.558,3.562-1.207c0.446,0.072,0.812,0.148,1.046,0.193L434.759,133.841z M430.509,130.874
		c-1.396-0.232-3.299-0.323-2.267,0.72c0.928,0.938,3.362,1.673,4.946,1.989L430.509,130.874z"/>
	<path d="M426.904,128.574c-1.238-0.197-2.242-0.349-3.202-0.476l-0.813-0.822l1.929,0.264l-0.02-0.021
		c-1.389-0.435-3.087-1.204-3.921-2.047c-0.699-0.704-0.793-1.644,3.318-0.988l7.152,1.143l0.918,0.928l-6.908-1.103
		c-1.931-0.309-3.237-0.259-2.372,0.615c0.604,0.61,2.091,1.248,3.46,1.6c0.312,0.085,0.704,0.166,1.076,0.225l7.204,1.151
		l0.917,0.927L426.904,128.574z"/>
	<path d="M423.603,118.176c0.539,0.289,1.465,0.891,2.143,1.576c1.523,1.538,0.061,2.148-3.602,1.563
		c-3.689-0.589-7.427-2.09-9.072-3.754c-0.543-0.549-0.7-0.982-0.652-1.188l1.89,0.479c-0.078,0.174-0.007,0.478,0.494,0.984
		c1.157,1.17,3.813,2.127,6.314,2.526c2.771,0.444,3.729-0.043,2.728-1.055c-0.521-0.528-1.187-0.927-1.719-1.233L423.603,118.176z"
		/>
	<path d="M420.181,114.335l-1.437-0.168l0.03,0.032c1.224,0.436,2.605,1.117,3.325,1.845c1.021,1.032-0.165,1.287-1.897,1.009
		c-2.896-0.461-5.565-1.811-7.489-3.777l-0.249-0.04c-0.988-0.158-2.657-0.327-1.624,0.717c0.469,0.474,1.304,1.025,2.203,1.47
		l-1.229-0.018c-1.06-0.525-2.085-1.204-2.721-1.846c-1.542-1.561,0.582-1.54,2.984-1.158l4.48,0.717
		c1.041,0.166,2.034,0.307,2.788,0.373L420.181,114.335z M414.203,113.496c0.951,1.004,2.507,2.22,4.834,2.592
		c1.412,0.225,1.684-0.069,1.215-0.543c-0.656-0.664-2.063-1.243-3.224-1.554c-0.255-0.067-0.522-0.127-0.745-0.163L414.203,113.496
		z"/>
	<path d="M400.373,109.273l-0.916-0.928l17.576,2.807l0.916,0.927L400.373,109.273z"/>
	<path d="M412.695,106.768l-1.437-0.168l0.032,0.032c1.221,0.435,2.605,1.116,3.323,1.845c1.022,1.031-0.164,1.286-1.897,1.008
		c-2.897-0.462-5.564-1.811-7.488-3.777l-0.25-0.04c-0.988-0.157-2.656-0.326-1.624,0.717c0.47,0.473,1.306,1.024,2.204,1.47
		l-1.229-0.018c-1.06-0.525-2.085-1.205-2.721-1.846c-1.543-1.56,0.582-1.541,2.984-1.157l4.48,0.715
		c1.041,0.166,2.035,0.307,2.787,0.374L412.695,106.768z M406.717,105.928c0.951,1.003,2.507,2.22,4.834,2.591
		c1.413,0.226,1.685-0.068,1.215-0.542c-0.655-0.665-2.063-1.244-3.224-1.555c-0.256-0.067-0.523-0.126-0.746-0.163L406.717,105.928
		z"/>
	<path d="M398.21,102.322l5.745,0.074c0.921,0.005,1.775,0.026,2.662,0.08l-0.03-0.032c-1.106-0.274-2.243-0.581-3.498-0.923
		l-7.714-2.065l-0.96-0.969l13.963,3.917l0.877,0.885l-10.065,0.025L398.21,102.322z"/>
	<path d="M399.531,98.219c2.926,0.449,3.346-0.159,2.43-1.085c-0.657-0.665-1.325-1.108-2.016-1.511l1.404,0.09
		c0.668,0.382,1.616,1.004,2.419,1.816c1.554,1.569,0.056,2.121-3.561,1.543c-3.612-0.577-7.356-1.938-8.827-3.424
		c-1.647-1.665,1.357-1.558,3.561-1.208c0.446,0.072,0.812,0.149,1.046,0.194L399.531,98.219z M395.282,95.25
		c-1.396-0.232-3.299-0.322-2.267,0.722c0.928,0.938,3.363,1.673,4.945,1.987L395.282,95.25z"/>
	<path d="M392.169,93.031c-1.411-0.225-2.613-0.409-3.696-0.553l-0.803-0.813l2.321,0.345l-0.042-0.042
		c-1.839-0.491-3.406-1.21-4.021-1.833c-0.104-0.106-0.153-0.176-0.186-0.252l2.055,0.33c0.044,0.086,0.112,0.178,0.237,0.304
		c0.647,0.654,2.269,1.302,4.028,1.69c0.317,0.067,0.684,0.145,1.057,0.204l6.387,1.02l0.905,0.917L392.169,93.031z"/>
	<path d="M394.262,88.128l-1.437-0.167l0.031,0.031c1.222,0.434,2.605,1.118,3.324,1.845c1.021,1.031-0.163,1.287-1.897,1.009
		c-2.896-0.463-5.564-1.811-7.488-3.777l-0.249-0.04c-0.989-0.158-2.656-0.328-1.624,0.717c0.468,0.473,1.304,1.024,2.204,1.468
		l-1.229-0.018c-1.059-0.524-2.087-1.203-2.721-1.846c-1.543-1.56,0.583-1.541,2.984-1.157l4.481,0.716
		c1.039,0.166,2.032,0.307,2.787,0.373L394.262,88.128z M388.285,87.29c0.951,1.002,2.507,2.219,4.833,2.588
		c1.413,0.228,1.686-0.067,1.217-0.541c-0.658-0.663-2.064-1.243-3.225-1.553c-0.256-0.068-0.524-0.128-0.746-0.165L388.285,87.29z"
		/>
	<path d="M390.964,85.887c-0.918-0.146-1.821-0.512-2.188-0.881c-0.363-0.369,0.029-0.521,0.947-0.374
		c0.89,0.143,1.798,0.492,2.184,0.881C392.272,85.882,391.854,86.03,390.964,85.887z"/>
</g>
</svg>
