<?xml version="1.0" encoding="utf-8"?>
<!-- Generator: Adobe Illustrator 16.0.4, SVG Export Plug-In . SVG Version: 6.00 Build 0)  -->
<!DOCTYPE svg PUBLIC "-//W3C//DTD SVG 1.1//EN" "http://www.w3.org/Graphics/SVG/1.1/DTD/svg11.dtd">
<svg version="1.1" id="Layer_1" xmlns="http://www.w3.org/2000/svg" xmlns:xlink="http://www.w3.org/1999/xlink" x="0px" y="0px"
	 width="322.739px" height="363.452px" viewBox="0 0 322.739 363.452" enable-background="new 0 0 322.739 363.452"
	 xml:space="preserve">
<g id="skull">
	<path fill-rule="evenodd" clip-rule="evenodd" fill="#020201" d="M33.758,238.676c-9.833-12.415-18.669-27.447-24.612-43.837
		c-18.055-49.842-8.83-95.544,22.836-137.105C45.82,39.578,63.416,25.64,84.129,15.801c44.655-21.202,89.122-21.49,133.13,1.7
		c16.949,8.927,30.657,21.777,42.155,37.098c5.034,6.704,10.703,12.921,14.414,20.566c5.005,10.328,9.657,20.713,12.88,31.829
		c2.67,9.21,7.122,17.884,10.468,26.912c3.323,8.934,7.704,17.484,10.14,26.718c3.034,11.527,0.459,22.101-8.04,30.317
		c-5.534,5.34-6.616,10.098-4.746,17.649c4.476,18.072,12.127,34.91,18.344,52.301c2.835,7.939,5.733,15.885,8.274,23.906
		c3.688,11.645,1.276,23.607-10.521,31.369c-6.311,4.164-11.186,10.439-16.979,15.444c-18.02,15.544-37.421,28.829-60.84,34.945
		c-12.855,3.353-24.071-0.136-33.593-9.298c-10.674-10.269-21.983-19.796-33.463-29.135c-8.316-6.77-16.673-13.497-24.977-20.277
		c-1.758-1.441-3.141-2.212-5.628-0.883c-3.334,1.787-7.086,2.834-10.727,3.993c-15.709,5.005-28.441-0.976-40.068-10.979
		c-8.739-7.517-16.261-16.191-23.474-25.119C51.757,263.565,42.747,252.167,33.758,238.676z"/>
	<path fill-rule="evenodd" clip-rule="evenodd" fill="#FFE5C0" d="M141.176,304.027c6.951-2.364,13.362-4.546,20.39-6.935
		c-10.533-1.493-19.69,0.9-28.553,4.829c-4.517,1.999-9.233,3.253-14.056,4.229c-11.456,2.312-20.513-2.729-28.961-9.486
		c-10.166-8.134-18.355-18.167-26.706-28.047c-9.777-11.562-18.332-24.03-27.235-36.245c-4.867-6.687-10.248-13.003-14.585-20.078
		c-1.062-1.734-1.891-3.611-2.976-5.328c-0.844-1.329-0.109-2.299,0.5-3.281c3.482-5.729,6.987-11.427,10.51-17.126
		c4.049-6.563,6.602-13.568,6.299-21.395c-0.314-8.081-7.566-15.032-15.503-14.891c-4.805,0.088-8.106,2.846-10.527,6.563
		c-1.467,2.241-1.915,1.465-3.144-0.076c-2.625-3.305-3.043-6.981-2.94-11.033c0.226-8.974,1.132-17.837,3.167-27.253
		c4.846,10.627,11.245,19.108,20.828,24.824c7.049,4.211,14.421,5.811,22.184,2.059c3.711-1.794,6.125-4.734,5.981-9.069
		c-0.15-4.187-3.37-6.122-6.557-7.828c-4.164-2.229-8.754-2.37-13.333-2.176c-3.829,0.153-7.657,0.4-11.474,0.711
		c-7.73,0.624-12.441-3.958-16.655-9.48c-0.605-0.794-0.535-1.576-0.3-2.364c1.32-4.481,2.75-8.939,3.999-13.438
		c0.474-1.706,1.288-1.688,2.585-1.059c2.146,1.047,4.29,2.1,6.484,3.035c2.073,0.876,3.567,0.529,4.514-1.888
		c1.355-3.44,3.244-6.681,4.54-10.145c0.635-1.7,1.535-1.888,2.958-1.658c1.541,0.252,3.073,0.664,4.619,0.729
		c1.944,0.088,2.411,0.923,2.632,2.817c0.844,7.246,3.338,13.709,9.716,18.037c10.989,7.452,25.659,1.088,30.905-6.257
		c3.143-4.393,2.861-9.333,0.994-14.062c-0.9-2.276-0.182-3.105,1.529-4.252c4.49-3,8.937-6.081,13.215-9.386
		c1.141-0.882,1.55-0.429,2.314,0.1c12.856,8.869,27.812,3.781,33.692-11.133c5.758-14.585-3.746-26.676-19.431-25.6
		c0.553-5.164,3.499-9.686,3.875-14.885c0.095-1.276,1.335-0.547,2.076-0.523c3.594,0.135,7.187,0.288,10.78,0.447
		c2.082,0.088,3.152-0.659,3.67-2.923c1.264-5.476,1.711-10.88,0.012-16.302c-0.535-1.717-0.035-2.129,1.693-2.288
		c5.852-0.565,11.715-0.759,17.579-0.759c1.264,0,1.964,0.253,2.84,1.717c4.881,8.092,3.282,15.932-0.429,23.671
		c-1.906,3.976-4.44,7.646-6.699,11.456c-1.735,2.929-2.852,6.063-3.188,9.463c-0.476,4.922,2.488,10.386,6.61,12.186
		c3.417,1.488,8.133,0.041,11.632-3.67c9.64-10.257,9.687-22.136,5.429-34.51c-2.547-7.392-7.081-13.72-12.215-20.072
		c14.391,0.588,27.905,3.493,41.079,8.21c1.176,0.423,1.641,1.288,2.111,2.276c0.512,1.082,0.994,2.182,1.67,3.164
		c0.595,0.858,1.441,1.546,2.547,2.711c-6.24-0.494-11.627,0.788-16.408,4.352c-4.329,3.229-5.646,7.681-4.911,12.703
		c0.694,4.699,3.793,7.61,8.287,8.986c6.934,2.129,13.803,1.047,20.56-0.817c6.34-1.735,12.703-3.523,18.872-5.775
		c6.805-2.5,11.48-0.553,16.291,4.746c11.968,13.18,20.561,28.194,27.059,44.625c6.193,15.679,11.892,31.523,17.438,47.443
		c2.582,7.422,6.223,14.473,9.263,21.748c3.952,9.41,3.205,18.131-2.77,26.818c-6.976,10.145-14.874,19.666-20.948,30.429
		c-0.807,1.44-1.512,2.935-2.035,4.569c6.14-5.635,9.604-13.402,15.855-19.719c0.271,2.582,0.482,4.61,0.717,6.65
		c1.818,16.162,8.199,30.924,14.503,45.638c4.44,10.356,7.416,21.172,10.939,31.817c4.134,12.496-0.706,22.57-9.698,30.916
		c-12.956,12.033-26.771,23.049-41.984,32.094c-12.263,7.292-24.848,13.961-39.41,15.678c-7.321,0.859-13.708-1.252-19.777-5.01
		c-8.328-5.17-14.756-12.492-21.766-19.143c-12.957-12.292-27.112-23.102-41.351-33.811
		C142.229,305.026,141.911,304.692,141.176,304.027z"/>
	<path fill-rule="evenodd" clip-rule="evenodd" fill="#79BEE9" d="M46.223,104.37c-2.543-3.746-3.89-7.804-4.22-12.15
		c-0.164-2.229-0.832-3.381-3.272-3.746c-9.663-1.435-7.369-2.835-13.4,6.222c-1.335,2-1.552,5.458-3.688,5.952
		c-1.888,0.441-4.287-1.635-6.533-2.341c-1.662-0.518-2.173-1.105-1.238-2.734c0.65-1.118,1.064-2.399,1.476-3.641
		c0.75-2.247,1.682-3.47,4.273-1.841c1.896,1.194,3.59,0.6,4.71-1.588c1.076-2.111,2.829-3.952,3.579-6.146
		c1.167-3.44,3.129-3.488,5.937-2.341c1.429,0.588,3,0.847,4.525,1.176c3.75,0.829,6.375,1.412,7.728,6.628
		c1.955,7.54,7.307,12.191,17.528,9.857c8.675-1.988,13.282-8.569,11.815-16.791c-0.247-1.364-0.009-1.94,0.964-2.611
		c5.423-3.77,10.842-7.545,16.235-11.368c0.862-0.612,1.32-0.923,2.35,0.029c4.564,4.229,9.616,5.299,13.938,2.782
		c5.022-2.935,10.051-6.075,9.428-13.097c-0.518-5.687-5.423-11.544-11.004-12.803c-2.358-0.535-2.746-1.041-1.952-3.44
		c1.94-5.893,4.164-11.738,5.046-17.931c0.271-1.876,0.765-3.111,3.135-2.587c1.353,0.294,2.84-0.018,4.27-0.083
		c4.775-0.212,6.134-1.735,5.793-6.516c-0.065-0.83-0.276-1.653-0.241-2.47c0.047-1.494-2.135-3.27-0.659-4.111
		c1.847-1.059,4.358-1.018,6.599-1.282c1.282-0.147,1,1.247,1.135,1.841c1.153,4.834,1.258,9.686-0.077,14.55
		c-0.306,1.129-0.652,1.476-1.864,1.406c-3.217-0.171-6.451-0.118-9.668-0.229c-2.064-0.071-3.312,0.629-3.917,2.77
		c-1.3,4.605-2.905,9.127-4.217,13.727c-0.512,1.811-0.858,3.534,2.376,3.393c2.682-0.118,5.546,0.541,8.092,1.488
		c8.439,3.158,11.709,10.298,9.021,19.037c-3.711,12.044-14.691,18.631-25.23,15.126c-2.299-0.758-4.29-1.923-5.887-3.852
		c-0.703-0.841-2.443-3.5-2.559,0.476c-0.015,0.523-0.309,0.8-0.812,1.023c-5.416,2.394-9.718,6.51-14.667,9.622
		c-1.697,1.059-2.317,2.299-1.656,4.499c2.82,9.427,1.003,13.708-7.56,18.625c-7.684,4.423-16.111,4.017-22.425-0.876
		C48.043,106.946,47.305,105.458,46.223,104.37z"/>
	<path fill-rule="evenodd" clip-rule="evenodd" fill="#FFCC68" d="M31.285,64.408c2.882,6.422,4.934,6.951,12.044,3.358
		c1.979,4.381,4.267,8.604,9.992,8.198c6.017-0.441,10.754-3.105,13.15-8.98c0.485-1.188,0.738-1.747,2.481-1.506
		c7.754,1.064,14.994-0.347,21.239-5.499c4.37-3.617,6.973-13.373,4.276-18.507c-1.247-2.376-0.444-3.229,1.088-4.664
		c4.976-4.646,5.77-11.586,2.062-16.149c-1.744-2.135-4.105-3.194-7.284-3.988c9.336-4.158,18.443-7.169,27.853-9.321
		c1.253-0.288,2.059-0.153,2.176,1.406c0.083,1.053,0.535,2.07,0.706,3.123c0.835,5.199-0.006,6.187-5.181,6.24
		c-1.317,0.012-2.635,0.059-3.958,0.023c-1.252-0.041-1.923,0.424-2.311,1.706c-2.012,6.652-4.088,13.286-6.217,19.89
		c-0.917,2.846-0.605,4.664,2.688,5.751c3.829,1.265,7.022,3.67,8.721,7.551c2.323,5.287,0.982,9.157-4.387,12.827
		c-5.211,3.576-10.216,3.511-13.962-0.47c-1.497-1.605-2.623-2.053-4.505-0.706c-5.664,4.052-11.395,8.01-17.152,11.938
		c-1.35,0.924-1.252,1.771-0.894,3.282c1.635,6.898-3.44,13.415-11.691,15.361c-6.743,1.582-13.095-2.405-14.727-9.245
		c-0.112-0.471-0.391-1.012-0.256-1.394c1.458-3.976-1.203-4.188-3.973-4.687c-3.655-0.653-7.26-1.594-10.874-2.482
		c-2.132-0.512-3.679,0.124-4.873,1.953c-1.697,2.605-3.702,5.028-5.134,7.769c-1.076,2.053-2.27,1.105-3.517,0.735
		c-2.2-0.653-0.653-1.912-0.247-2.741C22.116,77.952,26.318,71.136,31.285,64.408z"/>
	<path fill-rule="evenodd" clip-rule="evenodd" fill="#EE3675" d="M75.646,24.435c3.349-2.252,6.657-3.917,10.204-4.946
		c4.137-1.206,7.813,0.176,10.171,3.428c2.353,3.235,2.45,7.463,0.121,11.074c-0.841,1.288-1.823,2.6-3.032,3.505
		c-1.617,1.217-1.44,2.17-0.603,3.823c2.705,5.346,0.591,12.674-4.152,16.631c-5.449,4.552-11.844,5.593-18.538,5.352
		c-2.179-0.077-3.205,0.564-4.243,2.264c-1.984,3.27-4.948,5.446-8.475,6.91c-5.457,2.27-9.474,0.635-11.871-5.44
		c-1.044-2.658-1.894-2.752-3.911-1.123c-1.991,1.605-4.246,3.234-6.593,0.582c-2.206-2.505-1.779-4.875,0.529-7.281
		c3.223-3.352,6.198-6.94,9.304-10.416c0.288-0.317,0.721-0.518,1.155-0.817c1.468,8.298,6.981,12.674,15.415,12.262
		c8.625-0.423,15.938-3.681,20.595-11.15C87.041,40.566,84.441,30.245,75.646,24.435z"/>
	<path fill-rule="evenodd" clip-rule="evenodd" fill="#EE3675" d="M8.496,169.421c-4.279-3.082-4.005-7.757-4.344-13.327
		c1.309,1.876,2.167,3.011,2.917,4.205c1.368,2.188,2.282,1.84,3.479-0.271c3.546-6.239,7.863-8.475,13.012-6.998
		c6.001,1.723,9.836,7.316,9.712,13.891c-0.111,5.54-1.702,10.633-4.517,15.32c-3.981,6.652-8.107,13.209-12.344,20.083
		c-2.57-3.922-4.008-7.498-1.005-11.779c2.391-3.411,4.74-6.898,6.319-10.809c0.176-0.447,0.335-0.9,0.508-1.347
		c2.353-6.045,1.814-10.239-1.594-12.415C17.038,163.681,12.848,164.875,8.496,169.421z"/>
	<path fill-rule="evenodd" clip-rule="evenodd" fill="#EE3675" d="M236.484,35.379c-10.221,1.823-19.461,5.952-29.275,8.004
		c-4.734,0.994-9.445,1.564-14.25,0.523c-3.935-0.864-6.939-2.935-7.693-7.04c-0.77-4.164,0.541-7.599,4.135-10.339
		c5.369-4.082,11.227-5.022,17.655-3.97c0.97,0.165,2.364,0.982,2.847-0.394c0.494-1.4-1.3-1.676-2.023-1.964
		c-2.723-1.076-4.375-3.105-5.67-5.681c4.477,2.005,9.758,2.494,12.545,7.545c0.918,1.682,0.682,1.888-1.012,2.094
		c-3.746,0.441-7.192,1.735-10.232,4.034c-3.899,2.947-3.652,6.511,0.847,8.445c5.957,2.57,11.721,1.105,17.261-1.611
		c1.182-0.576,2.287-1.306,3.47-1.87C230.31,30.668,231.773,30.933,236.484,35.379z"/>
	<path fill-rule="evenodd" clip-rule="evenodd" fill="#79BEE9" d="M160.295,12.267c5.846,9.862,9.687,20.19,7.457,31.899
		c-0.987,5.216-3.622,9.592-7.392,13.215c-2,1.923-4.693,3.605-7.446,2.453c-3.052-1.282-5.004-4.005-5.299-7.528
		c-0.382-4.505,1.365-8.398,3.623-12.126c1.911-3.152,4.034-6.158,5.593-9.533C159.536,24.811,161.013,18.812,160.295,12.267z"/>
	<path fill-rule="evenodd" clip-rule="evenodd" fill="#ED3676" d="M53.086,40.931c2.268,7.48,4.423,9.398,10.277,9.457
		c5.122,0.053,9.548-3.082,11.221-7.957c1.147-3.352,0.115-7.34-2.375-9.174c-2.305-1.688-6.305-1.194-9.712,1.223
		c-2.738,1.929-4.185,5.675-3.268,8.457c0.791,2.435,3.964,3.599,6.61,2.44c2.838-1.252,4.855-4.863,3.732-6.939
		c-0.794-1.476-2.176-1.747-3.705-1.229c-1.758,0.606-3.12,1.9-2.747,3.688c0.356,1.7,1.765,1.359,2.576,0.1
		c0.509-0.788,1.094-1.617,1.844-0.917c0.806,0.753-0.206,1.477-0.762,2.053c-1.238,1.288-2.652,2.223-4.446,1.182
		c-1.664-0.964-0.867-2.546-0.626-3.864c0.529-2.982,3.069-3.823,5.451-4.593c1.68-0.541,3.429-0.276,4.496,1.335
		c1.412,2.088,1.206,4.317,0.18,6.51c-1.744,3.746-6.634,5.969-10.945,4.999c-3.352-0.753-5.128-3.429-5.134-7.616
		c0-0.994,0.053-1.835,0.959-2.511c4.246-3.134,8.11-6.769,12.715-9.421c3.932-2.258,6.669-1.688,9.469,1.953
		c5.169,6.734,4.02,16.449-2.8,21.872c-4.731,3.752-10.224,5.634-16.317,5.675c-1.832,0.018-3.576-0.33-5.246-1.029
		c-3.384-1.412-5.822-3.687-6.49-7.469C47.332,45.077,50.078,43.136,53.086,40.931z"/>
	<path fill-rule="evenodd" clip-rule="evenodd" fill="#79BEE9" d="M15.803,128.359c5.334,2.182,10.774,1.464,16.214,1.211
		c6.269-0.294,12.68-1.17,18.252,3c3.479,2.605,3.608,5.999,0.297,8.886c-4.011,3.505-8.757,3.664-13.515,2.547
		C27.815,141.838,21.569,135.428,15.803,128.359z"/>
	<path fill-rule="evenodd" clip-rule="evenodd" fill="#040403" d="M264.837,246.157c-0.823-3.688-1.817-6.387-1.476-9.256
		c0.57-4.699,3.764-6.346,7.51-3.424c5.058,3.935,8.175,9.398,10.286,15.396c1.193,3.4,1.935,6.893,1.693,10.545
		c-0.376,5.734-3.77,7.463-8.969,4.229c0.465,2.682,1.553,5.023,1.582,7.604c0.024,2.858-0.487,5.517-2.111,7.845
		c-2.476,3.576-5.299,3.936-8.903,1.26c-0.965,1.146-0.029,2.24,0.117,3.316c0.271,2.029,0.535,4.047,0.2,6.081
		c-0.977,5.863-4.069,7.21-9.286,3.657c0.611,2.617,1.306,4.9,1.658,7.24c1.271,8.445-3.311,12.045-11.209,8.869
		c-2.67-1.059-5.052-2.617-7.717-5.188c0.971,2.258,1.659,3.699,2.212,5.188c1,2.729,1.158,5.451-0.971,7.739
		c-2.182,2.364-4.946,2.141-7.692,1.253c-3.105-1.018-5.752-2.854-8.356-5.322c-0.5,2.781-0.741,5.457-3.829,6.639
		c-3.346,1.271-6.363,0.73-9.31-0.846c-1.894-1.006-3.664-2.229-5.687-3.477c-0.359,2.199-0.818,4.5-3.477,5.328
		c-2.652,0.83-5.034,0.041-7.192-1.305c-6.881-4.287-12.145-10.258-16.884-16.709c-0.677-0.936-1.059-2.182-1.259-3.328
		c-0.342-1.912-0.4-3.923,1.234-5.363c1.57-1.383,3.382-0.807,5.123-0.242c2.394,0.783,4.293,2.459,6.498,4.029
		c-0.405-4.234-0.347-8.27,3.276-10.674c3.717-2.465,7.375-0.383,10.868,1.229c1.711,0.806,3.234,1.918,5.099,3.699
		c-0.359-2.994-1.041-5.357-0.7-7.811c0.718-5.086,3.141-6.822,8.175-5.657c0.576,0.136,1.247,1.165,1.817-0.358
		c2.164-5.734,3.682-6.328,9.327-4.041c0.453,0.172,0.889,0.354,1.564,0.63c0.518-3.528-0.765-7.951,3.182-9.821
		c3.705-1.752,6.74,1.105,9.821,3.158c-1.182-4.5-4.169-9.557,0.583-12.686c4.457-2.947,8.115,1.465,11.944,4.088
		c-1.177-3.8-2.029-7.434-1.465-11.222c0.994-6.622,4.87-8.245,10.298-4.306C262.979,244.551,263.484,245.034,264.837,246.157z"/>
	<path fill-rule="evenodd" clip-rule="evenodd" fill="#060604" d="M239.678,81.475c0.93,2.676,2.711,3.652,5.816,3.394
		c5.416-0.453,7.252,1.07,8.192,7.575c0.541,3.758,1.771,5.758,5.575,5.922c0.229,0.012,0.447,0.17,0.671,0.241
		c6.739,2.312,8.146,2.735,6.104,11.733c-0.535,2.382-0.194,3.452,1.67,4.476c0.312,0.176,0.588,0.423,0.876,0.629
		c5.905,4.246,6.363,8.298,1.159,13.509c-1.43,1.429-1.447,2.182-0.165,3.399c0.347,0.329,0.6,0.752,0.899,1.123
		c4.435,5.511,4.246,8.428-1.152,13.279c-1.246,1.118-1.97,1.829-0.858,3.476c4.528,6.652,3.587,10.151-4.811,15.232
		c-1.771,1.07-2.518,1.864-2.506,3.976c0.018,5.463-2.312,7.692-7.798,7.298c-3.464-0.253-6.334-0.153-7.451,3.846
		c-0.112,0.423-0.576,0.753-0.877,1.129c-3.517,4.57-5.469,5.27-10.562,2.982c-2.752-1.229-4.328-1.511-6.363,1.553
		c-3.734,5.628-8.186,6.64-13.75,3.046c-3.682-2.388-6.751-2.312-10.256-0.436c-3.047,1.629-5.123,1.259-5.852-2.564
		c-0.247-1.264-1.171-2.394-1.447-3.658c-0.329-1.494-1.082-1.958-2.476-1.712c-0.118,0.018-0.241,0.006-0.358-0.006
		c-9.698-0.488-9.793-0.482-10.434-9.892c-0.183-2.652-0.889-3.935-3.729-3.594c-1.035,0.124-2.141-0.211-3.193-0.417
		c-5.711-1.118-6.734-2.064-5.54-7.563c1.029-4.717-0.729-7.728-4.223-10.233c-3.846-2.764-5.081-6.046-2.535-10.369
		c1.529-2.599,1.106-4.77-0.782-7.38c-5.811-8.057-5.74-8.269,1.217-15.121c1.664-1.641,1.188-2.682,0.506-4.311
		c-3.481-8.181-3.552-8.41,4.069-11.979c4.035-1.894,6.322-4.305,6.022-8.91c-0.088-1.405,0.494-2.84,0.5-4.27
		c0.023-2.082,1.188-2.693,2.97-2.729c0.835-0.018,1.676,0.024,2.512,0.053c4.852,0.188,9.31-0.241,10.985-6.005
		c0.347-1.194,1.446-2.164,2.158-3.258c1.101-1.706,2.458-1.641,3.981-0.647c1.4,0.906,2.959,1.646,4.164,2.77
		c2.623,2.429,4.729,1.605,7.14-0.43c6.022-5.052,6.169-5.11,12.321-0.694c2.552,1.829,4.457,2.764,7.357,0.512
		c2.258-1.764,4.957-1.57,6.963,1.035C237.414,78.817,238.52,80.075,239.678,81.475z"/>
	<path fill-rule="evenodd" clip-rule="evenodd" fill="#060604" d="M121.909,163.651c0.653,3.546,3.37,3.605,6.64,3.305
		c4.023-0.371,6.24,1.417,7.081,6.446c0.724,4.357,2.294,6.61,6.934,7.71c6.764,1.605,8.069,4.752,5.693,11.503
		c-0.765,2.194-0.395,3.252,1.5,4.176c0.529,0.246,0.953,0.723,1.435,1.07c5.522,4.052,5.857,8.352,0.735,13.244
		c-1.576,1.494-1.394,2.205-0.059,3.629c5.764,6.133,5.664,8.475-0.717,14.496c-1.142,1.076-1.347,1.924-0.529,3.023
		c5.257,7.033,2.723,11.133-5.193,15.619c-1.559,0.883-1.988,1.677-2.059,3.199c-0.347,6.676-1.905,8.299-8.651,7.781
		c-3.346-0.258-4.963,0.693-6.534,3.658c-2.988,5.652-6.234,6.527-12.268,3.987c-2.111-0.894-3.323-1.194-4.969,1.288
		c-4.029,6.11-9.104,7.305-14.868,3.411c-3.211-2.171-5.834-1.876-8.959-0.523c-5.54,2.388-5.114,2.046-6.752-2.812
		c-1.255-3.723-3.055-5.622-7.086-5.033c-0.917,0.135-1.903-0.207-2.858-0.295c-2.896-0.253-4.532-1.547-4.487-4.734
		c0.032-2.494,0.435-5.504-0.762-7.357c-1.176-1.822-4.443-0.67-6.74-1.246c-5.222-1.307-6.51-2.294-5.128-7.258
		c1.835-6.58-2.946-9.168-6.313-12.604c-1.776-1.811-2.711-3.457-1.385-5.621c3.043-4.977,1.564-8.922-1.864-13.156
		c-4.193-5.17-4.02-5.699,0.997-9.787c3.093-2.521,4.484-4.986,1.988-8.609c-0.332-0.488-0.541-1.071-0.747-1.629
		c-1.808-4.94-1.802-4.94,2.979-7.022c0.221-0.094,0.42-0.247,0.653-0.306c7.075-1.771,8.442-7.292,8.463-13.392
		c0.012-3.128,1.614-3.569,4.022-3.54c1.079,0.023,2.155,0.041,3.238,0.041c3.823-0.023,7.466-0.329,8.545-5.04
		c0.1-0.435,0.502-0.806,0.75-1.211c3.035-5.123,3.464-5.222,8.389-1.912c5.402,3.635,5.822,3.6,10.609-0.8
		c4.1-3.764,4.1-3.764,8.707-0.688c0.6,0.4,1.276,0.717,1.788,1.206c2.376,2.294,4.581,2.982,7.64,0.7
		c2.417-1.788,5.216-1.5,7.163,1.411C119.728,161.169,120.733,162.216,121.909,163.651z"/>
	<path fill-rule="evenodd" clip-rule="evenodd" fill="#040403" d="M202.738,239.829c-0.882,6.346-2.422,12.215-5.445,17.626
		c-4.217,7.54-11.186,7.963-15.479,0.405c-9.387-16.496-13.486-34.133-9.805-53.1c1.395-7.176,1.771-7.469,9.157-5.969
		c15.614,3.17,29.999,8.826,41.015,21.029c2.605,2.889,4.688,6.023,5.699,9.828c1.852,6.934-1.3,11.867-8.404,12.18
		C214.007,242.063,208.438,242.075,202.738,239.829z"/>
	<path fill-rule="evenodd" clip-rule="evenodd" fill="#050806" d="M238.772,335.308c3.299,3.688,2.616,7.851-1.488,10.169
		c-4.604,2.605-11.604,1.458-14.803-2.418c-2.67-3.24-2.611-6.609,0.165-9.68c7.51-8.299,24.848-8.811,32.74-0.947
		c0.588,0.588,1.035,1.312,1.564,1.965c0.511,0.652,1.246,1.293,0.705,2.211c-0.676,1.146-1.623,0.518-2.529,0.259
		C249.828,335.332,244.418,334.773,238.772,335.308z"/>
	<path fill-rule="evenodd" clip-rule="evenodd" fill="#080A07" d="M280.698,303.021c-2.04,4.146-2.312,8.327-1.676,12.65
		c0.117,0.817,0.229,1.67,0.523,2.435c0.658,1.77,0.064,3.275-1.459,3.893c-1.923,0.783-2.405-1.223-2.894-2.404
		c-2.635-6.258-4.093-12.756-3.129-19.59c1.094-7.711,8.781-12.356,16.067-9.739c3.646,1.306,4.394,4.528,4.729,7.815
		c0.312,3.152,0.177,6.34-2.835,8.387C287.414,308.249,284.262,307.09,280.698,303.021z"/>
	<path fill-rule="evenodd" clip-rule="evenodd" fill="#070A08" d="M134.995,125.289c-9.045-11.862-11.174-24.307-4.07-37.615
		c3.193-5.987,5.97-7.704,10.116-6.593c5.21,1.388,8.816,6.499,8.581,12.256c-0.241,6.063-2.752,11.421-7.192,15.173
		C137.059,113.033,133.895,117.961,134.995,125.289z"/>
	<path fill-rule="evenodd" clip-rule="evenodd" fill="#080B08" d="M119.063,135.558c-0.283,0.135-0.565,0.37-0.659,0.312
		c-6.222-3.711-11.774-1.935-17.852,1.076c-6.958,3.452-14.5,4.299-21.24-1.223c-3.352-2.752-4.399-6.516-3.673-10.633
		c0.683-3.987,4.041-4.981,7.387-5.787c12.383-3.005,26.674,2.476,33.708,12.909C117.499,133.334,118.281,134.446,119.063,135.558z"
		/>
	<path fill-rule="evenodd" clip-rule="evenodd" fill="#0E0706" d="M101.108,97.53c-0.629-4.017,0.289-7.41,2.511-10.421
		c1.829-2.464,4.252-3.958,7.428-3.317c3.205,0.642,5.287,2.594,6.005,5.887c1.547,7.051,0.37,13.779-2.423,20.29
		c-0.612,1.447-1.576,2.453-3.405,2.694c-2.946,0.394-5.822,1.276-8.763,1.741c-5.831,0.923-10.613-1.358-14.353-5.587
		c-4.543-5.158-2.329-10.774,4.469-12.115C95.397,96.148,98.038,96.848,101.108,97.53z"/>
	<path fill-rule="evenodd" clip-rule="evenodd" fill="#0A0905" d="M147.716,148.049c-6.305-7.239-6.922-20.648-1.335-29.741
		c1.188-1.935,2.44-3.846,3.84-5.622c8.722-11.044,9.78-23.271,5.764-36.345c-0.523-1.729-1.477-3.481-0.677-5.546
		c1.835,1.206,2.023,3.105,2.582,4.729c4.563,13.244,4.299,26.083-4.811,37.386c-8.021,9.975-10.163,20.537-5.616,32.505
		C147.757,146.155,148.639,147.09,147.716,148.049z"/>
	<path fill-rule="evenodd" clip-rule="evenodd" fill="#090805" d="M136.589,156.124c-1.418-0.941-2.911-1.77-4.223-2.834
		c-8.24-6.728-17.32-8.669-27.512-5.193c-15.091,5.146-28.488,1.906-40.409-8.369c-1.062-0.917-2.258-1.717-2.649-3.358
		c1.708-0.194,2.652,0.953,3.781,1.752c4.185,2.964,8.472,5.751,13.268,7.687c8.351,3.364,16.717,2.541,24.927-0.217
		c13.203-4.429,23.924-0.683,32.98,9.274c0.13,0.147,0.142,0.423,0.165,0.652C136.936,155.6,136.818,155.706,136.589,156.124z"/>
	<path fill-rule="evenodd" clip-rule="evenodd" fill="#080704" d="M134.106,38.984c-2.146-3.082-1.629-7.728,1.029-9.421
		c2.629-1.665,4.534-0.312,6.052,1.77c2.264,3.094,1.87,7.98-0.847,9.698C137.482,42.842,135.718,40.819,134.106,38.984z"/>
	<path fill-rule="evenodd" clip-rule="evenodd" fill="#090805" d="M26.736,121.919c-2.308,1.505-5.946,0.176-7.913-2.835
		c-1.732-2.652-0.585-4.475,1.649-5.993c2.761-1.888,5.805-1.029,7.872,2.193C29.626,117.279,28.833,120.561,26.736,121.919z"/>
	<path fill-rule="evenodd" clip-rule="evenodd" fill="#FFF19B" d="M230.057,277.856c0.111-2.535,0.041-4.816,0.347-7.045
		c0.529-3.889,2.094-4.629,5.687-2.871c3.559,1.735,5.405,5.012,7.229,8.24c4.528,8.016,4.499,8.039-2.823,13.156
		c-1.582,1.105-3.146,2.217-4.74,3.299c-4.011,2.723-5.005,2.676-8.763-0.412c-3.117-2.553-5.517-5.646-6.945-9.445
		c-0.847-2.264-1.823-4.711,0.07-6.751c1.8-1.929,4.035-0.8,6.034-0.006C227.457,276.533,228.686,277.209,230.057,277.856z"/>
	<path fill-rule="evenodd" clip-rule="evenodd" fill="#FEF19B" d="M215.478,303.686c-5.552,2.91-10.475,4.021-15.526,4.646
		c-2.564,0.317-3.059-2.341-4.534-3.575c-3.088-2.564-4.682-6.011-4.775-10.016c-0.106-4.94,3.058-7.211,7.716-5.635
		c4.676,1.588,8.451,4.287,10.909,8.699C210.578,300.151,211.514,302.868,215.478,303.686z"/>
	<path fill-rule="evenodd" clip-rule="evenodd" fill="#FFF29C" d="M234.173,297.746c5.017-3.499,9.951-6.887,14.814-10.392
		c0.835-0.6,1.276-0.564,1.63,0.229c2.328,5.252,4.64,10.498,4.416,16.462c-0.117,3.205-1.623,4.487-4.787,4.187
		c-5.081-0.487-8.893-3.293-12.438-6.598C236.607,300.516,235.549,299.239,234.173,297.746z"/>
	<path fill-rule="evenodd" clip-rule="evenodd" fill="#FFF19B" d="M258.668,272.322c-0.765-4.981-1.918-9.204-3.312-13.38
		c-1.265-3.781-1.812-7.662-0.841-11.621c0.635-2.623,2.035-3.705,4.676-2.281c4.846,2.623,8.127,6.475,9.769,11.809
		c0.405,1.318-0.083,2.076-0.706,2.895C265.195,263.812,262.085,267.846,258.668,272.322z"/>
	<path fill-rule="evenodd" clip-rule="evenodd" fill="#FEF19B" d="M230.333,296.329c-3.958,2.129-7.628,4.052-11.245,6.068
		c-1.664,0.924-2.705,0.137-3.699-1.022c-3.693-4.312-5.975-9.222-6.216-14.95c-0.206-4.752,1.853-6.764,6.005-6.045
		c1.27,0.229,2.058,0.658,2.517,2.076C219.776,288.772,223.91,293.37,230.333,296.329z"/>
	<path fill-rule="evenodd" clip-rule="evenodd" fill="#FEF19B" d="M248.347,283.149c-1.07-4.199-3.211-7.451-4.54-10.934
		c-1.5-3.916-2.771-8.256-2.312-12.686c0.241-2.346,1.694-2.916,3.847-2.234c5.692,1.8,11.82,10.021,11.797,15.955
		c-0.012,0.523-0.37,1.111-0.724,1.547C254.086,277.674,251.558,280.362,248.347,283.149z"/>
	<path fill-rule="evenodd" clip-rule="evenodd" fill="#FEF19C" d="M235.079,301.344c1.97,3.482,3.587,6.417,3.935,9.805
		c0.458,4.486-2.129,6.687-6.357,5.27c-4.876-1.641-8.663-4.881-12.01-8.723c-1.37-1.57-0.623-2.028,0.806-2.729
		c2.905-1.435,5.822-2.869,8.517-4.64C232.639,298.575,234.268,299.116,235.079,301.344z"/>
	<path fill-rule="evenodd" clip-rule="evenodd" fill="#FEF09C" d="M270.595,255.801c-1.882-5.704-5.692-10.526-5.552-16.76
		c0.041-1.865-0.152-3.9,1.529-4.817c1.841-0.999,3.275,0.8,4.734,1.759c0.105,0.064,0.199,0.141,0.282,0.223
		c5.322,4.752,5.922,8.005,2.558,14.162C273.141,252.203,272.276,254.131,270.595,255.801z"/>
	<path fill-rule="evenodd" clip-rule="evenodd" fill="#FDF09C" d="M195.293,308.713c-1.341,0.095-2.152,0.106-2.952,0.225
		c-7.486,1.135-12.591-1.971-14.644-9.063c-0.383-1.323-0.864-2.946,0.447-4.034c1.17-0.965,2.528-0.336,3.74,0.205
		C187.701,298.633,190.912,303.909,195.293,308.713z"/>
	<path fill-rule="evenodd" clip-rule="evenodd" fill="#FDF09C" d="M271.218,260.872c1.812,5.229,3.199,10.104,0.965,15.197
		c-0.888,2.028-2.076,4.258-4.604,3.711c-2.782-0.612-4.488-3.023-5.746-5.5c-0.418-0.811,0.646-1.464,1.105-2.105
		C265.578,268.51,268.271,264.882,271.218,260.872z"/>
	<path fill-rule="evenodd" clip-rule="evenodd" fill="#FDF09C" d="M202.539,311.354c5.175-1.117,9.615-2.082,13.709-4.081
		c1.582-0.782,2.27-0.259,3.011,1.153c1.364,2.635,2.552,5.539,0.683,8.033c-1.977,2.629-5.07,2.035-7.91,0.977
		C208.655,316.165,205.844,314.071,202.539,311.354z"/>
	<path fill-rule="evenodd" clip-rule="evenodd" fill="#FDF09C" d="M260.396,275.692c1.841,4.881,3.211,9.633,2.07,14.715
		c-0.817,3.622-2.27,3.998-5.217,1.846c-1.993-1.446-3.217-3.534-4.91-5.217c-1.059-1.059-0.771-2.005,0.276-3.058
		C255.204,281.362,257.662,278.615,260.396,275.692z"/>
	<path fill-rule="evenodd" clip-rule="evenodd" fill="#FCF09D" d="M278.034,246.022c2.253,4.463,3.234,8.804,3.088,13.391
		c-0.054,1.729-0.554,3.382-2.358,4.047c-1.912,0.711-3.234-0.512-4.234-1.871c-0.965-1.311-2.629-2.381-1.183-4.616
		C275.44,253.732,276.723,250.044,278.034,246.022z"/>
	<path fill-rule="evenodd" clip-rule="evenodd" fill="#F9ED9E" d="M186.242,310.684c4.511,1.141,8.175,1.4,11.833,0.971
		c2.094-0.254,3.081,0.853,3.905,2.387c0.717,1.377,0.77,2.783-0.389,3.965c-1.234,1.27-2.799,1.275-4.328,0.688
		C193.188,317.141,189.947,314.395,186.242,310.684z"/>
	<path fill-rule="evenodd" clip-rule="evenodd" fill="#FFCC68" d="M237.689,83.504c1.206,3.347,3.982,4.635,7.958,3.935
		c3.311-0.576,4.522,1.694,4.952,4.387c0.758,4.77,3.188,7.481,8.074,8.739c6.646,1.717,6.934,2.546,5.346,9.469
		c-0.67,2.894-0.376,5.046,2.282,6.763c1.765,1.129,4.581,1.882,4.687,4.028c0.142,2.835-1.458,5.669-3.439,7.681
		c-1.512,1.541-1.683,2.235-0.106,3.546c0.518,0.435,0.7,1.247,1.141,1.806c4.405,5.705,4.588,5.958-0.317,11.368
		c-2.37,2.605-2.44,4.623-0.8,7.516c2.405,4.252,1.835,6.146-2.076,9.163c-1.241,0.947-2.517,1.853-3.84,2.682
		c-1.653,1.041-2.405,2.388-2.488,4.422c-0.182,4.758-1.417,5.905-6.239,5.652c-3.799-0.2-6.434,0.67-8.387,4.429
		c-2.435,4.681-4.846,5.187-9.922,3.476c-2.881-0.964-5.074-1.5-7.245,2.082c-3.328,5.493-7.304,6.246-13.509,2.676
		c-3.764-2.165-6.881-1.964-10.321-0.129c-1.964,1.053-3.316,0.917-3.693-1.553c-0.999-6.569-5.546-7.928-11.156-7.439
		c-2.353,0.206-2.929-0.635-3.063-2.87c-0.512-8.574-0.589-8.568-8.781-10.421c-3.058-0.694-5.599-1.676-3.993-5.682
		c0.312-0.752,0.247-1.652,0.323-2.487c0.26-2.693,0.642-5.428-2.758-6.646c-0.512-0.188-0.864-0.817-1.323-1.188
		c-3.534-2.864-5.528-5.846-2.688-10.592c2.569-4.275-0.888-7.722-3.164-10.633c-2.729-3.476-2.423-5.675,0.923-8.104
		c3.717-2.7,4.47-5.822,2.171-10.174c-2.423-4.611-2.13-5.034,2.688-6.981c6.21-2.517,9.068-6.833,8.492-13.503
		c-0.194-2.247,0.6-3.411,3.211-2.958c1.741,0.3,3.581,0.053,5.381-0.053c3.064-0.176,5.452-1.458,6.729-4.417
		c0.282-0.647,0.788-1.2,1.07-1.853c1.399-3.164,3.141-4.246,6.022-1.388c0.987,0.97,2.476,1.411,3.705,2.146
		c2.182,1.3,4.046,1.229,5.587-1.029c0.394-0.582,1.005-1.023,1.558-1.476c5.84-4.734,5.976-4.705,11.298,0.812
		c1.453,1.506,2.952,2.799,5.328,1.605C233.803,77.059,232.538,76.57,237.689,83.504z"/>
	<path fill-rule="evenodd" clip-rule="evenodd" fill="#FFCC68" d="M119.827,165.622c1.212,3.423,4.129,4.781,8.228,4.022
		c2.464-0.458,3.852,0.847,4.534,3.082c0.312,1.023,0.641,2.059,0.817,3.117c0.612,3.593,2.582,5.805,6.269,6.322
		c0.124,0.012,0.241,0.047,0.354,0.082c7.351,2.435,7.592,2.723,6.04,10.498c-0.577,2.87,0.217,4.652,2.652,6.316
		c5.393,3.688,5.751,6.563,1.147,11.398c-1.617,1.699-1.635,2.522-0.183,3.951c0.418,0.4,0.653,0.994,1.012,1.471
		c4.334,5.787,4.499,6.717-0.512,11.985c-2.223,2.329-2.094,4.134-0.747,6.563c2.682,4.834,2.247,6.657-2.188,9.916
		c-1.064,0.787-2.129,1.582-3.246,2.27c-1.771,1.082-2.641,2.429-2.717,4.658c-0.147,4.682-1.33,5.74-5.94,5.545
		c-3.846-0.158-6.692,0.523-8.704,4.506c-2.282,4.527-4.764,5.021-9.633,3.475c-2.976-0.946-5.346-1.793-7.587,2.129
		c-2.929,5.117-6.828,6.1-12.241,3.094c-4.394-2.435-8.195-2.711-12.368-0.394c-1.535,0.847-2.185,0.341-2.458-1.177
		c-1.203-6.716-5.67-8.75-11.854-8.156c-1.997,0.193-2.611-0.406-2.685-2.459c-0.103-2.939,0.562-6.475-1.285-8.639
		c-1.782-2.1-5.34-1.646-8.143-2.229c-2.976-0.624-4.74-1.889-3.384-5.436c2.082-5.434-1-8.968-5.031-11.85
		c-3.073-2.193-3.693-4.611-1.817-7.934c1.832-3.246,1.394-6.428-0.985-9.334c-0.529-0.646-0.968-1.375-1.447-2.063
		c-3.208-4.593-3.405-4.817,0.68-8.498c3.461-3.117,4.607-6.199,2.017-10.315c-0.5-0.782-0.618-1.806-0.997-2.682
		c-0.812-1.858-0.624-3.158,1.696-3.481c0.338-0.047,0.635-0.341,0.965-0.471c5.816-2.24,10.33-5.404,9.451-12.673
		c-0.435-3.582,1.291-4.705,4.726-4.093c1.491,0.265,3.096-0.083,4.646-0.2c2.817-0.217,4.875-1.541,6.004-4.199
		c0.283-0.659,0.729-1.241,1.038-1.888c1.4-2.923,3.035-4.446,6.013-1.523c0.982,0.964,2.503,1.376,3.693,2.158
		c2.146,1.412,4.008,1.388,5.617-0.806c0.279-0.382,0.618-0.741,0.994-1.023c6.175-4.699,6.369-6.251,12.109,0.335
		c1.288,1.476,2.835,2.576,5.052,1.582C115.729,159.74,115.74,159.77,119.827,165.622z"/>
	<path fill-rule="evenodd" clip-rule="evenodd" fill="#67CAD7" d="M221.964,224.673c1.282,1.999,2.817,3.841,3.37,6.269
		c1.064,4.646-0.57,7.334-5.217,8.381c-5.028,1.129-10.039,0.735-14.896-0.652c-3.07-0.877-4.199,0.371-4.758,2.976
		c-1.135,5.323-3.559,10.116-6.188,14.797c-2.452,4.376-6.109,4.604-8.944,0.482c-5.764-8.422-8.575-18.056-10.568-27.905
		c-1.817-8.975-1.576-18.008,0.241-27.023c0.335-1.677,0.658-2.389,2.446-1.859c10.403,3.094,20.972,5.764,30.264,11.662
		C213.178,215.27,218.318,219.163,221.964,224.673z"/>
	<path fill-rule="evenodd" clip-rule="evenodd" fill="#6EC175" d="M250.528,332.615c-6.233,0.229-12.427-1.464-17.39,3.193
		c0.529,1.399,1.746,0.624,2.522,1.07c1.117,0.636,2.623,0.923,2.676,2.563c0.059,1.683-0.759,2.959-2.241,3.8
		c-3.546,1.999-9.551,0.97-12.144-2.218c-1.364-1.682-1.136-3.504,0.094-5.222C228.568,329.492,244.465,326.987,250.528,332.615z"/>
	<path fill-rule="evenodd" clip-rule="evenodd" fill="#6EC175" d="M276.417,315.094c-1.888-2.439-2.564-9.479-2.212-14.32
		c0.43-5.863,6.77-9.174,11.292-8.457c2.364,0.365,3.993,1.277,4.517,3.771c0.618,2.993,1.082,5.999-1.152,8.498
		c-1.17,1.306-2.688,0.47-3.964-0.194c-1.129-0.582-1.911-1.135-0.882-2.723c1.023-1.576-0.612-1.806-1.623-1.746
		c-2.57,0.135-4.088,1.758-4.8,4.104C276.528,307.579,275.812,311.196,276.417,315.094z"/>
	<path fill-rule="evenodd" clip-rule="evenodd" fill="#6EC176" d="M132.536,120.084c-4.552-11.468-5.722-21.819,0.518-31.993
		c1.624-2.635,3.158-5.617,7.063-4.875c3.394,0.653,6.975,4.981,7.192,8.563c0.395,6.487-2.646,11.574-7.245,15.626
		C136.377,110.651,133.489,114.162,132.536,120.084z"/>
	<path fill-rule="evenodd" clip-rule="evenodd" fill="#6EC175" d="M114.746,131.5c-5.857-0.835-10.192,0.588-14.494,3.064
		c-4.425,2.559-9.415,3.299-14.553,2.105c-4.04-0.935-6.428-3.676-7.616-7.381c-1.241-3.852,0.318-6.387,4.193-7.533
		c11.115-3.282,20.625,0.223,29.346,6.975C112.453,129.359,113.199,130.117,114.746,131.5z"/>
	<path fill-rule="evenodd" clip-rule="evenodd" fill="#EF5894" d="M103.107,99.624c-1.411-4.322-0.535-8.021,2.088-11.221
		c1.482-1.794,3.394-3.011,5.987-2.217c2.505,0.77,3.616,2.546,3.993,4.987c0.935,6.099-0.247,11.909-2.364,17.584
		c-0.188,0.523-0.541,1.312-0.912,1.371c-6.539,1.035-13.05,4.834-19.628-0.053c-3.405-2.535-5.378-5.875-4.408-8.245
		c1.035-2.523,5.102-4.182,9.066-3.558C98.896,98.583,100.829,99.112,103.107,99.624z"/>
	<path fill-rule="evenodd" clip-rule="evenodd" fill="#010101" d="M193.217,90.567c19.037-12.297,46.114-6.887,60.229,13.297
		c12.01,17.161,12.215,38.633,0.506,54.394c-13.32,17.938-38.985,22.072-58.658,9.439c-20.76-13.332-27.917-39.744-16.625-61.598
		C181.755,100.136,186.271,95.39,193.217,90.567z"/>
	<path fill-rule="evenodd" clip-rule="evenodd" fill="#010101" d="M63.278,237.341c-13.936-19.366-11.013-48.354,9.218-62.451
		c13.791-9.61,28.491-10.363,43.661-3.729c22.424,9.81,33.61,36.95,24.707,59.663c-9.027,23.043-35.534,33.505-58.046,22.907
		C74.202,249.674,68.615,244.987,63.278,237.341z"/>
	<path fill-rule="evenodd" clip-rule="evenodd" fill="#010201" d="M209.066,220.468c2.253,2.259,2.847,4.74,1.118,7.499
		c-1.653,2.641-4.094,3.793-7.21,3.688c-6.711-0.236-6.705-0.213-8.723,6.299c-0.452,1.487-1.059,2.922-2.129,4.068
		c-2.922,3.123-6.669,2.488-8.274-1.452c-2.052-4.97-3.446-10.121-3.664-15.515c-0.2-4.869-0.958-9.732-0.182-14.613
		c0.224-1.354,0.493-2.111,2.264-1.777c7.187,1.336,14.038,3.758,20.79,6.47C205.615,216.164,207.732,217.993,209.066,220.468z"/>
	<path fill-rule="evenodd" clip-rule="evenodd" fill="#EF578D" d="M245.665,127.941c-2.67-7.534-7.393-13.221-14.351-16.908
		c-10.062-5.334-23.312-2.511-30.281,6.299c-5.705,7.222-4.976,16.696,1.888,24.212c6.093,6.681,15.444,7.627,23.519,2.382
		c5.699-3.705,7.252-8.463,4.611-14.085c-3.376-7.21-9.628-10.604-15.803-8.592c-3.576,1.17-5.787,4.664-5.299,8.386
		c0.582,4.458,3.658,7.828,7.451,7.975c2.723,0.112,5.022-0.764,5.852-3.681c0.652-2.294-1.265-5.993-3.481-6.893
		c-1.153-0.47-2.682-0.817-3.182,0.512c-0.806,2.165,1.276,0.923,1.976,1.241c1.853,0.824,2.564,2.312,2.2,4.046
		c-0.4,1.894-2.159,2.165-3.759,1.794c-3.11-0.688-4.069-3.217-4.211-5.952c-0.129-2.5,1.112-4.246,3.759-4.929
		c5.281-1.353,9.997,1.494,12.462,7.663c1.835,4.593,0.471,7.504-4.828,10.327c-11.562,6.152-24.466-1.088-24.483-13.738
		c-0.006-6.851,6.476-14.126,14.297-16.102c9.616-2.429,17.567,0.523,23.871,7.81c5.952,6.887,7.722,15.161,4.464,23.548
		c-3.446,8.869-10.974,13.75-20.078,15.779c-14.062,3.141-27.858-3.999-33.387-16.92c-5.363-12.562-0.917-27.458,10.639-35.668
		c11.615-8.251,27.289-7.352,37.439,2.146C242.395,113.686,245.829,121.107,245.665,127.941z"/>
	<path fill-rule="evenodd" clip-rule="evenodd" fill="#EF578D" d="M97.812,210.817c0.43,0.189,0.738,0.447,1.032,0.43
		c2.494-0.146,3.411,1.354,3.693,3.488c0.2,1.529-0.858,2.24-2.091,2.457c-2.041,0.348-3.94-0.176-4.863-2.193
		c-1.056-2.299-2.044-4.764-0.065-7.092c1.967-2.312,4.699-2.234,7.295-1.759c3.876,0.724,8.175,5.834,8.616,10.122
		c0.447,4.311-2.411,6.369-5.74,8.203c-12.809,7.075-23.719-3.576-24.28-13.133c-0.415-7.109,6.022-14.814,14.235-16.866
		c9.709-2.429,17.72,0.482,24.101,8.046c5.946,7.045,7.516,15.302,4.188,23.588c-3.464,8.646-10.927,13.527-19.937,15.45
		c-12.742,2.705-25.58-2.782-31.422-13.009c-6.752-11.81-5.246-25.447,3.928-35.628c7.896-8.757,21.475-11.927,32.764-7.645
		c10.651,4.046,18.09,14.273,18.313,25.976c-2.593-7.004-6.398-12.227-11.891-16.12c-9.381-6.651-23.381-5.316-31.361,2.94
		c-7.163,7.416-7.225,16.785-0.17,25.577c5.537,6.905,15.532,8.151,23.768,2.976c5.828-3.67,7.44-8.238,4.935-14.014
		c-3.058-7.059-9.145-10.621-15.338-8.992c-3.891,1.029-6.284,4.416-5.887,8.327c0.464,4.563,3.676,8.116,7.61,8.192
		c2.706,0.053,5.04-0.788,5.734-3.811c0.564-2.424-1.37-6.012-3.605-6.816C99.923,208.995,98.603,208.995,97.812,210.817z"/>
</g>
</svg>
