<?xml version="1.0" encoding="utf-8"?>
<!-- Generator: Adobe Illustrator 16.0.4, SVG Export Plug-In . SVG Version: 6.00 Build 0)  -->
<!DOCTYPE svg PUBLIC "-//W3C//DTD SVG 1.1//EN" "http://www.w3.org/Graphics/SVG/1.1/DTD/svg11.dtd">
<svg version="1.1" id="Layer_1" xmlns="http://www.w3.org/2000/svg" xmlns:xlink="http://www.w3.org/1999/xlink" x="0px" y="0px"
	 width="615.205px" height="944.953px" viewBox="0 0 615.205 944.953" enable-background="new 0 0 615.205 944.953"
	 xml:space="preserve">
<g id="shoes">
	<path fill="#513620" stroke="#000000" stroke-width="0.9891" stroke-miterlimit="10" d="M254.887,860.957
		c-21.333,28.498-41.496,50.997-53.913,52.497s-1.504,23.999,4.289,23.999s17.169,1.5,31.73,0s29.286-25.499,35.423-25.499
		c6.137,0,15.412,3.001,19.773-4.499s-16.012-53.998-16.012-53.998L254.887,860.957z"/>
	<path fill="#513620" stroke="#000000" stroke-width="0.9891" stroke-miterlimit="10" d="M328.078,853.457
		c-16.336,2.51-20.029,32.164-19.029,42.331c1.002,10.167,6.332,38.666,28.416,49.165c22.082,10.499,19.611-6.001,22.348-15
		c2.734-8.999-8.338-34.165-8.338-34.165S347.605,850.457,328.078,853.457z"/>
</g>
<path id="legs" fill="#2E3C49" stroke="#000000" stroke-width="0.9891" stroke-miterlimit="10" d="M241.264,866.956
	c36.367,22.684,36.435,10.499,49.111,0l-20.29-278.985l11.907,13.499l15.238,265.486c0,0,32.348,29.998,62.582,1.5
	c0,0,0.098-335.078-10.213-374.586c-10.309-39.508-108.197-44.092-123.12-5.744S219.616,853.453,241.264,866.956z"/>
<path id="left_arm_1_" fill="#2E3C49" stroke="#000000" stroke-width="0.956" stroke-miterlimit="10" d="M196.5,241.866
	C177.425,241.184,94.503,300.534,83.17,309.2s-19.333,28-18,32s0.847,44.666,73.333-16.667c0,0,64-15.334,72.667-28.667
	S233.831,243.199,196.5,241.866z"/>
<path id="torso" fill="#2E3C49" stroke="#000000" stroke-width="0.9891" stroke-miterlimit="10" d="M213.306,245.733
	c0,0-24.197,8.666-32.759,14s30.763,125.999,37.247,139.332s-2.394,94.211-4.834,111.515c-1.24,8.789-19.955,57.575-19.955,57.575
	s58.367,13.385,70.492-28.14c0,0,56.815,54.779,121.03,31.451c0,0-18.506-166.109-16.799-185.734
	c2.203-25.322,37.572-102.665,34.719-125.332c0,0,4.277-10.121-47.805-20.391L213.306,245.733z"/>
<path id="neck" fill="#FFFFFF" stroke="#000000" stroke-width="1.0125" stroke-miterlimit="10" d="M287.468,180.399
	c-2.07,9.012,7.797,41.994,10.949,47.256c3.15,5.262-34.861,20.628-44.759,6.598c0,0,4.052-40.323,1.647-54.331
	C274.22,170.775,287.468,180.399,287.468,180.399z"/>
<path id="white_torso" fill="#F4F4F4" stroke="#000000" stroke-width="1.0125" stroke-miterlimit="10" d="M250.96,224.104
	c0,0-15.75,10.295-27.125,12.295s14.697,141.609,38.604,141.609s75.287-146.368,75.287-146.368s-27.779-12.567-32.266-14.241
	c-25.918-9.667-38.906,21-38.906,21l-12.224-21.556L250.96,224.104z"/>
<path id="backhair" fill="#4C2E1A" stroke="#000000" stroke-width="1.3154" stroke-miterlimit="10" d="M313.527,146.196
	c0,0,25.434-47.797,17.934-67.047s-25.5-1.25-25.5-1.25L313.527,146.196z"/>
<linearGradient id="ear_1_" gradientUnits="userSpaceOnUse" x1="313.6558" y1="122.4956" x2="340.8981" y2="106.7672">
	<stop  offset="0" style="stop-color:#FFFFFF"/>
	<stop  offset="0.0194" style="stop-color:#FDFBF9"/>
	<stop  offset="0.1786" style="stop-color:#EBDECE"/>
	<stop  offset="0.3404" style="stop-color:#DDC5AB"/>
	<stop  offset="0.5028" style="stop-color:#D2B28F"/>
	<stop  offset="0.6661" style="stop-color:#CAA57C"/>
	<stop  offset="0.8311" style="stop-color:#C69D70"/>
	<stop  offset="1" style="stop-color:#C49A6C"/>
</linearGradient>
<path id="ear" fill="url(#ear_1_)" stroke="#000000" stroke-width="1.3154" stroke-miterlimit="10" d="M320.96,104.093
	c3.5-1.694,14.5-12.14,16.5-2.417s-7.5,38.607-20.5,25.165S320.96,104.093,320.96,104.093z"/>
<path id="head" fill="#FFFFFF" stroke="#000000" stroke-width="1.4544" stroke-miterlimit="10" d="M322.33,86.555
	c0-39.522-26.207-71.561-58.533-71.561c-32.327,0-58.534,32.039-58.534,71.561c0,4.752,0.388,9.394,1.111,13.887
	c2.407,27.162,5.413,42.331,11.166,54.991c4.385,9.647,23.019,28.109,44.722,37.759c0,0,35.076-9.349,45.6-35.078
	s13.953-62.182,13.953-62.182l0,0C322.142,92.862,322.33,89.735,322.33,86.555z"/>
<g id="eyes">
	<path fill="none" stroke="#000000" stroke-width="1.3154" stroke-miterlimit="10" d="M292.544,130.179
		c0.412,5.084-4.355,3.63-3.633,0 M292.693,130.076c-0.064,3.701,4.889,4.28,3.576-0.648 M296.396,129.298
		c0.596,3.652,5.574,3.339,3.4-1.277 M299.9,127.873c1.238,3.488,6.08,2.291,3.119-1.863 M303.093,125.845
		c1.842,3.209,6.391,1.168,2.734-2.391 M305.873,123.279c2.385,2.829,6.498,0.008,2.264-2.84 M308.15,120.257
		c2.852,2.357,6.393-1.152,1.719-3.198 M309.851,116.878c3.227,1.812,6.084-2.275,1.119-3.454 M310.919,113.25
		c3.5,1.207,5.582-3.324,0.486-3.598 M311.324,109.49c3.66,0.561,4.898-4.269-0.162-3.628 M311.052,105.717
		c3.701-0.102,4.057-5.074-0.811-3.541 M310.109,102.052c3.625-0.76,3.086-5.716-1.428-3.339 M308.529,98.616
		c3.43-1.395,2.016-6.176-2.002-3.03 M306.359,95.517c3.125-1.985,0.879-6.436-2.51-2.624 M303.669,92.856
		c2.723-2.511-0.281-6.489-2.938-2.134 M300.55,90.717c2.23-2.956-1.438-6.334-3.271-1.574 M297.097,89.17
		c1.668-3.308-2.543-5.976-3.5-0.965 M293.425,88.263c1.049-3.551-3.57-5.425-3.617-0.324 M289.65,88.027
		c0.398-3.681-4.48-4.7-3.617,0.328 M285.892,88.469c-0.264-3.692-5.248-3.824-3.5,0.969 M282.275,89.576
		c-0.92-3.586-5.846-2.826-3.271,1.578 M278.914,91.31c-1.547-3.364-6.258-1.736-2.938,2.137 M275.916,93.617
		c-2.123-3.034-6.467-0.591-2.508,2.626 M273.376,96.421c-2.631-2.606-6.469,0.573-1.998,3.032 M271.38,99.635
		c-3.055-2.095-6.263,1.719-1.426,3.339 M269.99,103.153c-3.38-1.517-5.854,2.809-0.805,3.54 M269.25,106.863
		c-3.598-0.889-5.26,3.81-0.16,3.627 M269.185,110.645c-3.699-0.231-4.496,4.687,0.488,3.597 M269.794,114.378
		c-3.68,0.432-3.587,5.414,1.123,3.451 M271.062,117.943c-3.543,1.082-2.562,5.967,1.721,3.195 M272.945,121.222
		c-3.293,1.697-1.455,6.33,2.266,2.837 M275.382,124.113c-2.936,2.26-0.301,6.488,2.736,2.387 M278.298,126.523
		c-2.486,2.747,0.861,6.438,3.117,1.86 M281.597,128.374c-1.957,3.146,1.996,6.181,3.4,1.273 M285.173,129.605
		c-1.361,3.445,3.068,5.725,3.572,0.646"/>
	<path fill="none" stroke="#000000" stroke-width="1.3154" stroke-miterlimit="10" d="M237.74,127.988
		c0.411,5.084-4.357,3.63-3.634,0 M237.888,127.884c-0.064,3.7,4.888,4.279,3.575-0.648 M241.59,127.107
		c0.597,3.652,5.573,3.338,3.401-1.277 M245.094,125.681c1.24,3.487,6.08,2.29,3.119-1.863 M248.288,123.652
		c1.842,3.211,6.391,1.169,2.735-2.39 M251.068,121.086c2.385,2.829,6.497,0.009,2.263-2.84 M253.344,118.066
		c2.853,2.357,6.395-1.152,1.72-3.199 M255.044,114.687c3.228,1.811,6.086-2.275,1.121-3.455 M256.115,111.058
		c3.5,1.205,5.581-3.324,0.487-3.599 M256.519,107.297c3.66,0.562,4.898-4.268-0.163-3.627 M256.247,103.524
		c3.701-0.102,4.057-5.074-0.809-3.541 M255.304,99.86c3.624-0.76,3.086-5.717-1.428-3.338 M253.723,96.424
		c3.43-1.395,2.016-6.175-2.001-3.029 M251.553,93.325c3.125-1.984,0.88-6.435-2.51-2.624 M248.865,90.664
		c2.722-2.511-0.283-6.489-2.938-2.134 M245.745,88.525c2.23-2.957-1.437-6.334-3.271-1.575 M242.293,86.978
		c1.666-3.307-2.545-5.976-3.5-0.964 M238.62,86.071c1.048-3.551-3.571-5.425-3.617-0.324 M234.845,85.835
		c0.397-3.681-4.481-4.7-3.617,0.328 M231.087,86.278c-0.266-3.693-5.249-3.824-3.5,0.968 M227.471,87.383
		c-0.921-3.586-5.848-2.825-3.272,1.578 M224.108,89.118c-1.547-3.364-6.257-1.736-2.937,2.137 M221.11,91.424
		c-2.124-3.034-6.467-0.591-2.508,2.626 M218.571,94.229c-2.631-2.606-6.469,0.573-1.999,3.031 M216.575,97.443
		c-3.055-2.095-6.263,1.718-1.425,3.339 M215.184,100.961c-3.38-1.517-5.855,2.809-0.805,3.54 M214.444,104.67
		c-3.597-0.888-5.26,3.81-0.161,3.626 M214.378,108.453c-3.698-0.232-4.496,4.688,0.489,3.598 M214.988,112.186
		c-3.68,0.432-3.586,5.415,1.124,3.452 M216.256,115.75c-3.544,1.083-2.562,5.969,1.722,3.195 M218.139,119.031
		c-3.293,1.697-1.455,6.328,2.265,2.836 M220.578,121.921c-2.937,2.258-0.302,6.488,2.734,2.387 M223.494,124.331
		c-2.487,2.747,0.86,6.438,3.116,1.86 M226.792,126.181c-1.957,3.146,1.996,6.182,3.398,1.273 M230.369,127.413
		c-1.363,3.446,3.067,5.726,3.572,0.646"/>
	
		<ellipse fill="#333333" stroke="#000000" stroke-width="1.3154" stroke-miterlimit="10" cx="235.393" cy="106.946" rx="22.361" ry="21.483"/>
	
		<ellipse fill="#333333" stroke="#000000" stroke-width="1.3154" stroke-miterlimit="10" cx="290.199" cy="109.138" rx="22.361" ry="21.484"/>
	<path fill="#FFFFFF" stroke="#000000" stroke-width="1.6738" stroke-miterlimit="10" d="M243.45,106.234
		c0,0-5.389-7.502-8.823-7.502c-10.792,0-10.792,11.417-10.792,11.417S238.352,119.989,243.45,106.234z"/>
	
		<ellipse fill="#1E1D1D" stroke="#000000" stroke-width="1.9351" stroke-miterlimit="10" cx="232.15" cy="106.255" rx="5.866" ry="5.269"/>
	<path fill="#FFFFFF" stroke="#000000" stroke-width="1.6738" stroke-miterlimit="10" d="M280.96,107.25
		c0,0,2.332-7.352,9.807-7.352c8.859,0,9.807,11.266,9.807,11.266S286.058,121.005,280.96,107.25z"/>
	
		<ellipse fill="#1E1D1D" stroke="#000000" stroke-width="1.9351" stroke-miterlimit="10" cx="288.509" cy="106.946" rx="5.865" ry="5.269"/>
</g>
<g id="nose">
	<path fill="none" stroke="#000000" stroke-width="1.6751" stroke-miterlimit="10" d="M253.72,100.986
		c3.977,11.204,8.119,26.125,5.635,33.875"/>
	<path fill="#333333" stroke="#000000" stroke-width="1.0392" stroke-miterlimit="10" d="M258.256,133.47c0,0-4.79,5.37-2.947,6.998
		s6.081,0,6.081,0s2.763,0.796,4.606,0.724C267.839,141.119,265.079,135.945,258.256,133.47z"/>
</g>
<g id="lips">
	<path fill="none" stroke="#000000" stroke-width="1.0436" stroke-miterlimit="10" d="M276.177,155.017
		c-6.901,10.084-23.737,4.823-30.914,0 M247.585,154.03l-0.942,4.769 M250.46,155.524l-1.125,4.754 M253.21,156.399l-0.667,4.784
		 M256.913,157.524l-0.541,4.481 M260.72,158.593v4.056 M264.71,158.593l0.5,4.563 M270.529,156.98l2.307,3.668 M273.085,155.149
		l3.092,4 M267.96,158.024l0.877,3.875"/>
	<path fill="#FFFFFF" stroke="#000000" stroke-width="1.4544" stroke-miterlimit="10" d="M256.041,164.629
		c2.297,1.25,7.047,3.125,12.797,0"/>
</g>
<g id="facepaint">
	<g>
		<g>
			<path d="M224.063,40.648c15.168,3.2,23.61,19.298,35.048,28.303c0.655,0.516,1.934,0.142,2.501-0.353
				c11.383-9.927,21.698-21.475,34.735-29.316c1.676-1.008-0.893-1.298-1.773-0.768c-13.236,7.961-23.709,19.604-35.265,29.684
				c0.834-0.118,1.667-0.235,2.501-0.353c-11.813-9.301-20.259-25.386-35.952-28.697C224.999,38.968,222.447,40.307,224.063,40.648
				L224.063,40.648z"/>
		</g>
	</g>
	<g>
		<g>
			<path d="M260.909,67.511c2.734-17.633-2.163-35.351,0.5-53c0.043-0.288-2.768-0.083-2.897,0.776
				c-2.664,17.649,2.234,35.367-0.5,53C257.967,68.571,260.776,68.371,260.909,67.511L260.909,67.511z"/>
		</g>
	</g>
	<g>
		<g>
			<path d="M261.403,66.195c4.493-15.625,14.866-27.976,22.895-41.808c0.639-1.101-2.248-0.717-2.676,0.022
				c-8.105,13.964-18.571,26.421-23.105,42.192C258.253,67.521,261.144,67.097,261.403,66.195L261.403,66.195z"/>
		</g>
	</g>
	<g>
		<g>
			<path d="M239.012,28.787c2.022,15.203,15.84,24.65,21,38.5c0.442,1.188,3.32,0.357,2.897-0.776
				c-5.157-13.842-18.984-23.347-21-38.5C241.752,26.827,238.844,27.525,239.012,28.787L239.012,28.787z"/>
		</g>
	</g>
	<g>
		<g>
			<path d="M250.583,61.223c2.882,0.435,5.077-0.196,7.593-1.605c3.386-1.896,7.479,1.27,10.907,2.105
				c0.982,0.239,3.428-1.241,1.754-1.648c-2.975-0.725-5.826-2.653-8.881-2.993c-3.566-0.397-6.115,3.022-9.619,2.493
				C251.362,59.428,248.913,60.971,250.583,61.223L250.583,61.223z"/>
		</g>
	</g>
	<g>
		<g>
			<path d="M245.291,52.358c2.853-2.667,7.119-1.241,10.466-2.398c2.407-0.832,3.843-2.11,5.142-4.28
				c-0.962,0.202-1.925,0.405-2.887,0.607c1.789,4.991,6.101,4.883,10.315,2.919c-0.772,0.027-1.543,0.054-2.315,0.081
				c1.708,4.148,5.898,5.616,10.035,6.298c0.758,0.125,3.387-1.116,1.828-1.373c-3.738-0.617-7.429-1.969-8.965-5.702
				c-0.305-0.738-1.867-0.128-2.315,0.081c-3.306,0.419-5.201-0.608-5.685-3.081c-0.34-0.95-2.557,0.055-2.887,0.607
				c-2.628,4.39-6.556,2.497-10.39,3.557c-2.014,0.557-3.476,1.338-5.002,2.765C241.879,53.143,244.713,52.897,245.291,52.358
				L245.291,52.358z"/>
		</g>
	</g>
	<g>
		<g>
			<path d="M236.522,46.994c4.879,0.027,8.021-2.38,8.387-7.483c-0.938,0.294-1.875,0.588-2.813,0.883
				c9.018,3.637,13.595-0.793,19.177-7.601c-0.92,0.165-1.841,0.33-2.761,0.495c1.104,5.423,7.759,7.177,12.566,7.267
				c0.629,0.012,1.463,2.567,1.857,3.199c0.854,1.371,2.357,2.161,3.766,2.809c2.488,1.145,5.467,1.088,8.133,0.924
				c0.764-0.047,3.168-1.292,1.252-1.174c-5.338,0.33-10.301-1.135-11.676-6.801c-0.066-0.272-0.65-0.21-0.822-0.199
				c-4.631,0.295-11.13-1.651-12.178-6.801c-0.142-0.697-2.489,0.163-2.761,0.495c-3.824,4.664-6.651,9.291-13.823,6.399
				c-0.606-0.245-2.751,0.016-2.813,0.883c-0.139,1.937-0.65,5.534-3.613,5.517C237.788,45.801,235.093,46.986,236.522,46.994
				L236.522,46.994z"/>
		</g>
	</g>
	<g>
		<g>
			<path d="M229.331,41.455c6.963-0.501,9.156-6.929,15.236-9.032c2.766-0.957,5.779-0.895,8.582-1.745
				c2.572-0.78,4.604-2.562,6.524-4.355c-0.776,0.137-1.553,0.273-2.329,0.41c6.732,3.615,15.129,3.422,21.465,7.623
				c4.848,3.214,8.025,7.766,14.15,8.593c1.418,0.192,2.957-1.835,1.004-2.099c-6.221-0.84-9.686-6.472-14.869-9.348
				c-6.004-3.33-13.392-3.148-19.516-6.437c-0.806-0.433-1.686-0.191-2.329,0.41c-4.698,4.389-9.643,3.038-14.929,5.575
				c-4.646,2.229-7.284,7.901-12.729,8.293C227.962,39.46,227.353,41.598,229.331,41.455L229.331,41.455z"/>
		</g>
	</g>
	<g>
		<g>
			<path d="M236.012,48.287c0.374,2.094-0.021,3.942-1.268,5.671c-1.083,1.504,1.642,1.978,2.433,0.881
				c1.62-2.249,2.222-4.587,1.732-7.329C238.665,46.143,235.761,46.886,236.012,48.287L236.012,48.287z"/>
		</g>
	</g>
	<g>
		<g>
			<path d="M283.097,48.904c1.701,1.96,4.094,3.632,6.678,4.078c0.682,0.118,1.416-0.052,2.029-0.354
				c0.213-0.104,1.025-0.694,0.34-0.812c-2.461-0.425-4.703-2.056-6.322-3.922C285.324,47.319,282.599,48.329,283.097,48.904
				L283.097,48.904z"/>
		</g>
	</g>
	<g>
		<g>
			<path d="M275.105,54.929c1.578,1.994,3.799,2.64,6.26,2.671c0.627,0.008,1.504-0.246,1.926-0.741
				c0.447-0.527-0.385-0.658-0.734-0.662c-1.951-0.025-3.529-0.797-4.74-2.329C277.294,53.211,274.517,54.186,275.105,54.929
				L275.105,54.929z"/>
		</g>
	</g>
	<g>
		<g>
			<path d="M241.512,52.787c0.403,1.824-0.063,3.488-0.51,5.255c-0.318,1.256,2.629,0.853,2.918-0.286
				c0.491-1.938,0.931-3.75,0.49-5.745C244.146,50.818,241.242,51.568,241.512,52.787L241.512,52.787z"/>
		</g>
	</g>
	<g>
		<g>
			<path d="M208.95,82.187c3.641-1.212,7.273-2.465,10.708-4.191c2.173-1.093,5.373-2.75,5.625-5.485
				c0.03-0.321-2.821-0.051-2.897,0.776c-0.263,2.839-4.218,4.375-6.41,5.37c-2.59,1.175-5.311,2.057-8.006,2.954
				C206.001,82.267,207.879,82.543,208.95,82.187L208.95,82.187z"/>
		</g>
	</g>
	<g>
		<g>
			<path d="M208.399,81.681c0.469-3.042,0.509-6.099,0.51-9.17c0-0.694-2.897-0.208-2.897,0.776c-0.001,2.958-0.039,5.9-0.49,8.83
				C205.377,83.054,208.271,82.516,208.399,81.681L208.399,81.681z"/>
		</g>
	</g>
	<g>
		<g>
			<path d="M299.125,73.287c1.043,3.132,5.67,4.208,8.441,5.051c4.014,1.222,8.242,1.754,12.205,3.13
				c0.367,0.128,3.006-0.481,2.639-0.957c-3.014-3.894-3.859-8.623-2.52-13.363c0.178-0.629-2.65-0.24-2.859,0.502
				c-1.357,4.803-0.602,9.654,2.48,13.637c0.879-0.319,1.758-0.638,2.637-0.957c-3.371-1.171-6.969-1.73-10.42-2.63
				c-2.949-0.77-8.584-1.817-9.705-5.189C301.791,71.812,298.917,72.666,299.125,73.287L299.125,73.287z"/>
		</g>
	</g>
	<g>
		<g>
			<path d="M204.512,83.287c0.097,8.976,1.509,17.763,2.952,26.601c0.939,5.749,1.669,11.35,3.435,16.917
				c2.63,8.295,7.968,19.354,18.334,17.784c1.295-0.196,2.476-1.687,0.456-1.381c-10.264,1.554-15.003-13.507-17.02-21.034
				c-1.295-4.833-1.783-9.854-2.588-14.78c-1.35-8.266-2.582-16.491-2.672-24.883C207.401,81.776,204.501,82.284,204.512,83.287
				L204.512,83.287z"/>
		</g>
	</g>
	<g>
		<g>
			<path d="M319.654,81.121c0.186-0.062,0.371-0.124,0.557-0.186c-0.512-0.052-1.025-0.104-1.539-0.155
				c0.777,1.208-0.16,6.534-0.16,8.137c0,3.914-0.266,7.682-0.791,11.564c-0.824,6.081-1.492,12.167-2.752,18.179
				c-1.977,9.442-5.381,24.059-14.967,28.646c-1.816,0.87-0.143,1.801,1.145,1.186c9.812-4.696,13.51-17.206,15.969-26.932
				c1.777-7.039,2.576-14.258,3.502-21.444c0.527-4.091,0.793-7.845,0.793-11.976c0-2.117,1.207-6.546-0.047-8.493
				c-0.256-0.398-1.189-0.271-1.539-0.155c-0.186,0.062-0.371,0.124-0.557,0.185C317.58,80.237,317.929,81.692,319.654,81.121
				L319.654,81.121z"/>
		</g>
	</g>
</g>
<path id="front_hair" fill="#4C2E1A" stroke="#000000" stroke-width="1.3154" stroke-miterlimit="10" d="M276.958,22.868
	c-9.426-2.143-10.5,5-25.5,4s-4.889-3-13.444,4.5s-14.386,32.001-20.529,43.059c-2.5,4.5-15.396,19.713-32.823,18.537
	c5.798-18.815-3.202-64.565,33.296-68.596c12.412-1.371,8.982-22.671,35.76-24c25.517-1.266,40.681-0.196,63.24,18.5
	c0,0,22.689,12.399,17.703,23.031s5.027,48.5,10.527,48.5s-32.867,13.403-49.729-26.5C285.845,41.149,287.958,25.368,276.958,22.868
	z"/>
<linearGradient id="tie_1_" gradientUnits="userSpaceOnUse" x1="235.812" y1="305.3286" x2="293.4603" y2="295.1637">
	<stop  offset="0" style="stop-color:#D4EAF9"/>
	<stop  offset="0.0051" style="stop-color:#D0E5F5"/>
	<stop  offset="0.1515" style="stop-color:#869AB9"/>
	<stop  offset="0.2992" style="stop-color:#56678C"/>
	<stop  offset="0.4453" style="stop-color:#36456C"/>
	<stop  offset="0.5895" style="stop-color:#1E2E56"/>
	<stop  offset="0.7312" style="stop-color:#0B1D46"/>
	<stop  offset="0.8694" style="stop-color:#00103C"/>
	<stop  offset="1" style="stop-color:#000A39"/>
</linearGradient>
<path id="tie" fill="url(#tie_1_)" d="M253.08,225.552c0,0-12.75-6.25,2.892,15.655c1.748,2.447,1.415,9.345,1.415,9.345
	s-13.698,20.874-12.557,50.25c0.957,24.613-5.896,47.943,3.312,62.647c5.533,8.836,7.899,33.616,36.299-6.95
	c8.16-11.654,3.238-27.415,3.992-37.447c-0.568-60.5-9.588-67.845-10.672-69.845s4.584-11.279,0-12.39l3.1-13.11l-6.176-2.795
	c0,0-4.568,1.737-6.48,7.14c0,0-2.88,2.62-5.63,3.62C259.075,229.422,253.08,225.552,253.08,225.552z"/>
<path id="mini_folds" fill="#F4F4F4" stroke="#000000" stroke-width="1.0125" stroke-miterlimit="10" d="M254.887,211.397
	l4.146,6.002l3.414,13.756l9.014-13.756l22-13.59c0,0,15.133,14.59,21.066,13.59c0,0-14.59,10.482-24.328,14.241
	s-3.238,12.653-10.988-0.794s-16.636,0.826-16.636,0.826l-4.82-7.568c0,0-9.294,13.295-17.294,12.295l-6.818-12.295L254.887,211.397
	z"/>
<g id="folds">
	<path fill="#2E3C49" stroke="#000000" stroke-width="1.0125" stroke-miterlimit="10" d="M223.835,236.399
		c-0.39-5.01-9.772,2.667-18.573,6s-12.801,32.172-16.135,34.753s12,3.914,12,3.914s-6.667,0.667-15.333-1.333
		c0,0,33.484,73.865,70.247,98.532C256.041,378.265,230.131,317.364,223.835,236.399z"/>
	<path fill="#2E3C49" stroke="#000000" stroke-width="0.956" stroke-miterlimit="10" d="M324.894,224.748
		c0.35-5.01,18.406,7.849,31.564,10c12.508,3.27,5.531,43.07,8.504,45.651s-19.238-1.359-19.238-1.359s10.738,7.515,25.404,6.182
		c0,0-51.727,71.845-116.242,95.844C254.887,381.065,319.283,305.712,324.894,224.748z"/>
</g>
<path id="back_right_arm" fill="#2E3C49" stroke="#000000" stroke-width="0.9455" stroke-miterlimit="10" d="M368.46,311.065
	c-8.758,22.386,63.84,92.008,72.207,105.39c8.367,13.383,24.463,21.618,27.348,19.583c2.887-2.032,34.311-5.154-23.762-90.211
	c0,0-29.873-91.08-44.461-94.762C377.414,245.417,382.806,274.392,368.46,311.065z"/>
<g id="sparkles">
	<ellipse fill="#BDE6F2" cx="206.126" cy="248.379" rx="2" ry="1.979"/>
	<ellipse fill="#BDE6F2" cx="216.626" cy="243.297" rx="1.5" ry="1.437"/>
	<circle fill="#BDE6F2" cx="212.96" cy="255.234" r="2.167"/>
	<ellipse fill="#BDE6F2" cx="199.96" cy="259.067" rx="1.833" ry="1.667"/>
	<ellipse fill="#BDE6F2" cx="208.46" cy="264.734" rx="2.333" ry="2"/>
	<ellipse fill="#BDE6F2" cx="198.376" cy="275.901" rx="1.583" ry="2.166"/>
	<ellipse fill="#BDE6F2" cx="218.356" cy="271.401" rx="1.729" ry="2.333"/>
	<ellipse fill="#BDE6F2" cx="210.709" cy="282.401" rx="2.25" ry="2"/>
	<ellipse fill="#BDE6F2" cx="202.96" cy="293.234" rx="1.167" ry="1.833"/>
	<ellipse fill="#BDE6F2" cx="221.273" cy="289.693" rx="1.187" ry="1.708"/>
	<ellipse fill="#BDE6F2" cx="216.626" cy="301.158" rx="1.5" ry="1.174"/>
	<ellipse fill="#BDE6F2" cx="214.043" cy="311.901" rx="1.083" ry="1.5"/>
	<ellipse fill="#BDE6F2" cx="228.803" cy="308.454" rx="1.676" ry="1.947"/>
	<ellipse fill="#BDE6F2" cx="222.866" cy="318.901" rx="1.594" ry="0.833"/>
	<ellipse fill="#BDE6F2" cx="222.866" cy="331.901" rx="1.594" ry="1.166"/>
	<ellipse fill="#BDE6F2" cx="234.551" cy="325.067" rx="0.909" ry="1"/>
	<ellipse fill="#BDE6F2" cx="232.061" cy="336.067" rx="1.582" ry="1"/>
	<ellipse fill="#BDE6F2" cx="234.551" cy="348.567" rx="0.909" ry="0.834"/>
	<ellipse fill="#BDE6F2" cx="242.365" cy="357.254" rx="0.905" ry="0.854"/>
	<ellipse fill="#BDE6F2" cx="203.543" cy="303.791" rx="0.583" ry="1.276"/>
	<ellipse fill="#BDE6F2" cx="220.679" cy="261.734" rx="0.594" ry="1"/>
</g>
<g id="sparkles_1_">
	
		<ellipse transform="matrix(-0.9634 -0.2682 0.2682 -0.9634 614.5948 593.4303)" fill="#BDE6F2" cx="347.833" cy="254.733" rx="2.336" ry="2.277"/>
	
		<ellipse transform="matrix(-0.9634 -0.2682 0.2682 -0.9634 596.8972 573.1475)" fill="#BDE6F2" cx="337.589" cy="245.811" rx="1.752" ry="1.653"/>
	
		<ellipse transform="matrix(-0.9634 -0.2681 0.2681 -0.9634 593.942 601.4792)" fill="#BDE6F2" cx="338.031" cy="260.194" rx="2.53" ry="2.495"/>
	
		<ellipse transform="matrix(-0.9634 -0.2682 0.2682 -0.9634 618.0525 621.4604)" fill="#BDE6F2" cx="351.474" cy="268.515" rx="2.141" ry="1.919"/>
	
		<ellipse transform="matrix(-0.9634 -0.2681 0.2681 -0.9634 594.9149 625.5058)" fill="#BDE6F2" cx="340.162" cy="272.137" rx="2.725" ry="2.302"/>
	
		<ellipse transform="matrix(-0.9634 -0.2681 0.2681 -0.9634 606.2699 658.1261)" fill="#BDE6F2" cx="348.06" cy="287.678" rx="1.849" ry="2.492"/>
	
		<ellipse transform="matrix(-0.9634 -0.268 0.268 -0.9634 567.8821 630.3901)" fill="#BDE6F2" cx="326.971" cy="276.432" rx="2.02" ry="2.686"/>
	
		<ellipse transform="matrix(-0.9634 -0.2681 0.2681 -0.9634 574.1895 660.4417)" fill="#BDE6F2" cx="332.18" cy="291.023" rx="2.628" ry="2.303"/>
	
		<ellipse transform="matrix(-0.9634 -0.2681 0.2681 -0.9634 580.8652 690.2378)" fill="#BDE6F2" cx="337.556" cy="305.462" rx="1.362" ry="2.111"/>
	
		<ellipse transform="matrix(-0.9634 -0.268 0.268 -0.9634 545.1908 666.0118)" fill="#BDE6F2" cx="318.044" cy="295.802" rx="1.387" ry="1.967"/>
	
		<ellipse transform="matrix(-0.9634 -0.2682 0.2682 -0.9634 544.6349 694.3297)" fill="#BDE6F2" cx="319.734" cy="309.971" rx="1.752" ry="1.351"/>
	
		<ellipse transform="matrix(-0.9634 -0.2682 0.2682 -0.9634 540.3894 719.2149)" fill="#BDE6F2" cx="319.326" cy="322.692" rx="1.265" ry="1.727"/>
	
		<ellipse transform="matrix(-0.9634 -0.2682 0.2682 -0.9634 512.173 698.4489)" fill="#BDE6F2" cx="303.784" cy="314.248" rx="1.957" ry="2.242"/>
	
		<ellipse transform="matrix(-0.9633 -0.2683 0.2683 -0.9633 515.3068 725.7941)" fill="#BDE6F2" cx="307.239" cy="327.692" rx="1.86" ry="0.959"/>
	
		<ellipse transform="matrix(-0.9633 -0.2683 0.2683 -0.9633 503.5631 753.0215)" fill="#BDE6F2" cx="303.227" cy="342.108" rx="1.86" ry="1.341"/>
	
		<ellipse transform="matrix(-0.9635 -0.2678 0.2678 -0.9635 485.1057 727.9037)" fill="#BDE6F2" cx="292.19" cy="330.872" rx="1.061" ry="1.149"/>
	
		<ellipse transform="matrix(-0.9634 -0.2682 0.2682 -0.9634 480.2978 753.3023)" fill="#BDE6F2" cx="291.598" cy="343.848" rx="1.848" ry="1.151"/>
	
		<ellipse transform="matrix(-0.9632 -0.2689 0.2689 -0.9632 463.4104 777.3276)" fill="#BDE6F2" cx="284.937" cy="356.929" rx="1.061" ry="0.96"/>
	
		<ellipse transform="matrix(-0.9635 -0.2679 0.2679 -0.9635 439.3994 788.1825)" fill="#BDE6F2" cx="273.467" cy="364.117" rx="1.057" ry="0.983"/>
	
		<ellipse transform="matrix(-0.9634 -0.2681 0.2681 -0.9634 570.0909 711.8155)" fill="#BDE6F2" cx="333.642" cy="316.987" rx="0.681" ry="1.469"/>
	
		<ellipse transform="matrix(-0.9633 -0.2683 0.2683 -0.9633 571.5861 608.0802)" fill="#BDE6F2" cx="327.341" cy="264.985" rx="0.693" ry="1.152"/>
	<ellipse fill="#BDE6F2" cx="346.667" cy="239.151" rx="1.166" ry="1.134"/>
	<ellipse fill="#BDE6F2" cx="358.293" cy="245.81" rx="1.167" ry="1.662"/>
	<ellipse fill="#BDE6F2" cx="331.607" cy="229.685" rx="2.033" ry="1.717"/>
	<ellipse fill="#BDE6F2" cx="330.59" cy="239.013" rx="1.017" ry="0.996"/>
</g>
<g id="guitar">
	<path fill-rule="evenodd" clip-rule="evenodd" fill="#664031" d="M543.599,188.732c4.545-2.509,9.09-5.018,13.635-7.527
		c1.871-1.68,3.932-3.021,6.432-3.569c7.334-4.086,14.672-8.16,21.984-12.284c0.641-0.362,1.734,0.386,1.967-0.843
		c1.402,0.404,2.805,0.81,4.207,1.214c1.373,1.393,2.035,3.229,3.02,4.863c3.613,6.911,7.494,13.671,11.309,20.469
		c0.67,1.753,1.959,3.208,2.447,5.05c-0.365,1.261-0.729,2.524-1.094,3.788c-4.074,2.771-8.49,4.942-12.787,7.325
		c-3.746,2.075-7.477,4.174-11.211,6.261c-1.4,1.892-3.684,2.32-5.584,3.385c-3.186,0.952-5.826,2.968-8.707,4.509
		c-2.203,1.18-4.602,2.074-6.461,3.844c-1.781,1.312-3.502,2.746-5.846,2.929c-5.119,2.771-10.238,5.539-15.352,8.324
		c-0.225,0.123-0.355,0.42-0.531,0.635c-1.26,1.583-3.258,1.878-4.893,2.809c-2.199,0.623-3.986,2.08-6.031,3.006
		c-0.979,0.443-1.916,1.411-3.172,0.682c-0.023-0.069-0.078-0.192-0.064-0.199c2.133-1.289,0.439-2.406-0.146-3.586
		c-3.02-6.063-6.656-11.783-9.83-17.767c-2.273-4.295-4.664-8.539-7.064-12.768c-0.215-0.381-0.441-0.757-0.455-1.214
		c1.217-1.696,3.275-2.089,4.914-3.127c0.318-0.2,0.543-0.416,0.76-0.688c0.266-0.155,0.57-0.16,0.857-0.229
		c1.844-0.548,3.35-1.732,4.984-2.67c5.424-3.023,10.85-6.048,16.271-9.073C538.828,190.231,541.085,189.25,543.599,188.732z"/>
	<path fill-rule="evenodd" clip-rule="evenodd" fill="#FDFEFD" d="M594.583,170.706c-1.127-1.547-2.064-3.196-2.76-4.982
		c7.439,2.146,14.871,4.316,22.322,6.411c1.057,0.296,1.23,0.612,0.92,1.664c-2.199,7.422-4.32,14.869-6.467,22.308
		c-1.332-1.475-1.982-3.316-2.754-5.093c-0.17-0.899,0.512-1.253,1.061-1.73c5.016-4.339,5.207-11.201,0.695-15.973
		c-3.025-3.201-6.52-3.721-10.533-2.743C596.265,170.761,595.447,171.359,594.583,170.706z"/>
	<path fill-rule="evenodd" clip-rule="evenodd" fill="#E5B784" d="M322.816,415.191c0.824-5.068,1.033-10.248,0.586-15.427
		c-0.209-2.409,0.031-4.929-0.285-7.252c-0.436-3.186-0.934-6.398-1.453-9.591c-0.867-5.33-2.26-10.531-3.428-15.791
		c-0.779-3.521-2.152-6.856-2.934-10.362c-0.785-0.908-1.535-0.552-2.264,0.077c-0.773,0.669-1.609,1.249-2.488,1.77
		c-7.701,4.55-15.697,8.569-23.256,13.402c-5.982,3.824-12.217,7.308-18.542,10.597c-2.223,1.155-4.359,2.625-6.019,4.611
		c-0.078,1.003,0.477,1.868,0.622,2.822c1.45,2.871,0.505,5.112-1.681,7.212c-2.304,2.215-3.768,4.926-4.209,8.181
		c-0.323,2.389,0.417,4.628,0.636,6.935c0.202,2.121-0.361,3.586-2.369,4.65c-2.135,1.128-4.287,2.176-6.564,2.949
		c-1.379,0.47-2.325,1.283-3.156,2.503c-1.732,2.547-2.408,5.624-4.288,8.097c-0.908,1.192-2.012,2.148-3.41,2.058
		c-2.016-0.128-4.088,0.236-6.055-0.477c-3.344-1.21-6.098-0.104-8.639,2.082c-1.489,1.283-3.086,2.448-4.888,3.265
		c-1.004,0.454-2.12,0.833-3.137,0.12c-1.654-1.168-3.434-2.119-4.925-3.582c-1.911-1.875-4.088-3.419-7.152-2.868
		c-2.059,0.371-4.165,0.531-6.284,0.624c-2.873,0.123-4.24-1.423-5.329-3.625c-0.904-1.832-1.43-3.815-2.291-5.674
		c-0.931-2.008-2.423-3.198-4.452-3.85c-1.113-0.201-1.96,0.418-2.853,0.907c-10.363,5.703-20.735,11.384-31.081,17.113
		c-8.492,4.703-17.064,9.26-25.445,14.159c-0.628,0.767-0.339,1.519,0.067,2.241c2.728,4.831,5.222,9.789,7.981,14.602
		c5.297,9.24,10.36,18.608,15.53,27.922c0.627,1.128,0.358,1.549-0.725,2.158c-2.468,1.382-5.177,2.387-7.279,4.381
		c-3.502,2.099-7.103,4.021-10.694,5.966c-1.398,0.757-2.013,0.026-2.562-1.05c-1.191-2.343-2.547-4.595-3.794-6.905
		c-2.941-5.449-6.146-10.754-9.065-16.206c-3.084-5.765-6.261-11.482-9.417-17.202c-3.934-7.126-7.829-14.276-11.767-21.405
		c-6.918-12.517-13.775-25.068-20.708-37.577c-1.726-3.112-1.732-3.109,1.347-4.767c0.259-0.138,0.485-0.327,0.74-0.467
		c2.729-1.505,5.295-3.343,8.369-4.152c2.606-1.465,5.207-2.937,7.837-4.36c0.913-0.491,1.53-0.506,2.1,0.585
		c3.56,6.816,7.43,13.463,11.052,20.248c3.495,6.543,7.083,13.045,10.763,19.49c0.857,1.497,1.129,3.55,3.104,4.277
		c3.167-1.276,6.051-3.109,9.005-4.771c4.358-2.448,8.72-4.909,13.107-7.301c5.659-3.085,11.32-6.18,16.964-9.294
		c6.167-3.397,12.397-6.684,18.521-10.157c0.644-0.366,1.27-0.723,1.587-1.436c0.891-2.102-0.012-3.928-0.841-5.796
		c-1.218-2.743-3.811-4.54-4.97-7.313c-1.166-2.141-0.824-3.323,1.532-5.349c1.635-1.384,2.733-3.2,3.957-4.919
		c0.465-0.651,0.997-1.256,1.021-2.126c0.077-2.623,0.083-5.243-0.673-7.797c-0.818-3.188-0.575-4.041,1.513-5.371
		c2.318-0.944,4.377-2.466,6.89-2.999c0.676-0.145,1.282-0.642,1.72-1.244c1.096-1.191,2.252-2.332,3.21-3.646
		c0.548-1.592,1.687-2.921,2.257-4.447c1.019-2.739,2.899-3.584,5.593-3.527c1.542,0.031,3.023,0.262,4.536,0.523
		c2.957,0.511,5.894,0.759,8.315-1.78c1.353-1.417,3.128-2.374,4.835-3.365c1.623-0.941,3.167-0.937,4.666,0.283
		c0.959,0.779,2.002,1.438,2.902,2.311c1.316,1.275,2.907,2.076,4.679,2.696c3.067,1.073,6.048,0.404,9.075,0.08
		c2.915-0.313,4.729,0.773,5.866,3.442c0.198,0.465,0.229,1.006,0.641,1.368c0.914,0.417,1.707-0.085,2.515-0.355
		c4.723-1.585,8.899-4.282,13.25-6.614c3.84-2.058,7.628-4.24,11.597-6.011c2.992-1.336,5.871-2.888,8.77-4.38
		c5.934-3.048,11.725-6.383,17.693-9.38c0.668-0.335,1.33-0.653,1.164-1.587c-0.27-0.24-0.596-0.439-0.799-0.725
		c-4.092-5.764-9.236-10.614-14.293-15.438c-3.988-3.802-8.244-7.415-12.756-10.709c-5.711-4.167-11.469-8.351-17.99-10.932
		c-6.945-2.747-14.122-5.103-21.913-4.637c-7.877,0.466-14.789,3.233-21.243,7.53c-7.351,4.892-13.623,10.858-19.129,17.804
		c-3.848,4.853-7.132,10.033-10.314,15.277c-2.517,4.145-5.362,8.051-9.098,10.95c-5.714,4.435-12.447,6.743-19.711,7.54
		c-3.522,0.386-7.042,0.656-10.569,0.745c-3.147,0.078-6.353,0.152-9.436-0.358c-2.497-0.411-5.028-0.578-7.499-0.766
		c-4.941-0.377-9.868-0.935-14.767-1.543c-5.792-0.717-11.533-1.053-17.35-0.631c-8.642,0.626-16.946,2.766-25.154,5.365
		c-6.454,2.047-12.596,4.845-18.639,7.873c-3.282,1.644-6.624,3.188-9.55,5.454c-2.194,1.487-4.496,2.84-6.558,4.491
		c-3.697,2.957-7.336,5.971-10.554,9.508c-2.295,2.522-4.441,5.136-6.595,7.768c-1.876,2.296-3.35,4.779-4.875,7.254
		c-1.461,2.372-2.986,4.737-3.682,7.503c-0.109,0.435-0.506,0.454-0.884,0.433c-1.822,6.314-3.646,12.632-5.467,18.944
		c0.345,2.453-0.788,4.72-0.73,7.244c0.087,3.889-0.069,7.797,0.085,11.721c0.172,4.38,0.675,8.719,1.513,12.964
		c1.182,5.985,2.489,11.976,4.585,17.747c1.314,3.624,2.481,7.311,3.985,10.849c2.25,5.294,4.922,10.412,7.292,15.647
		c3.933,8.688,9.086,16.622,14.337,24.486c4.282,6.41,8.884,12.604,14.221,18.261c5.4,5.728,10.812,11.371,17.211,16.008
		c4.954,3.594,10.025,6.948,15.706,9.309c0.992,0.408,2.134,0.543,2.914,1.406c5.894,1.701,11.79,3.401,17.684,5.103
		c2.77-1.236,5.504,0.28,8.247,0.34c4.106,0.088,8.174-0.05,12.235-0.389c4.107-0.347,8.181-1.018,12.128-2.348
		c3.793-1.278,7.763-2.1,11.444-3.633c5.512-2.291,11.031-4.678,16.103-7.856c4.613-2.888,9.202-5.89,13.426-9.304
		c4.967-4.015,9.786-8.26,14.05-13.058c2.508-2.824,5.218-5.494,7.064-8.847c1.818-1.303,2.764-3.395,3.581-5.217
		c2.108-4.694,4.537-9.244,6.693-13.915c1.03-2.234,2.019-4.582,3.279-6.774c1.932-3.363,3.68-6.854,5.445-10.31
		c2.002-3.923,4.375-7.633,6.967-11.084c2.509-3.343,5.317-6.58,8.595-9.338c6.806-5.726,14.714-8.419,23.453-8.188
		c4.407,0.118,8.851,0.146,13.225,0.099c5.217-0.052,10.5-0.909,15.686-2.035c4.896-1.064,9.605-2.591,14.227-4.496
		c5.037-2.074,9.771-4.621,13.832-8.276c3.465-3.119,6.195-6.753,8.371-10.943C320.384,426.816,321.861,421.056,322.816,415.191z
		 M184.804,513.774c0.862-0.695,1.448-1.568,1.983-2.544c0.817-1.487,1.842-1.64,3.252-0.7c2.094,1.396,2.066,1.765,0.436,3.66
		c-1.127,1.31-2.679,2.34-3.194,4.104c-0.134,0.049-0.267,0.099-0.397,0.157c-0.584-0.76-1.507-1.138-2.179-1.823
		C183.604,515.507,183.678,514.683,184.804,513.774z M39.042,381.434c-1.086,1.212-2.069,1.039-3.518-0.293
		c-1.225-1.128-1.086-2.087,0.127-3.048c1.866-1.479,3.523-3.331,6.088-3.56c-0.004,0.013-0.006,0.018-0.01,0.029
		c-0.484,0.298-0.496,0.787-0.158,1.077c1.321,1.133,1.529,2.278,0.289,3.601c-0.132,0.143-0.125,0.361-0.074,0.575
		C40.46,379.566,39.817,380.571,39.042,381.434z"/>
	<path fill-rule="evenodd" clip-rule="evenodd" fill="#F6C53A" d="M315.302,356.768c-0.43-0.014-1.025-0.221-1.271-0.013
		c-3.602,3.024-7.934,4.831-11.934,7.179c-2.916,1.709-5.965,3.196-8.842,4.966c-3.432,2.116-6.762,4.385-10.301,6.334
		c-4.539,2.495-9.045,5.052-13.504,7.688c-2.264,1.337-4.397,2.896-6.59,4.353c-0.48,0.445-1.277,0.29-1.681,0.888
		c-3.042,2.78-6.853,4.336-10.319,6.438c-2.983,1.81-6.126,3.358-9.11,5.18c-4.848,3.626-10.361,6.115-15.56,9.139
		c-0.927,0.539-1.954,0.949-2.674-0.226c-1.696-2.763-3.267-5.604-4.808-8.461c0.152-1.111,1.057-1.484,1.89-1.944
		c10.158-5.587,20.267-11.266,30.449-16.807c9.475-5.159,18.896-10.415,28.346-15.621c8.238-4.537,16.461-9.104,24.691-13.654
		s16.477-9.071,24.717-13.604c9.451-5.202,18.848-10.512,28.316-15.689c7.354-4.026,14.695-8.075,22.037-12.126
		c6.893-3.803,13.775-7.625,20.67-11.429c6.957-3.837,13.908-7.683,20.875-11.506c6.9-3.79,13.773-7.626,20.672-11.421
		c8.494-4.677,16.943-9.438,25.449-14.094c7.162-3.921,14.303-7.876,21.455-11.818c6.957-3.835,13.883-7.731,20.883-11.492
		c3.266-1.752,6.338-3.881,9.857-5.154c1.623,1.01,1.729,1.214,1.188,2.298c-3.02,1.005-5.525,2.975-8.277,4.472
		c-4.393,2.387-8.617,5.074-12.959,7.554c-3.02,1.724-5.936,3.614-8.998,5.277c-4.998,2.715-9.832,5.739-14.732,8.63
		c-9.594,5.657-19.17,11.345-28.789,16.955c-6.143,3.583-12.49,6.834-18.49,10.638c-4.195,2.656-8.439,5.241-12.721,7.731
		c-4.123,2.394-8.34,4.636-12.41,7.131c-8.189,5.017-16.715,9.474-24.885,14.505c-6.402,3.943-13.02,7.485-19.438,11.376
		c-5.541,3.358-11.084,6.704-16.717,9.915c-5.682,3.239-11.293,6.597-16.928,9.915c-2.809,1.65-5.586,3.346-8.408,4.971
		C315.808,355.609,315.63,356.218,315.302,356.768z"/>
	<path fill-rule="evenodd" clip-rule="evenodd" fill="#513227" d="M520.205,236.168c-0.141-0.951-0.758-1.555-1.502-2.065
		c-0.801-0.146-0.871-0.803-0.998-1.42c-0.316-1.277-1.252-2.201-1.875-3.305c-0.625-0.901-0.949-1.959-1.525-2.884
		c-0.535-1.172-1-2.383-1.887-3.359c-0.365-0.469-0.787-0.906-0.91-1.521c-0.021-0.861-0.697-1.531-0.717-2.395
		c-1.117-2.191-2.795-4.129-3.129-6.674c-0.232-1.771-0.252-3.521,1.709-4.478c2.07,1.733,2.65,4.396,4.039,6.56
		c1.969,3.063,3.498,6.412,5.174,9.658c3.178,6.153,6.326,12.32,9.762,18.353c0.066,0.546-1.18-0.008-1.414,0.963
		c-2.74-0.154-3.863-2.218-4.998-4.254C521.343,238.292,520.779,237.226,520.205,236.168z"/>
	<path fill-rule="evenodd" clip-rule="evenodd" fill="#E8BB3D" d="M564.917,229.177c0.877,0.146,1.449-0.561,2.186-0.816
		c1.637-0.569,3.035-0.379,4.051,1.052c1.08,1.522,0.672,3.03-0.748,3.993c-3.408,2.318-6.834,4.643-10.727,6.135
		c-1.643,0.63-2.852,0.301-3.934-1.181c-1.074-1.476-0.152-2.708,0.404-3.804c0.383-0.766,1.16-1.637,2.213-1.904
		C560.371,231.162,562.785,230.433,564.917,229.177z"/>
	<path fill-rule="evenodd" clip-rule="evenodd" fill="#E6BA3B" d="M544.833,240.281c1.414-0.152,2.834-1.188,4.236,0.059
		c0.584,0.524,1.865,0.473,1.506,1.764c-0.34,1.219-0.221,2.698-1.586,3.416c-3.145,1.646-6.023,3.754-9.26,5.251
		c-1.123,0.519-2.42,0.845-3.406,0.757c-1.176-0.104-1.916-1.688-2.287-2.842c-0.297-0.929,0.021-2.047,1.139-2.787
		c0.688-0.455,1.639-0.659,2.045-1.52c1.793-1.232,3.582-2.468,5.738-3.011C543.681,241.185,544.171,240.575,544.833,240.281z"/>
	<path fill-rule="evenodd" clip-rule="evenodd" fill="#E9BD3D" d="M587.513,216.958c3.502-1.064,4.268-0.75,5.248,1.863
		c0.365,0.972,0.219,1.579-0.533,2.244c-3.404,2.999-7.436,4.989-11.445,6.941c-1.545,0.75-3.17-0.101-3.908-1.786
		c-0.74-1.68-0.035-3.054,1.234-4.223c0.588-0.542,1.559-0.442,1.98-1.234C582.259,218.901,584.998,218.145,587.513,216.958z"/>
	<path fill-rule="evenodd" clip-rule="evenodd" fill="#E6E2CD" d="M564.917,229.177c-1.754,1.972-4.111,2.805-6.555,3.477
		c0.908-1.952-0.252-3.235-1.453-4.508c1.893-1.086,3.66-2.427,5.846-2.929C561.886,227.406,562.912,228.56,564.917,229.177z"/>
	<path fill-rule="evenodd" clip-rule="evenodd" fill="#E0DDC9" d="M544.833,240.281c-1.078,1.883-3.348,1.853-4.91,3.002
		c-0.727,0.535-1.605,1.224-2.703,1.098c0.785-1.77,0.387-3.249-1.086-4.467c1.168-1.739,3.125-2.109,4.893-2.809
		c-0.209,1.155,0.504,2.055,0.924,3.002C542.736,241.872,543.888,239.826,544.833,240.281z"/>
	<path fill-rule="evenodd" clip-rule="evenodd" fill="#E0DDC9" d="M587.513,216.958c-2.242,1.724-4.758,2.913-7.424,3.806
		c0.523-1.992-0.51-3.117-2.166-3.899c1.365-1.946,3.771-2.178,5.584-3.385c-0.354,1.003-0.34,1.939,0.33,2.847
		c0.719,0.971,1.48,1.656,2.613,0.625C586.875,216.567,587.162,216.574,587.513,216.958z"/>
	<path fill-rule="evenodd" clip-rule="evenodd" fill="#F6C53A" d="M510.791,219.219c0.412,0.726,1.465,1.16,1.023,2.268
		c-2.873,2.28-6.252,3.703-9.41,5.491c-8.123,4.594-16.297,9.1-24.41,13.713c-6.445,3.67-13.061,7.045-19.523,10.685
		c-4.688,2.64-9.324,5.378-14.043,7.957c-4.588,2.51-9.225,4.942-13.801,7.469c-6.119,3.375-12.35,6.536-18.434,9.976
		c-7.049,3.978-14.18,7.8-21.236,11.76c-3.875,2.173-7.807,4.23-11.596,6.574c-2.955,1.825-6.098,3.376-9.146,5.067
		c-3.238,1.797-6.463,3.626-9.693,5.438c-4.438,2.487-8.91,4.916-13.352,7.395c-4.508,2.514-9.014,5.027-13.557,7.472
		c-3.389,1.826-6.689,3.812-10.158,5.509c-2.932,1.436-5.736,3.134-8.605,4.7c-4.025,2.196-8.113,4.28-12.109,6.533
		c-7.045,3.978-14.158,7.834-21.236,11.753c-5.037,2.79-10.139,5.465-15.105,8.374c-3.89,2.274-7.918,4.312-11.777,6.617
		c-4.432,2.655-8.998,5.052-13.493,7.581c-4.435,2.49-8.921,4.899-13.374,7.362c-4.395,2.432-8.872,4.71-13.271,7.134
		c-0.938,0.516-1.819,1.288-3.036,0.927c-1.644-1.461-1.792-3.767-3.082-5.438c-0.349-0.45-0.513-1.042-0.805-1.551
		c-1.748-3.039-1.832-3.206,1.221-4.757c5.045-2.559,9.798-5.708,15.158-7.635c6.938-3.811,13.876-7.613,21.02-11.03
		c7.064-2.473,13.325-6.548,19.914-9.97c4.703-2.439,9.508-4.682,14.195-7.155c4.707-2.486,9.455-4.9,14.102-7.513
		c1.613-0.908,3.164-2.153,5.119-2.45c0.633-0.096,0.914-0.676,1.268-1.132c2.982-0.245,5.246-2.151,7.756-3.438
		c10.371-5.324,20.646-10.854,31.041-16.11c7.812-3.951,15.479-8.171,23.311-12.079c8.557-4.27,16.848-9.08,25.463-13.227
		c7.123-3.424,13.998-7.301,21.051-10.841c7.383-3.704,14.637-7.655,21.98-11.433c5.725-2.943,11.584-5.628,17.225-8.724
		c4.627-2.54,9.285-5.015,13.963-7.458c6.107-3.188,12.254-6.301,18.371-9.469c7.203-3.731,14.402-7.475,21.588-11.241
		C504.484,222.657,507.63,220.923,510.791,219.219z"/>
	<path fill-rule="evenodd" clip-rule="evenodd" fill="#E9BC3C" d="M534.279,188.365c-1.086,0.558-2.195,1.273-3.418,1.148
		c-1.389-0.141-2.793-0.389-3.234-2.245c-0.518-2.173,0.867-3.417,2.227-4.193c3.252-1.854,6.547-3.666,10.055-5.052
		c1.713-0.676,2.908-0.14,3.639,1.272c0.785,1.512,0.076,2.919-0.992,4.074c-0.518,0.558-1.422,0.651-1.844,1.374
		C538.703,186.19,536.57,187.419,534.279,188.365z"/>
	<path fill-rule="evenodd" clip-rule="evenodd" fill="#E8BC3C" d="M554.353,177.288c-0.75-0.19-1.258,0.495-2.041,0.483
		c-1.652-0.026-2.947-0.658-3.432-2.125c-0.475-1.428,0.113-2.693,1.42-3.725c2.986-2.356,6.65-3.435,9.826-5.454
		c1.873-1.192,4.086-0.119,4.863,1.852c0.797,2.019-0.588,3.001-2.059,3.898c-0.736,0.445-1.434,0.948-2.146,1.426
		C558.685,174.937,556.664,176.366,554.353,177.288z"/>
	<path fill-rule="evenodd" clip-rule="evenodd" fill="#E8BC3D" d="M511.474,200.929c-1.529,0.285-3.057,0.9-4.268-0.833
		c-1.688-2.417-1.553-3.279,1.422-5.245c2.969-1.965,6.186-3.495,9.463-4.875c1.764-0.742,3.895-0.178,4.426,1.011
		c0.707,1.591-0.105,3.497-1.787,4.603c-0.574,0.378-1.512,0.224-1.734,1.126C516.646,198.397,514.105,199.742,511.474,200.929z"/>
	<path fill-rule="evenodd" clip-rule="evenodd" fill="#E4E1CD" d="M534.279,188.365c1.916-1.612,3.988-2.948,6.432-3.622
		c-0.748,2.921,0.07,4.05,2.889,3.989c-2.146,1.183-4.293,2.366-6.441,3.549C536.492,190.759,536.558,188.699,534.279,188.365z"/>
	<path fill-rule="evenodd" clip-rule="evenodd" fill="#E0DCC9" d="M554.353,177.288c1.969-1.521,3.861-3.182,6.432-3.646
		c0.611,1.581,0.764,3.497,2.881,3.994c-2.111,1.254-4.164,2.603-6.432,3.569C558.677,178.168,557.894,177.106,554.353,177.288z"/>
	<path fill-rule="evenodd" clip-rule="evenodd" fill="#DEDBC8" d="M511.474,200.929c2.383-1.629,4.691-3.386,7.521-4.213
		c-0.533,1.187-0.365,2.239,0.59,3.15c0.389,0.373,0.615,0.808,0.441,1.367c0.182,1.143-0.881,1.098-1.451,1.525
		c-0.857,0.642-1.881,0.998-2.746,1.625c-0.264-0.044-0.523-0.086-0.785-0.13c1.164-1.34,0.291-2.505-0.324-3.69
		c-0.381-0.74-0.834-0.191-1.252-0.046C512.82,200.737,512.255,201.343,511.474,200.929z"/>
	<path fill-rule="evenodd" clip-rule="evenodd" fill="#998173" d="M515.83,204.382c0.373-1.172,1.586-1.232,2.391-1.831
		c0.6-0.442,1.559-0.408,1.807-1.319c0.285,0.043,0.574,0.083,0.859,0.122C519.693,203.188,517.869,203.966,515.83,204.382z"/>
	<path fill-rule="evenodd" clip-rule="evenodd" fill="#D9D6C4" d="M27.577,487.305c0.63,0.125,0.702,0.737,0.93,1.143
		c1.461,2.596,2.848,5.231,4.285,7.839c0.817,1.487,0.307,2.19-1.165,2.938c-2.505,1.273-2.44,1.419-3.761-1.027
		c-1.301-2.411-2.592-4.827-3.887-7.244c-0.379-0.708-0.917-1.661-0.052-2.108C25.089,488.251,26.056,487.049,27.577,487.305z"/>
	<path fill-rule="evenodd" clip-rule="evenodd" fill="#DAD4C3" d="M124.642,555.081c-0.314-1.281-0.83-2.554-0.883-3.85
		c-0.041-1.003,1.261-1.241,1.958-1.502c1.78-0.664,3.675-1.254,5.553-1.361c2.42-0.143,1.945,2.29,2.513,3.659
		c0.458,1.109-0.229,1.748-1.504,2.051c-1.847,0.442-3.799,0.558-5.512,1.494C125.943,555.907,125.25,555.672,124.642,555.081z"/>
	<path fill-rule="evenodd" clip-rule="evenodd" fill="#D9D4C2" d="M165.765,537.576c-0.144,0.188-0.362,0.77-0.763,0.951
		c-1.732,0.795-3.174,2.107-4.875,2.871c-2.615,1.181-2.573-1.728-3.653-2.814c-1.029-1.034,0.123-1.519,0.875-2.254
		c1.382-1.354,3.501-1.478,4.669-3.095c0.225-0.312,0.7-0.486,1.194-0.376C164.419,533.122,166.254,536.185,165.765,537.576z"/>
	<path fill-rule="evenodd" clip-rule="evenodd" fill="#D9D6C4" d="M150.613,546.079c-0.243,0.384-0.37,0.868-0.628,0.951
		c-2.337,0.768-4.17,2.66-6.71,2.975c-0.556,0.068-0.789,0.094-1.157-0.499c-1.946-3.144-1.744-4.358,1.464-5.883
		c1.056-0.504,2.119-0.958,3.141-1.548c0.948-0.549,1.886-0.428,2.547,0.729C149.875,543.862,150.206,544.982,150.613,546.079z"/>
	<path fill-rule="evenodd" clip-rule="evenodd" fill="#D9D4C2" d="M177.396,522.294c0.871,0.865,1.922,1.875,2.931,2.93
		c0.328,0.339,0.072,0.642-0.251,0.883c-2.024,1.502-3.55,3.584-5.738,4.908c-0.633,0.381-1.039,1.045-1.51-0.261
		c-0.293-0.804-1.111-1.507-1.845-2.052c-1.359-1.006-0.653-2.281,0.098-2.636c1.702-0.804,2.681-2.333,4.096-3.39
		C175.823,522.196,176.396,521.964,177.396,522.294z"/>
	<path fill-rule="evenodd" clip-rule="evenodd" fill="#D9D4C2" d="M115.375,557.317c-1.932-0.405-3.868-0.039-5.783,0.097
		c-2.501,0.177-3.447-0.677-2.887-3.149c0.292-1.288,0.282-2.868,2.19-3.011c1.649,0.572,3.351-0.168,5.009,0.196
		c1.964,0.167,2.436,1.141,2.032,4.198C116.128,556.332,115.947,556.889,115.375,557.317z"/>
	<path fill-rule="evenodd" clip-rule="evenodd" fill="#DAD5C3" d="M41.73,374.563c0.018,0.143-0.016,0.352,0.065,0.413
		c2.172,1.677,2.159,3.368,0.067,5.091c-0.986,0.214-1.701,0.693-2.28,1.598c-0.506,0.789-1.283,1.49-2.452,1.257
		c-1.551-0.311-2.465-1.51-3.129-2.683c-0.546-0.966,0.366-1.767,1.259-2.408c1.128-0.812,2.159-1.768,3.149-2.749
		C39.426,374.074,40.448,373.629,41.73,374.563z"/>
	<path fill-rule="evenodd" clip-rule="evenodd" fill="#D9D3C1" d="M14.361,406.391c0.275-1.183,0.996-2.441,1.911-3.712
		c0.907-1.259,1.855-1.227,2.634-0.46c0.837,0.831,2.773,0.959,2.217,2.876c-0.599,2.065-1.182,4.13-2.634,5.823
		c-0.332,0.387-0.608,0.489-1.091,0.445C13.994,411.04,13.279,409.987,14.361,406.391z"/>
	<path fill-rule="evenodd" clip-rule="evenodd" fill="#DAD2C1" d="M30.681,390.72c-0.71,0.922-1.438,2.082-2.392,3.009
		c-0.472,0.46-0.777,0.972-1.172,1.438c-0.653,0.77-1.485,2.058-2.586,0.358c-0.076-0.118-0.202-0.209-0.318-0.292
		c-2.941-2.129-2.902-2.09-0.217-4.919c0.902-0.951,1.551-2.144,2.289-3.245c0.198-0.292,0.288-0.621,0.729-0.688
		C28.381,386.168,31.123,389.207,30.681,390.72z"/>
	<path fill-rule="evenodd" clip-rule="evenodd" fill="#D9D7C6" d="M93.024,555.363c-0.486-0.143-0.97-0.297-1.462-0.418
		c-3.055-0.757-2.976-0.734-2.182-3.696c0.446-1.662,1.098-2.296,2.869-1.638c1.479,0.554,3.073,0.818,4.632,1.131
		c1.401,0.285,2.06,0.941,1.53,2.419c-0.146,0.405-0.289,0.836-0.314,1.261c-0.099,1.768-0.886,2.291-2.546,1.586
		c-0.796-0.335-1.666-0.494-2.501-0.737C93.042,555.301,93.033,555.332,93.024,555.363z"/>
	<path fill-rule="evenodd" clip-rule="evenodd" fill="#D9D3C1" d="M23.641,478.53c-0.914,1.319-2.416,1.865-3.857,2.202
		c-1.354,0.314-1.372-1.29-1.434-1.954c-0.154-1.642-1.422-2.699-1.774-4.23c-0.317-1.387-0.162-2.192,1.211-2.691
		c3.095-1.116,3.063-1.124,4.143,2.04c0.295,0.857,0.724,1.693,1.225,2.453C23.595,477.018,23.508,477.723,23.641,478.53z"/>
	<path fill-rule="evenodd" clip-rule="evenodd" fill="#D9D3C1" d="M43.212,512.666c-1.233,0.922-2.258,1.983-3.507,2.527
		c-0.942,0.407-1.656-0.561-2.174-1.424c-0.796-1.322-1.62-2.633-2.512-3.891c-1.521-2.146,0.765-2.56,1.649-3.449
		c1.024-1.03,2.046-0.533,2.801,0.645c1.03,1.598,2.128,3.15,3.193,4.724C42.855,512.081,43.029,512.375,43.212,512.666z"/>
	<path fill-rule="evenodd" clip-rule="evenodd" fill="#D9D1BF" d="M14.743,444.713c0.098,0.344-0.24,0.363-0.441,0.538
		c-1.288,1.123-2.915,0.499-4.343,0.705c-0.647,0.094-0.875-1.742-0.739-2.549c0.272-1.625-0.125-3.171-0.325-4.678
		c-0.224-1.716,0.67-1.807,1.734-1.878c0.901-0.059,1.776,0.664,2.738,0.105c0.312-0.182,0.515,0.091,0.553,0.423
		C14.194,439.827,14.469,442.27,14.743,444.713z"/>
	<path fill-rule="evenodd" clip-rule="evenodd" fill="#DAD4C3" d="M61.384,533.076c2.001,0.937,3.486,2.706,5.243,4.114
		c0.459,0.369-0.028,1.106-0.226,1.635c-0.354,0.944-1.435,1.342-1.751,2.396c-0.179,0.6-1.029,0.305-1.328,0.03
		c-1.717-1.586-3.824-2.722-5.284-4.598c-0.13-0.164-0.321-0.326-0.361-0.516C57.434,534.978,60.144,532.669,61.384,533.076z"/>
	<path fill-rule="evenodd" clip-rule="evenodd" fill="#D9D4C2" d="M17.657,461.697c-0.753,2.102-2.781,1.187-4.024,1.966
		c-0.164,0.104-0.145-0.01-0.823-1.492c-0.886-1.941-1.001-4.058-1.584-6.059c-0.181-0.625,0.077-0.625,0.467-0.891
		c1.058-0.715,2.384-0.417,3.465-1.024c0.21-0.118,0.922,0.13,0.954,0.297C16.58,456.945,17.83,459.246,17.657,461.697z"/>
	<path fill-rule="evenodd" clip-rule="evenodd" fill="#D8D0BE" d="M13.699,419.527c1.718,0.064,2.341,0.988,1.53,2.808
		c-0.643,1.44,0.213,2.994-0.372,4.486c-0.36,0.919-0.554,1.637-1.763,1.222c-0.393-0.136-0.879-0.146-1.289-0.057
		c-1.974,0.433-2.505-0.275-1.927-2.166c0.428-1.403-0.296-2.856,0.109-4.334C10.746,418.731,10.672,418.711,13.699,419.527z"/>
	<path fill-rule="evenodd" clip-rule="evenodd" fill="#D9D6C4" d="M82.139,547.222c-1.513,0.72-1.255,2.278-2.116,3.161
		c-0.246,0.253-0.52,0.626-0.883,0.26c-1.658-1.688-4.354-1.356-5.994-3.188c-0.6-0.669-1.129-0.824-0.249-1.691
		c0.827-0.816,0.267-2.589,1.729-3.036c1.449-0.442,2.06,1.155,3.196,1.552c0.959,0.331,1.887,0.754,2.824,1.15
		C81.468,545.777,81.482,546.671,82.139,547.222z"/>
	<path fill-rule="evenodd" clip-rule="evenodd" fill="#D9D4C1" d="M53.798,526.844c-0.641,1.833-3.179,2.398-4.928,0.914
		c-0.668-0.565-1.219-1.229-1.73-1.863c-0.752-0.932-2.122-1.601-2.172-2.819c-0.051-1.244,1.721-1.16,2.301-2.111
		c0.747-1.222,1.5-1.079,2.367-0.064c1.093,1.278,2.334,2.434,3.385,3.741C53.429,525.148,53.493,525.934,53.798,526.844z"/>
	<path fill-rule="evenodd" clip-rule="evenodd" fill="#DC4537" d="M113.905,551.45c-1.67-0.034-3.375,0.774-5.009-0.196
		C110.562,551.396,112.265,550.631,113.905,551.45z"/>
	<path fill-rule="evenodd" clip-rule="evenodd" fill="#DC4537" d="M115.375,557.317c0.187-0.558,0.375-1.113,0.562-1.669
		c0.645,0.288,1.044,0.747,0.718,1.458C116.377,557.708,115.831,557.396,115.375,557.317z"/>
	<path fill-rule="evenodd" clip-rule="evenodd" fill="#DC4537" d="M124.642,555.081c0.708,0.167,1.415,0.329,2.125,0.491
		C125.749,556.742,125.065,556.474,124.642,555.081z"/>
	<path fill-rule="evenodd" clip-rule="evenodd" fill="#FFFFFF" d="M522.847,205.518c2.982-2.313,6.479-3.749,9.715-5.624
		c1.746-1.013,3.418-2.256,5.439-2.763c2.305-1.459,2.309-1.372,3.576,1.084c1.281,2.487,2.768,4.869,3.912,7.428
		c0.273,0.615,0.834,1.276,0.066,1.949c-5.074,2.775-10.148,5.55-15.219,8.334c-0.354,0.192-0.67,0.454-1.004,0.685
		c-1.346,0.373-1.803-0.691-2.277-1.527c-1.453-2.569-2.693-5.255-4.436-7.661C522.148,206.774,522.121,206.076,522.847,205.518z"/>
	<path fill-rule="evenodd" clip-rule="evenodd" fill="#FFFFFF" d="M565.619,196.448c-4.408,2.704-8.967,5.135-13.547,7.527
		c-1.721,0.939-2.775,0.514-3.785-1.264c-1.172-2.057-1.996-4.299-3.391-6.25c-0.566-0.792-1.197-1.877-0.365-2.98
		c5.266-3.246,10.701-6.183,16.223-8.973c1.908,0.066,2.012,1.924,2.711,3.013c1.041,1.629,1.826,3.45,2.801,5.147
		C567.103,194.127,567.13,195.411,565.619,196.448z"/>
	<path fill-rule="evenodd" clip-rule="evenodd" fill="#FFFFFF" d="M553.324,224.829c-4.016,2.569-8.189,4.855-12.492,6.899
		c-0.066,0.031-0.129,0.07-0.195,0.095c-3.492,1.356-3.586,1.393-5.398-1.956c-0.959-1.775-2.01-3.503-2.896-5.323
		c-0.715-1.475-0.641-2.586,0.961-3.325c0.564-0.833,1.654-0.831,2.342-1.466c1.016-0.295,1.92-0.793,2.711-1.498
		c0.363-0.199,0.725-0.398,1.086-0.6c1.018-0.296,1.924-0.793,2.713-1.498c0.365-0.197,0.727-0.393,1.09-0.591
		c0.959-0.399,1.945-0.751,2.713-1.499l0.039,0.035c3.416-1.434,3.584-1.523,5.174,1.45c1.057,1.977,2.256,3.88,3.195,5.94
		C555.113,223.133,554.734,224.046,553.324,224.829z"/>
	<path fill-rule="evenodd" clip-rule="evenodd" fill="#FFFFFF" d="M564.962,203.619c0.354-0.212,0.711-0.426,1.064-0.638
		c0.928-0.371,1.832-0.788,2.713-1.266c1.227-0.882,2.045-0.855,2.842,0.708c1.219,2.392,2.684,4.666,3.838,7.096
		c0.537,1.132,0.932,2.363-0.395,3.329c-4.949,3.019-10.02,5.823-15.225,8.377c-1.031,0.454-1.475-0.307-1.842-0.99
		c-1.461-2.73-2.994-5.418-4.561-8.087c-0.367-0.624-0.699-1.308,0-1.959c0.418-0.295,0.838-0.59,1.26-0.883
		c0.934-0.44,1.908-0.805,2.707-1.491c0.357-0.214,0.713-0.428,1.066-0.639c0.969-0.378,1.928-0.774,2.732-1.458
		c0.355-0.213,0.709-0.427,1.066-0.638C563.199,204.7,564.158,204.304,564.962,203.619z"/>
	<path fill-rule="evenodd" clip-rule="evenodd" fill="#F6C53B" d="M594.583,170.706c3.385-1.132,6.721-1.812,10.252-0.298
		c2.291,0.98,6.215,5.677,6.506,8.679c0.467,4.808-0.986,8.525-5.02,11.214c-0.221,0.146-0.318,0.474-0.477,0.715
		c-1.838-1.485-2.422-3.778-3.559-5.696c-2.572-4.34-4.893-8.829-7.359-13.234C594.667,171.622,594.371,171.251,594.583,170.706z"/>
	<path fill-rule="evenodd" clip-rule="evenodd" fill="#FFFFFF" d="M567.33,180.947c1.336-1.225,2.961-1.981,4.623-2.581
		c3.473-1.256,7.07,1.166,8.121,5.429c0.871,3.516,0.023,4.274-2.812,6.334c-1.557,1.127-3.402,1.856-5.115,2.766
		c-1.1,0.591-1.818,0.047-2.371-0.839c-1.656-2.664-3.189-5.406-4.529-8.235C564.339,181.907,566.166,181.575,567.33,180.947z"/>
	<path fill-rule="evenodd" clip-rule="evenodd" fill="#FFFFFF" d="M587.482,205.934c-1.525,1.094-3.111,2.077-4.885,2.721
		c-2.777,1.042-3.051,0.955-4.473-1.563c-1.072-1.894-2.133-3.798-3.154-5.72c-1.152-2.168-1.029-2.518,1.141-3.728
		c0.506-0.283,1.053-0.493,1.52-0.844c0.877-0.465,1.684-1.043,2.514-1.582c0.693,0.125,1.131-0.835,1.885-0.447
		c1.686-0.463,3.078,0.095,4.301,1.235c1.779,0.794,1.795,2.803,2.836,4.107C589.642,202.354,589.427,204.393,587.482,205.934z"/>
	<path fill-rule="evenodd" clip-rule="evenodd" fill="#DEDBCA" d="M577.855,196.871c-0.074,0.123-0.125,0.283-0.234,0.364
		c-3.07,2.269-3.068,2.269-1.154,5.74c0.525,0.955,1.125,1.878,1.566,2.871c0.891,2.006,1.889,3.739,4.564,2.81
		c-2.338,1.735-4.754,3.326-7.572,4.193c0.828-1.57,0.111-2.927-0.627-4.255c-1.219-2.194-2.539-4.333-3.711-6.553
		c-0.711-1.345-1.387,0.498-2.025-0.091c-0.102-0.125-0.123-0.236-0.068-0.334c0.059-0.104,0.107-0.15,0.143-0.14
		c2.648-2.042,5.725-3.31,8.68-4.791C577.625,196.598,577.777,196.653,577.855,196.871z"/>
	<path fill-rule="evenodd" clip-rule="evenodd" fill="#E0DDCC" d="M544.531,193.481c0.543,3.178,2.744,5.577,3.949,8.44
		c0.691,1.645,1.748,2.498,3.592,2.053c-2.045,1.434-4.02,2.995-6.516,3.618c-0.633-2.716-2.359-4.914-3.516-7.382
		c-0.205-0.438-0.736-0.771-0.826-1.211c-0.381-1.883-1.219-2.831-3.213-1.868C539.843,195.318,542.107,194.256,544.531,193.481z"/>
	<path fill-rule="evenodd" clip-rule="evenodd" fill="#DEDCCA" d="M553.398,210.188c-0.195,1.476,1,2.311,1.586,3.423
		c1.064,2.007,2.131,4.01,3.219,6.004c0.371,0.681,0.676,1.461,1.598,1.609c-1.945,1.585-4.031,2.916-6.477,3.604
		c1.047-1.152,1.014-2.261,0.236-3.637c-1.381-2.446-2.582-4.99-4.186-7.316c-0.375-0.548-0.605-0.6-1.191-0.328
		c-0.672,0.313-1.299,1.026-2.188,0.555C548.267,212.428,550.632,210.93,553.398,210.188z"/>
	<path fill-rule="evenodd" clip-rule="evenodd" fill="#DDD9C8" d="M533.302,221.218c-1.27,1.173-0.977,2.384-0.15,3.664
		c1.24,1.918,2.121,4.037,3.379,5.962c0.891,1.36,1.559,2.165,3.061,0.885c0.377-0.319,0.826-0.138,1.24-0.001
		c-2.672,1.59-4.904,4.129-8.418,3.908c0.342-1.298,0.217-2.412-0.732-3.531c-0.98-1.156-1.512-2.649-2.223-3.999
		c-0.648-1.229-1.461-1.991-2.787-2.26C528.013,223.062,530.619,222.083,533.302,221.218z"/>
	<path fill-rule="evenodd" clip-rule="evenodd" fill="#DDDAC9" d="M567.33,180.947c-0.109,0.725-0.814,0.729-1.254,1.06
		c-0.566,0.427-0.811,0.961-0.393,1.689c1.506,2.628,3.006,5.257,4.439,7.923c0.467,0.864,1.092,1.255,2.023,1.276
		c-1.918,1.659-4.047,2.927-6.527,3.552c1.006-1.418,0.816-2.733-0.164-4.128c-1.75-2.488-2.527-5.571-4.701-7.812
		C562.669,182.812,564.867,181.638,567.33,180.947z"/>
	<path fill-rule="evenodd" clip-rule="evenodd" fill="#DBD9C7" d="M522.847,205.518c-0.002,0.494-0.217,1.18,0.027,1.453
		c2.035,2.276,3.064,5.121,4.543,7.711c0.443,0.777,0.871,1.696,1.916,1.93c-2.277,1.93-4.697,3.301-7.854,2.264
		c-1.207-0.395-2.191-0.953-2.684-2.18c1.238-0.551,2.043,0.334,2.945,0.887c0.449,0.275,0.986,0.508,1.426,0.176
		c0.613-0.465-0.043-0.887-0.221-1.294c-0.875-1.991-2.246-3.727-3.045-5.75c-0.416-1.057-1.553-0.937-2.17-1.609
		C518.578,206.684,520.728,206.128,522.847,205.518z"/>
	<path fill-rule="evenodd" clip-rule="evenodd" fill="#FBFBFB" d="M526.671,225.846c0.801,0.291,1.287-0.486,1.887-0.707
		c1.18,2.688,2.406,5.211,4.107,7.394c1.043,1.34,1.029,2.161-0.252,3.104C527.341,234.517,524.998,230.517,526.671,225.846z"/>
	<path fill-rule="evenodd" clip-rule="evenodd" fill="#FDFEFD" d="M517.732,209.106c1.512-0.476,2.186,0.237,2.805,1.595
		c1.133,2.499,2.525,4.88,3.816,7.324c-1.162,0.601-2.428,0.983-3.596-0.477c-0.461-0.575-1.254-0.687-1.961-0.853
		C517.373,214.316,516.041,211.924,517.732,209.106z"/>
	<path fill-rule="evenodd" clip-rule="evenodd" fill="#B6A39C" d="M586.33,196.005c-1.434-0.413-2.867-0.824-4.301-1.235
		C583.603,193.428,585.609,194.004,586.33,196.005z"/>
	<path fill-rule="evenodd" clip-rule="evenodd" fill="#BDACA5" d="M587.482,205.934c1.033-1.804,1.646-3.73,1.684-5.821
		C590.248,202.886,589.841,204.288,587.482,205.934z"/>
	<path fill-rule="evenodd" clip-rule="evenodd" fill="#B29F98" d="M542.154,216.157c-0.504,1.225-1.412,1.716-2.713,1.498
		C540.101,216.713,540.988,216.179,542.154,216.157z"/>
	<path fill-rule="evenodd" clip-rule="evenodd" fill="#B29F98" d="M538.355,218.254c-0.502,1.225-1.41,1.715-2.711,1.498
		C536.304,218.809,537.187,218.276,538.355,218.254z"/>
	<path fill-rule="evenodd" clip-rule="evenodd" fill="#B6A39C" d="M577.855,196.871c-0.146-0.062-0.293-0.125-0.439-0.187
		c0.682-0.913,1.535-1.507,2.729-1.466C579.667,196.167,578.818,196.593,577.855,196.871z"/>
	<path fill-rule="evenodd" clip-rule="evenodd" fill="#B6A39C" d="M568.736,201.475c-0.025,0.159-0.049,0.317-0.074,0.473
		c-0.754,0.66-1.562,1.184-2.635,1.034C566.66,201.991,567.599,201.556,568.736,201.475z"/>
	<path fill-rule="evenodd" clip-rule="evenodd" fill="#B6A39C" d="M564.962,203.619c-0.518,1.224-1.549,1.486-2.732,1.459
		C562.878,204.1,563.785,203.607,564.962,203.619z"/>
	<path fill-rule="evenodd" clip-rule="evenodd" fill="#B6A39C" d="M561.164,205.716c-0.518,1.224-1.549,1.484-2.732,1.458
		C559.082,206.198,559.986,205.704,561.164,205.716z"/>
	<path fill-rule="evenodd" clip-rule="evenodd" fill="#B6A39C" d="M557.365,207.814c-0.492,1.243-1.562,1.433-2.707,1.491
		C555.251,208.249,556.179,207.794,557.365,207.814z"/>
	<path fill-rule="evenodd" clip-rule="evenodd" fill="#B9A7A0" d="M545.957,214.067c-0.463,1.299-1.521,1.518-2.713,1.499
		C543.908,214.63,544.736,213.999,545.957,214.067z"/>
	<path fill-rule="evenodd" clip-rule="evenodd" fill="#DEB236" d="M141.6,502.398c-2.833,2.262-6.165,3.685-9.299,5.418
		c-3.378,1.868-3.352,1.649-5.35-1.792c-3.397-5.851-6.442-11.897-9.938-17.699c-2.589-4.294-4.71-8.871-7.132-13.273
		c-1.702-3.09-3.62-6.066-5.327-9.156c-1.746-3.161-3.313-6.418-5.027-9.597c-2.436-4.516-4.904-9.012-7.417-13.485
		c-2.331-4.154-4.909-8.181-7.075-12.418c-3.809-7.456-8.056-14.666-11.973-22.06c-0.271-0.512-0.56-1.013-0.833-1.526
		c-1.449-2.706-1.342-2.571,1.55-3.992c1.769-0.87,3.59-1.763,5.211-2.889c1.464-1.015,2.943-1.708,4.693-1.87
		c5.714,10.577,11.595,21.062,17.411,31.582c5.923,10.712,11.851,21.428,17.779,32.14c5.224,9.435,10.415,18.894,15.629,28.335
		C136.786,494.251,138.795,498.558,141.6,502.398z"/>
	<path fill-rule="evenodd" clip-rule="evenodd" fill="#0F9C59" d="M241.545,399.631c4.127-3.223,8.987-5.238,13.357-8.065
		c2.008-1.3,4.07-2.512,6.108-3.761c1.765-0.507,1.975,1,2.582,1.993c1.826,2.738,1.228,5.531-1.573,8.104
		c-3.526,3.242-4.747,7.229-3.687,11.939c0.296,1.315,0.44,2.699,0.408,4.044c-0.06,2.591-2.172,3.48-4.07,4.441
		c-1.254,0.637-2.539,1.293-3.888,1.642c-3.342,0.86-5.019,3.172-6.133,6.231c-1.05,2.879-2.002,6.072-5.498,6.893
		c-2.135,0.499-4.444,0.356-6.552-0.31c-3.527-1.113-6.3-0.211-8.902,2.315c-1.3,1.267-3.054,2.092-4.673,2.987
		c-3.004,1.664-5.018-0.63-7.021-2.124c-1.671-1.249-3.229-2.696-4.961-3.872c-1.409-0.956-3.201-0.477-4.607-0.152
		c-2.329,0.536-4.661,0.58-6.938,0.465c-1.889-0.096-3.159-1.713-3.91-3.485c-0.879-2.075-1.638-4.201-2.563-6.256
		c-0.815-1.807-2.208-3.061-4.156-3.626c-0.28-0.782,0.347-1.042,0.822-1.315c4.284-2.47,8.633-4.82,12.975-7.185
		c0.525-0.288,1.098-0.376,1.694-0.285c0.679,0.108,1.332,0.305,1.959,0.582c3.034,2.132,6.015,4.358,9.807,5.022
		c6.437,1.123,12.535,0.465,18.258-3.002c3.777-2.283,6.604-5.391,9.009-9.019C240.28,402.498,240.179,400.693,241.545,399.631z"/>
	<path fill-rule="evenodd" clip-rule="evenodd" fill="#0F9C59" d="M244.958,356.562c-1.025,1.675-2.959,1.966-4.493,2.778
		c-5.46,2.893-10.789,6.047-16.465,8.527c-2.104,0.307-4.161-0.3-6.248-0.392c-3.769-0.167-7.036,1.146-10.399,2.474
		c-4.112,1.622-7.049,4.646-9.539,8.043c-2.504,3.414-4.137,7.28-4.263,11.676c-0.062,2.2-0.161,4.358,0.779,6.416
		c0.12,0.688-0.244,1.115-0.807,1.391c-2.934,1.436-5.638,3.304-8.566,4.725c-2.036,0.986-3.736,2.547-5.909,3.25
		c-0.54,0.172-1.1,0.932-1.635-0.015c0.969-3.252-0.869-5.781-2.598-8.014c-1.148-1.482-2.149-3.053-3.261-4.553
		c-0.622-2.276,0.358-4.14,1.536-5.953c1.528-1.942,3.171-3.811,4.542-5.857c0.922-1.38,0.409-3.151,0.296-4.666
		c-0.102-1.345-0.169-2.777-0.578-4.12c-0.025-2.155,0.104-4.265,1.839-5.87c2.617-1.654,5.824-2.04,8.355-3.881
		c1.656-0.538,2.391-1.935,3.113-3.343c0.376-2.427,2.142-4.221,2.975-6.465c0.528-1.424,2.197-2.127,3.667-2.199
		c1.564-0.077,3.216-0.367,4.755,0.19c4.082,1.484,7.657,0.646,10.766-2.287c0.677-0.638,1.412-1.112,2.194-1.592
		c3.745-2.288,6.354-2.003,9.19,1.146c3.297,3.654,7.373,4.621,12.012,3.413C240.754,350.204,243.842,351.982,244.958,356.562z"/>
	<path fill-rule="evenodd" clip-rule="evenodd" fill="#F6C53A" d="M141.6,502.398c-2.242-0.742-2.524-3.023-3.506-4.681
		c-2.662-4.483-5.107-9.095-7.617-13.669c-3.136-5.721-6.23-11.463-9.376-17.178c-2.414-4.38-4.89-8.727-7.311-13.104
		c-2.455-4.439-4.871-8.9-7.313-13.345c-2.373-4.321-4.756-8.638-7.137-12.957c-2.52-4.564-5.045-9.129-7.562-13.694
		c-2.521-4.579-5.013-9.174-7.577-13.726c-0.371-0.656-0.793-1.202-0.519-1.986c2.661-2.139,5.839-3.39,8.747-5.105
		c1.069-0.627,1.23,0.258,1.539,0.857c2.562,5.008,5.351,9.89,8.132,14.776c2.516,4.417,4.793,8.97,7.239,13.429
		c2.503,4.557,5.058,9.088,7.65,13.596c0.522,0.904,0.514,2.126,1.569,2.721c0.657,0.821,1.003,1.858,1.8,2.584
		c0.406,0.893,1.071,1.617,1.596,2.436c0.001,1.053,0.345,1.918,1.34,2.419c0.556,0.713,0.941,1.524,1.347,2.328
		c-0.087,1.197,0.519,2.106,1.235,2.975c-0.131,1.747,1.168,2.878,1.892,4.235c3.997,7.489,8.204,14.861,12.373,22.256
		c3.525,6.253,6.811,12.645,10.423,18.855c0.621,1.069-0.577,1.401-1.122,1.645C146.701,499.291,144.126,500.795,141.6,502.398z"/>
	<path fill-rule="evenodd" clip-rule="evenodd" fill="#F1EDD8" d="M125.877,451.073c-1.651-0.269-2.111-1.186-1.469-2.699
		c0.214-0.831,0.978-1.035,1.605-1.359c8.067-4.211,16.052-8.587,23.935-13.117c10.082-5.796,20.207-11.511,30.346-17.201
		c6.051-3.166,11.989-6.541,17.941-9.89c3.472-1.752,6.812-3.748,10.244-5.574c0.958-0.512,1.94-0.947,2.989-1.228
		c1.334-0.525,2.637-1.108,3.672-2.153c0.388-0.509,0.932-0.789,1.502-1.037c3.903-1.278,7.19-3.751,10.793-5.611
		c3.22-1.664,6.368-3.477,9.524-5.269c3.281-1.862,6.589-3.687,9.911-5.474c4.474-2.409,8.918-4.87,13.356-7.338
		c4.508-2.51,9.091-4.877,13.589-7.401c4.441-2.487,8.902-4.934,13.363-7.383c4.395-2.417,8.791-4.841,13.174-7.284
		s8.773-4.87,13.174-7.279c3.443-1.885,6.82-3.881,10.248-5.791c3.047-1.693,6.105-3.365,9.156-5.052
		c3.305-1.823,6.615-3.635,9.908-5.477c2.984-1.665,5.977-3.304,8.967-4.958c3.365-1.858,6.721-3.746,10.105-5.567
		c3.197-1.721,6.35-3.522,9.561-5.221c2.949-1.562,5.852-3.221,8.771-4.842c3.43-1.903,6.922-3.693,10.336-5.623
		c4.434-2.506,8.9-4.945,13.367-7.389c4.461-2.443,8.938-4.865,13.359-7.38c4.676-2.657,9.463-5.115,14.076-7.893
		c2.918-1.755,5.961-3.318,8.955-4.958c3.311-1.811,6.6-3.665,9.916-5.462c3.191-1.729,6.361-3.499,9.557-5.224
		c3.062-1.655,6.113-3.343,9.135-5.075c3.086-1.768,6.227-3.442,9.342-5.155c3.113-1.714,6.232-3.425,9.344-5.14
		c3.434-1.893,6.902-3.715,10.326-5.619c4.447-2.477,8.938-4.879,13.355-7.402c1.516-0.865,3.188-1.438,4.58-2.545
		c0.717-0.566,1.52-0.323,2.201,0.254c0.279,0.59,0.08,1.34,0.609,1.846c-4.385,2.479-8.758,4.977-13.154,7.433
		c-7.062,3.944-14.131,7.882-21.217,11.782c-6.967,3.83-13.975,7.587-20.938,11.424c-6.08,3.354-12.111,6.804-18.191,10.164
		c-6.949,3.845-13.936,7.625-20.895,11.455c-8.045,4.422-16.07,8.873-24.111,13.304c-7.145,3.938-14.297,7.859-21.443,11.801
		c-8.426,4.642-16.85,9.292-25.273,13.945c-8.479,4.678-16.957,9.355-25.432,14.046c-8.096,4.48-16.178,8.984-24.271,13.468
		c-8.148,4.516-16.303,9.012-24.449,13.524c-7.076,3.921-14.133,7.876-21.221,11.772c-6.967,3.832-13.97,7.598-20.942,11.423
		c-5.772,3.166-11.522,6.376-17.288,9.557c-0.397,0.219-0.773,0.416-0.821,0.925c-0.212,0.23-0.482,0.342-0.784,0.386
		c-0.994,0.165-1.829,0.607-2.458,1.411c-0.331,0.415-0.759,0.642-1.295,0.634c-1.226-0.201-1.924,0.512-2.498,1.443
		c-0.318,0.428-0.742,0.653-1.278,0.653c-1.226-0.201-1.941,0.497-2.517,1.438c-0.318,0.43-0.74,0.658-1.276,0.658
		c-1.218-0.199-1.938,0.482-2.511,1.424c-0.315,0.438-0.747,0.666-1.274,0.723c-1.306,0.054-2.089,1.081-3.108,1.666
		c-3.074,1.134-5.796,2.958-8.619,4.562c-2.21,1.256-4.737,2.016-6.569,3.911c-3.229,1.052-5.971,3.038-8.908,4.65
		c-9.256,5.076-18.499,10.175-27.74,15.277c-7.175,3.965-14.334,7.95-21.508,11.915
		C126.472,451.011,126.157,451.011,125.877,451.073z"/>
	<path fill-rule="evenodd" clip-rule="evenodd" fill="#F1EDD8" d="M120.109,441.041c-1.228-0.496-1.687-1.433-1.549-2.709
		c7.767-4.287,15.545-8.552,23.296-12.868c4.408-2.455,8.745-5.039,13.162-7.479c4.441-2.448,9.015-4.668,13.393-7.225
		c3.008-1.758,6.321-3.014,9.001-5.322c2.947-0.796,5.293-2.772,7.984-4.08c2.858-1.387,5.401-3.395,8.434-4.481
		c0.141-0.052,0.187-0.358,0.277-0.548c4.589-2.518,9.155-5.076,13.771-7.542c1.271-0.676,2.156-2.016,3.727-2.15
		c2.491-0.428,4.412-2.07,6.563-3.186c6.07-3.145,12.051-6.465,18.029-9.783c5.847-3.245,11.636-6.596,17.472-9.855
		c6.26-3.5,12.58-6.89,18.808-10.439c5.762-3.281,11.594-6.438,17.373-9.683c4.279-2.401,8.592-4.775,12.939-7.071
		c5.07-2.678,10.049-5.531,15.084-8.27c4.617-2.505,9.277-4.929,13.883-7.447c4.48-2.451,8.906-5.006,13.379-7.471
		c4.406-2.432,8.855-4.786,13.26-7.22c4.473-2.471,8.908-5.002,13.365-7.496c5.123-2.867,10.262-5.715,15.385-8.591
		c4.604-2.59,9.178-5.235,13.801-7.796c4.232-2.346,8.521-4.592,12.762-6.918c5.154-2.821,10.279-5.702,15.439-8.517
		c4.797-2.618,9.65-5.144,14.439-7.78c6.385-3.52,12.723-7.121,19.092-10.664c9.477-5.27,18.957-10.526,28.445-15.771
		c6.557-3.624,13.129-7.219,19.701-10.817c0.305-0.168,0.658-0.249,0.988-0.372c0.393,0.535,0.781,1.074,1.174,1.612
		c0.002,1.087-0.623,1.667-1.535,2.163c-20.07,10.888-39.973,22.08-59.98,33.074c-10.871,5.974-21.719,11.988-32.58,17.979
		c-11.107,6.127-22.199,12.285-33.34,18.354c-7.555,4.115-14.986,8.461-22.529,12.601c-8.242,4.524-16.467,9.088-24.709,13.614
		c-7.225,3.968-14.422,7.98-21.686,11.872c-11.697,6.272-23.197,12.899-34.867,19.223c-10.062,5.449-19.998,11.138-29.997,16.707
		c-10.763,5.998-21.546,11.959-32.362,17.856c-2.109,1.15-4.29,2.189-6.274,3.562c-6.329,3.302-12.704,6.517-18.662,10.479
		c-6.136,2.873-12.102,6.047-17.613,10.021c-2.091,0.349-3.609,1.858-5.375,2.819c-4.405,2.39-8.764,4.882-13.171,7.271
		c-4.404,2.387-8.748,4.884-13.172,7.241c-4.422,2.354-8.772,4.862-13.164,7.283c-3.305,1.821-6.514,3.835-9.984,5.352
		C121.395,440.834,120.807,441.178,120.109,441.041z"/>
	<path fill-rule="evenodd" clip-rule="evenodd" fill="#F1EAD8" d="M227.158,295.345c2.687,0.553,1.257,2.491,1.809,3.665
		c0.567,1.205-0.741,2.401-1.808,2.395c-1.862-0.01-3.339,1.102-5.143,1.262c-0.973,0.087-1.054-0.126-1.39-0.758
		c-2.139-4.021-2.146-3.992,1.882-5.52C224.163,295.759,225.876,295.549,227.158,295.345z"/>
	<path fill-rule="evenodd" clip-rule="evenodd" fill="#F1E7D6" d="M304.173,426.093c0.055-2.046,2.043-3.09,2.512-4.934
		c0.166-0.656,0.82-0.442,1.307-0.308c1.346,0.374,2.459,1.204,3.645,1.891c0.709,0.41,0.633,1.084,0.184,1.447
		c-1.244,1.011-1.438,2.474-1.822,3.833c-0.352,1.258-1.699,1.686-2.143,2.858c-0.135,0.361-0.701,0.231-0.984,0.052
		c-1.086-0.688-2.307-1.281-3.133-2.215C303.072,427.966,304.056,426.983,304.173,426.093z"/>
	<path fill-rule="evenodd" clip-rule="evenodd" fill="#F0E5D3" d="M259.358,308.855c-1.771-0.789-3.28-2.124-5.209-2.792
		c-0.812-0.283-1.377-1.505-0.372-2.56c0.391-0.412,0.711-0.916,0.962-1.427c0.826-1.685,1.905-2.127,3.181-0.852
		c0.948,0.942,2.039,1.251,3.132,1.763c3.183,1.499,2.986,2.772,1.121,4.626C261.358,308.426,261.022,309.954,259.358,308.855z"/>
	<path fill-rule="evenodd" clip-rule="evenodd" fill="#F1EAD7" d="M311.755,413.205c-1.949-0.062-2.973-0.789-2.119-3.225
		c0.445-1.273-0.107-2.793,0.35-4.226c0.508-1.583,1.477-2.212,2.9-1.625c1.229,0.504,3.604-0.248,3.219,2.406
		c-0.305,2.107-1.473,4.059-0.971,6.327c0.162,0.729-0.475,1.166-1.301,0.939C313.203,413.627,312.58,413.441,311.755,413.205z"/>
	<path fill-rule="evenodd" clip-rule="evenodd" fill="#F1E9D7" d="M118.94,355.385c-0.764-0.295-2.253-0.024-2.233-0.878
		c0.034-1.34-0.529-2.674-0.049-4.021c0.219-0.619,0.638-0.598,1.147-0.725c2.525-0.642,4.937,0.922,7.458,0.325
		c0.436-0.104,0.936,0.228,0.734,0.773c-0.452,1.222,0.172,2.415-0.012,3.613c-0.174,1.14-0.554,1.905-1.995,1.423
		C122.362,355.348,120.544,356.55,118.94,355.385z"/>
	<path fill-rule="evenodd" clip-rule="evenodd" fill="#F1EAD8" d="M290.822,328.624c-0.797,2.758-3.391,3.438-5.473,1.59
		c-1.16-1.028-1.791-2.535-3.258-3.323c-0.322-0.172-1.428-1.324,0.047-2.364c0.721-0.509,1.643-1.288,2.18-2.224
		c0.373-0.652,1.152-0.67,1.469-0.188c1.283,1.959,3.227,3.278,4.684,5.063C290.904,327.711,291.113,328.069,290.822,328.624z"/>
	<path fill-rule="evenodd" clip-rule="evenodd" fill="#F0E8D5" d="M242.164,454.991c-0.772-0.34-1.325-0.517-1.29-1.562
		c0.037-1.062-0.083-2.219-0.496-3.181c-0.438-1.024,0.171-0.985,0.719-1.037c2.377-0.216,4.742-0.444,7.152-0.138
		c1.546,0.197,2.012,0.865,1.825,2.273c-0.106,0.795-0.203,1.588-0.239,2.39c-0.016,0.41-0.06,0.726-0.531,0.757
		C246.922,454.667,244.542,454.826,242.164,454.991z"/>
	<path fill-rule="evenodd" clip-rule="evenodd" fill="#F1E9D7" d="M309.878,387.37c0.965-1.484,2.779-0.961,4.254-1.086
		c1.643-0.143,1.615,1.517,1.598,2.478c-0.037,1.866,0.109,3.673,0.533,5.472c0.047,0.204,0.119,0.499,0.02,0.625
		c-0.557,0.7-1.309,1.258-2.193,0.875c-1.266-0.554-3.547,1.263-3.803-1.141c-0.213-2.019-0.303-4.066-0.604-6.089
		C309.642,388.233,309.775,387.933,309.878,387.37z"/>
	<path fill-rule="evenodd" clip-rule="evenodd" fill="#F1EAD7" d="M66.147,364.669c-0.744-1.507-1.902-2.894-2.037-4.564
		c-0.11-1.367,1.386-1.313,2.354-1.67c1.261-0.462,2.514-0.967,3.712-1.57c1.475-0.745,2.369-0.661,3.046,1.117
		c1.202,3.167,1.21,3.512-1.83,4.816C69.722,363.521,67.961,364.033,66.147,364.669z"/>
	<path fill-rule="evenodd" clip-rule="evenodd" fill="#F1E9D7" d="M58.282,368.383c-0.477,0.389-0.937,0.851-1.475,1.188
		c-1.635,1.018-3.354,1.91-4.931,3.006c-0.854,0.593-1.283,0.411-1.738-0.346c-0.074-0.123-0.162-0.241-0.248-0.359
		c-2.363-3.232-2.356-3.22,0.931-5.3c1.209-0.765,2.36-1.622,3.572-2.384c0.809-0.507,1.515-0.716,2.053,0.511
		C56.977,365.914,57.879,366.956,58.282,368.383z"/>
	<path fill-rule="evenodd" clip-rule="evenodd" fill="#F1EBD9" d="M233.287,456.891c0.004-0.057,0.026,0.063-0.006,0.083
		c-2.289,1.264-4.467,2.986-6.922,3.599c-1.492,0.369-2.191-2.139-3.095-3.404c-0.773-1.087,0.848-1.515,1.452-1.947
		c1.565-1.118,3.322-1.971,5.033-2.876c1.439-0.762,2.241-0.169,2.604,1.32C232.609,454.712,232.95,455.738,233.287,456.891z"/>
	<path fill-rule="evenodd" clip-rule="evenodd" fill="#F1EAD8" d="M193.543,500.134c0.374-2.547,2.292-3.83,2.781-5.849
		c0.132-0.548,0.593-0.56,1.054-0.417c0.974,0.302,2.072,0.428,2.888,0.971c0.969,0.644,1.968,1.473,0.703,2.933
		c-1.361,1.563-1.243,3.994-2.944,5.439c-0.299,0.256-0.511,1.111-0.732,0.917c-1.169-1.042-2.73-1.261-3.955-2.05
		C192.491,501.53,193.523,500.505,193.543,500.134z"/>
	<path fill-rule="evenodd" clip-rule="evenodd" fill="#F0E7D5" d="M100.078,355.483c-1.525-1.514-1.146-3.34-1.264-4.931
		c-0.073-0.979,1.105-1.284,2.106-1.325c1.854-0.073,3.707-0.206,5.56-0.31c1.015-0.058,2.014-0.081,1.6,1.448
		c-0.02,0.071-0.032,0.144-0.047,0.214c-0.28,1.264,1.257,2.643-0.232,3.829c-1.196,0.957-2.646,0.244-3.973,0.563
		C102.611,355.264,101.245,354.735,100.078,355.483z"/>
	<path fill-rule="evenodd" clip-rule="evenodd" fill="#F1E9D7" d="M82.779,358.701c-0.209-0.336-0.397-0.629-0.575-0.927
		c-0.808-1.357-0.881-2.949-1.388-4.402c1.258-0.434,2.496-1.123,3.781-1.227c1.171-0.092,2.175-0.494,3.25-0.804
		c1.461-0.423,2.678-0.337,2.506,1.696c-0.032,0.386,0.09,0.681,0.252,1.018c0.751,1.578,0.232,2.566-1.451,2.993
		C87.048,357.58,84.949,358.137,82.779,358.701z"/>
	<path fill-rule="evenodd" clip-rule="evenodd" fill="#F1EAD8" d="M266.194,447.712c1.921,0.749,1.499,2.593,1.722,4.012
		c0.181,1.152-0.628,1.329-1.858,1.561c-1.926,0.358-3.886,0.339-5.746,0.737c-1.952,0.415-1.921-0.853-1.936-1.768
		c-0.062-3.422,0.004-3.48,3.413-4.164C263.218,447.803,264.71,447.83,266.194,447.712z"/>
	<path fill-rule="evenodd" clip-rule="evenodd" fill="#F1EAD8" d="M311.531,368.443c1.459,0.985,1.197,2.662,1.666,3.994
		c0.344,0.976,0.182,2.134,0.547,3.092c0.791,2.075-0.639,2.417-1.982,2.55c-3.385,0.339-3.469,0.285-4.242-4.044
		c-0.141-0.794-0.893-1.64-0.367-2.419c0.488-0.723-1.023-1.408,0.127-2.016C308.609,368.897,310.046,368.668,311.531,368.443z"/>
	<path fill-rule="evenodd" clip-rule="evenodd" fill="#F1EBD9" d="M199.583,318.05c-0.104,0.866-1.318,1.483-2.105,2.395
		c-3.111,3.598-3.578,3.594-6.95,0.337c-0.679-0.655-0.268-1.291,0.184-1.656c1.7-1.381,2.963-3.128,4.383-4.751
		c0.583-0.668,1.669-1.842,2.516-0.028C198.154,315.509,200.143,315.738,199.583,318.05z"/>
	<path fill-rule="evenodd" clip-rule="evenodd" fill="#F1EAD8" d="M216.859,463.491c0.802,0.804,2.317,1.382,2.853,2.827
		c0.561,1.512-1.115,2.202-1.732,3.163c-0.659,1.025-1.423,2.257-2.57,3.007c-0.234,0.154-0.362,0.597-0.58,0.629
		c-1.815,0.266-2.371-1.814-3.968-2.197c-0.644-0.152-0.156-1.531,0.266-2.142c1.152-1.666,2.416-3.257,3.714-4.812
		C215.23,463.5,215.796,463.009,216.859,463.491z"/>
	<path fill-rule="evenodd" clip-rule="evenodd" fill="#F1E7D6" d="M206.108,311.212c-0.856-1.197-1.985-2.335-2.555-3.707
		c-0.493-1.182,0.899-1.54,1.717-2.065c1.294-0.83,2.611-1.636,3.822-2.577c1.167-0.912,1.867-0.839,2.81,0.421
		c2.49,3.335,1.668,3.235-1.09,5.357c-0.935,0.723-2.013,1.272-2.889,2.053C207.39,311.17,206.842,311.001,206.108,311.212z"/>
	<path fill-rule="evenodd" clip-rule="evenodd" fill="#F0E6D4" d="M203.875,487.411c-0.514-0.209-1.125-0.44-1.723-0.698
		c-1.216-0.525-1.564-1.607-0.702-2.424c1.564-1.477,1.944-3.591,3.266-5.238c1.253-1.562,1.999-0.486,2.889-0.177
		c1.15,0.398,2.336,0.988,2.013,2.591c-0.466,2.318-2.367,3.898-3.159,6.104C206.065,488.665,204.819,487.694,203.875,487.411z"/>
	<path fill-rule="evenodd" clip-rule="evenodd" fill="#F1EAD8" d="M272.732,310.883c1.254,1.298,3.604,2.512,5.311,4.508
		c0.271,0.317,0.488,0.684,0.113,0.893c-1.18,0.659-1.441,2.071-2.549,2.857c-0.898,0.638-1.564,0.522-2.045-0.09
		c-0.992-1.267-2.434-1.917-3.614-2.913c-1.806-1.523-1.994-2.703-0.186-4.299C270.418,311.259,270.407,309.368,272.732,310.883z"/>
	<path fill-rule="evenodd" clip-rule="evenodd" fill="#F1EAD7" d="M175.31,341.911c1.114,0.719,2.142,1.831,2.966,3.16
		c0.243,0.392,0.205,0.587-0.2,0.848c-2.07,1.328-3.766,3.161-5.999,4.291c-1,0.505-1.632,0.233-2.244-0.474
		c-0.229-0.263-0.325-0.639-0.499-0.955c-1.593-2.888-1.607-2.993,1.309-4.559c0.953-0.512,1.919-0.982,2.511-1.873
		C173.698,341.531,174.336,341.698,175.31,341.911z"/>
	<path fill-rule="evenodd" clip-rule="evenodd" fill="#F1EAD8" d="M152.279,351.651c0.149-0.58,0.322-1.027,1.076-1.16
		c1.951-0.344,3.868-0.903,5.825-1.214c1.954-0.308,1.819,1.632,2.231,2.62c0.521,1.249,0.979,2.937-1.473,3.189
		c-1.72,0.181-3.389,0.803-5.105,1.048C152.703,356.436,151.475,354.212,152.279,351.651z"/>
	<path fill-rule="evenodd" clip-rule="evenodd" fill="#F1EAD8" d="M187.124,518.761c-1.863-0.125-2.623-1.848-3.924-2.782
		c-0.458-0.327-0.335-0.946,0.247-1.607c0.994-1.131,2.233-2.033,2.905-3.537c0.86-1.928,3.076-2.072,4.745-0.34
		c0.544,0.568,1.266,0.902,1.716,1.536c-1.677,2.424-3.667,4.562-5.652,6.711L187.124,518.761z"/>
	<path fill-rule="evenodd" clip-rule="evenodd" fill="#F1EBD9" d="M285.289,447.577c-0.256,0.499-0.395,0.976-1.23,1.197
		c-2.135,0.565-4.207,1.389-6.27,2.205c-0.729,0.287-0.881-0.141-1.156-0.556c-0.871-1.335-0.885-2.894-1.168-4.385
		c-0.072-0.394,0.074-0.478,0.383-0.578c2.227-0.73,4.426-1.554,6.68-2.183C283.822,442.914,285.718,445.906,285.289,447.577z"/>
	<path fill-rule="evenodd" clip-rule="evenodd" fill="#F1EAD8" d="M181.953,331.135c0.444-0.534,1.18-0.83,1.312-1.624
		c0.375-2.271,1.788-1.775,3.226-1.202c0.995,0.396,1.373,1.597,2.535,1.854c0.444,0.098,0.249,0.845,0.019,1.152
		c-1.518,2.02-2.75,4.23-4.175,6.29c-1.058,1.534-1.731-0.656-2.667-0.947c-2.379-1.186-2.417-1.277-1.097-3.58
		C181.46,332.456,181.367,331.647,181.953,331.135z"/>
	<path fill-rule="evenodd" clip-rule="evenodd" fill="#F1EAD8" d="M137.014,351.085c1.76,0.126,3.514-0.133,5.29,0.366
		c2.35,0.661,1.316,2.566,1.548,3.887c0.23,1.312-0.855,1.311-2.063,1.565c-2.053,0.438-3.938-0.749-5.958-0.059
		c-0.986,0.337-1.93-0.251-1.401-1.603c0.377-0.968,0.155-1.834-0.199-2.722C134.412,350.599,135.847,351.099,137.014,351.085z"/>
	<path fill-rule="evenodd" clip-rule="evenodd" fill="#F1ECD9" d="M293.843,444.035c-0.783-1.34-1.688-2.566-2.234-3.933
		c-0.383-0.959,0.377-1.795,1.176-2.375c0.793-0.58,1.645-1.084,2.449-1.646c2.5-1.751,3.553-1.618,5.475,0.734
		c1.061,1.298,0.33,2.362-0.65,3.112c-1.787,1.366-3.707,2.559-5.578,3.814C294.322,443.85,294.126,443.907,293.843,444.035z"/>
	<path fill-rule="evenodd" clip-rule="evenodd" fill="#F1EDDA" d="M240.972,301.437c-3.729-0.858-4.675-2.255-3.513-5.151
		c0.194-0.485,0.319-1.031,1.011-0.87c2.341,0.538,4.803,0.19,7.114,1.032c0.92,0.333,1.391,0.728,1.058,1.727
		c-0.024,0.071-0.042,0.143-0.057,0.214C245.73,302.432,245.598,302.501,240.972,301.437z"/>
	<path fill-rule="evenodd" clip-rule="evenodd" fill="#958262" d="M173.089,386.916c-0.513,1.986-1.024,3.97-1.537,5.953
		C170.208,390.546,170.636,388.884,173.089,386.916z"/>
	<path fill-rule="evenodd" clip-rule="evenodd" fill="#8C8765" d="M179.19,366.402c-0.614,1.957-1.228,3.916-1.839,5.87
		C176.369,369.128,176.735,367.956,179.19,366.402z"/>
	<path fill-rule="evenodd" clip-rule="evenodd" fill="#E89E91" d="M181.953,331.135c-0.205,0.693-0.247,1.51-0.647,2.058
		c-1.161,1.601-0.57,2.615,0.897,3.465c-3.393-0.876-3.454-1.063-1.249-3.928C181.338,332.231,181.184,331.394,181.953,331.135z"/>
	<path fill-rule="evenodd" clip-rule="evenodd" fill="#8F8868" d="M190.658,359.178c-0.316,1.784-0.726,3.482-3.113,3.343
		C188.583,361.408,189.62,360.293,190.658,359.178z"/>
	<path fill-rule="evenodd" clip-rule="evenodd" fill="#A2A068" d="M263.593,389.798c-0.939-0.565-1.348-1.813-2.582-1.993
		c0.303-1.271,1.18-0.536,1.85-0.531C263.113,388.113,264.002,388.766,263.593,389.798z"/>
	<path fill-rule="evenodd" clip-rule="evenodd" fill="#E8998E" d="M137.014,351.085c-1.109,0.128-2.122,0.441-2.782,1.436
		C134.325,350.373,134.572,350.248,137.014,351.085z"/>
	<path fill-rule="evenodd" clip-rule="evenodd" fill="#664031" d="M210.596,404.167c0.45-0.039,0.832-0.199,1.084-0.6
		c0.86-0.578,1.689-1.217,2.714-1.497c0.447-0.039,0.829-0.202,1.091-0.585c0.968-0.374,1.909-0.797,2.742-1.429
		c0.276,0.022,0.553,0.047,0.828,0.071c1.588,2.736,3.229,5.447,4.734,8.23c0.584,1.081,0.927,0.764,1.784,0.282
		c5.234-2.96,10.641-5.622,15.565-9.114c0.072-0.052,0.269,0.066,0.406,0.105c-1.252,5.767-5.037,9.628-9.601,12.969
		c-5.249,3.84-11.279,4.867-17.468,4.329c-4.622-0.406-8.872-2.419-12.373-5.674c-1.442-1.502-0.108-2.134,0.899-2.868
		c0.439-0.076,0.834-0.222,1.081-0.627c0.861-0.575,1.688-1.217,2.713-1.497c0.451-0.039,0.836-0.199,1.085-0.6
		C208.743,405.088,209.57,404.449,210.596,404.167z"/>
	<path fill-rule="evenodd" clip-rule="evenodd" fill="#F1EDD8" d="M123.085,445.984c-1.657-0.233-1.965-1.199-1.423-2.628
		c0.48-1.954,2.448-2.136,3.778-2.878c7.507-4.188,15.013-8.385,22.559-12.502c7.278-3.973,14.451-8.129,21.794-11.988
		c2.177-1.144,4.39-2.284,6.43-3.697c1.98-0.396,3.463-1.8,5.139-2.741c4.593-2.581,9.343-4.889,13.777-7.753
		c3.637-1.617,7.039-3.687,10.515-5.597c2.845-1.563,5.827-2.918,8.465-4.85c7.385-3.936,14.665-8.058,21.999-12.082
		c6.951-3.815,13.928-7.598,20.854-11.457c9.609-5.356,19.196-10.752,28.864-16.004c8.635-4.693,17.164-9.58,25.807-14.271
		c6.014-3.26,11.998-6.572,17.98-9.892c6.361-3.53,12.764-6.992,19.131-10.514c7.068-3.908,14.111-7.868,21.193-11.744
		c8.496-4.656,16.926-9.428,25.441-14.049s16.951-9.397,25.424-14.095c5.986-3.315,12.053-6.489,18.018-9.84
		c5.645-3.168,11.303-6.324,16.986-9.42c5.244-2.854,10.434-5.801,15.688-8.63c4.418-2.377,8.785-4.864,13.172-7.304
		c5.795-3.217,11.568-6.475,17.385-9.652c3.26-1.782,6.516-3.579,9.768-5.381c0.822-0.454,1.592-1.448,2.742-0.653
		c0.881,0.728,1.012,1.862,1.525,2.792c-0.119,0.893-0.941,1.065-1.539,1.395c-17.51,9.659-35.01,19.332-52.525,28.982
		c-12.014,6.622-24.008,13.284-36.014,19.926c-19.666,10.885-39.354,21.736-59.029,32.6c-20.061,11.079-40.127,22.146-60.18,33.233
		c-18.201,10.064-36.412,20.115-54.628,30.156c-12.14,6.696-24.247,13.454-36.426,20.078c-4.806,2.704-9.643,5.349-14.477,8.001
		c-1.337,0.733-2.668,1.468-3.842,2.454c-4.519,1.802-8.564,4.51-12.835,6.784c-2.1,1.118-4.296,2.102-6.123,3.685
		c-4.411,1.772-8.402,4.349-12.542,6.632c-13.205,7.273-26.418,14.54-39.604,21.851
		C125.334,445.485,124.355,446.222,123.085,445.984z"/>
	<path fill-rule="evenodd" clip-rule="evenodd" fill="#F6C63C" d="M215.685,394.963c15.769-8.697,31.541-17.382,47.301-26.091
		c19.826-10.953,39.635-21.942,59.469-32.889c17.604-9.714,35.234-19.386,52.84-29.097c19.391-10.693,38.766-21.414,58.152-32.119
		c17.662-9.754,35.332-19.499,52.998-29.249c9.885-5.455,19.768-10.909,29.65-16.363c0.824,0.934,1.545,1.936,1.998,3.104
		c-2.461-0.382-4.02,1.501-5.896,2.467c-4.811,2.477-9.514,5.163-14.23,7.815c-4.564,2.568-9.266,4.887-13.736,7.64
		c-3.01,1.853-6.258,3.316-9.379,4.993c-3.066,1.646-6.109,3.342-9.158,5.018c-3.355,1.844-6.721,3.669-10.059,5.542
		c-3.094,1.735-6.133,3.568-9.24,5.277c-3.225,1.772-6.525,3.402-9.748,5.177c-3.107,1.715-6.131,3.584-9.24,5.299
		c-6.045,3.334-12.137,6.587-18.184,9.913c-5.287,2.911-10.543,5.882-15.818,8.812c-3.668,2.039-7.322,4.095-11.057,6.024
		c-4.463,2.303-8.715,5.008-13.102,7.455c-3.094,1.728-6.277,3.291-9.393,4.978c-3.127,1.691-6.211,3.464-9.328,5.177
		c-3.289,1.806-6.611,3.554-9.889,5.377c-3.102,1.728-6.143,3.564-9.252,5.273c-3.221,1.771-6.566,3.324-9.721,5.206
		c-3.004,1.79-6.045,3.489-9.123,5.146c-6.139,3.309-12.25,6.666-18.346,10.057c-5.402,3.006-10.707,6.194-16.168,9.093
		c-3.586,1.905-7.096,3.94-10.727,5.769c-4.482,2.257-8.72,5-13.108,7.451c-3.095,1.726-6.28,3.284-9.401,4.963
		c-3.069,1.654-6.128,3.333-9.158,5.054c-3.325,1.893-6.62,3.827-10.045,5.541c-1.584,0.791-3.103,1.737-4.646,2.62
		c-1.307,0.742-2.562,1.499-4.03,1.86C216.245,396.627,215.939,395.811,215.685,394.963z"/>
	<path fill-rule="evenodd" clip-rule="evenodd" fill="#F6C63C" d="M514.57,226.364c-3.518,1.868-7.049,3.708-10.551,5.608
		c-4.299,2.336-8.582,4.705-12.855,7.087c-3.623,2.021-7.203,4.118-10.838,6.118c-4.387,2.41-8.832,4.713-13.211,7.139
		c-3.938,2.184-7.801,4.498-11.723,6.705c-2.875,1.618-5.795,3.146-8.684,4.732c-4.828,2.655-9.631,5.354-14.451,8.019
		c-4.291,2.372-8.627,4.681-12.92,7.055c-4.914,2.717-9.807,5.477-14.717,8.195c-4.346,2.409-8.758,4.72-13.105,7.136
		c-4.848,2.693-9.744,5.297-14.516,8.141c-2.943,1.754-6.053,3.266-9.047,4.967c-3.232,1.836-6.531,3.544-9.793,5.33
		c-3.951,2.164-7.9,4.331-11.832,6.53c-4.557,2.546-9.025,5.253-13.66,7.65c-2.934,1.516-5.785,3.168-8.686,4.733
		c-4.893,2.638-9.783,5.282-14.662,7.948c-4.357,2.383-8.707,4.778-13.043,7.206c-5.021,2.808-10.004,5.688-15.037,8.473
		c-4.164,2.302-8.396,4.477-12.563,6.768c-3.627,1.994-7.188,4.105-10.812,6.104c-4.319,2.38-8.698,4.656-13.01,7.05
		c-5.251,2.918-10.447,5.932-15.687,8.866c-2.938,1.647-5.864,3.331-8.896,4.786c-1.981,0.951-3.616,2.633-5.936,2.871
		c-0.622-0.516-1.283-1.003-1.282-1.932c4.581-3.021,9.525-5.403,14.298-8.085c6.865-3.85,13.786-7.598,20.678-11.4
		c5.493-3.033,11.038-5.983,16.456-9.147c10.914-6.371,22.152-12.16,33.123-18.44c8.281-4.742,16.732-9.218,25.129-13.772
		c8.82-4.784,17.611-9.618,26.398-14.457c10.111-5.574,20.209-11.178,30.307-16.773c9.043-5.013,18.072-10.049,27.121-15.049
		c25.559-14.112,51.127-28.214,76.693-42.317c7.557-4.168,15.121-8.324,22.68-12.495c1.744-0.964,3.422-2.076,5.227-2.904
		c0.877-0.4,1.381-0.969,1.824-1.711C513.847,224.027,514.318,225.14,514.57,226.364z"/>
	<path fill-rule="evenodd" clip-rule="evenodd" fill="#F2E8C2" d="M568.423,232.349c-0.703-0.155-1.105-0.45-0.924-1.197
		c0.168-0.689,0.402-1.232,1.289-0.973c0.607,0.18,1.068,0.422,0.863,1.183C569.472,232.032,569.25,232.625,568.423,232.349z"/>
	<path fill-rule="evenodd" clip-rule="evenodd" fill="#DFD3A9" d="M559.443,236.951c-0.18,0.523-0.439,0.922-1.104,0.752
		c-0.852-0.222-0.936-0.875-0.781-1.54c0.143-0.628,0.705-0.673,1.234-0.546C559.527,235.792,559.679,236.287,559.443,236.951z"/>
	<path fill-rule="evenodd" clip-rule="evenodd" fill="#F5E1A2" d="M548.527,242.925c-0.438,0.627-0.674,1.326-1.529,1.084
		c-0.887-0.25-1.125-0.984-0.826-1.686c0.275-0.648,0.617-1.598,1.705-1.188C548.855,241.503,548.162,242.418,548.527,242.925z"/>
	<path fill-rule="evenodd" clip-rule="evenodd" fill="#E0CD93" d="M538.371,248.353c-0.266,0.586-0.604,1.332-1.283,1.159
		c-0.523-0.132-1.033-0.857-0.854-1.511c0.207-0.739,1-1.07,1.672-1.015C538.753,247.058,538.425,247.809,538.371,248.353z"/>
	<path fill-rule="evenodd" clip-rule="evenodd" fill="#F4E5B6" d="M589.408,220.293c-0.508-0.259-1.383-0.373-0.947-1.285
		c0.336-0.708,1.035-0.971,1.838-0.737c0.729,0.21,1.104,0.669,0.898,1.452C590.914,220.784,590.15,220.454,589.408,220.293z"/>
	<path fill-rule="evenodd" clip-rule="evenodd" fill="#DFD3AD" d="M579.726,226.036c-0.695-0.146-1.023-0.504-0.826-1.236
		c0.166-0.621,0.402-1.076,1.186-0.889c0.752,0.179,1.164,0.516,0.898,1.366C580.777,225.94,580.423,226.27,579.726,226.036z"/>
	<path fill-rule="evenodd" clip-rule="evenodd" fill="#664031" d="M211.606,386.635c-3.913,3.294-8.652,5.194-13.031,7.701
		c-1.409,0.807-2.638,2.092-4.466,1.988c-1.503-0.734-1.236-2.384-1.246-3.438c-0.037-4.444,0.623-8.685,2.946-12.763
		c1.388-2.436,3.082-4.564,4.914-6.445c3.283-3.362,7.538-5.235,12.197-6.308c3.811-0.877,7.439-0.831,11.081,0.497
		c-1.036,1.101-2.548,1.312-3.813,1.976c-4.23,2.223-8.447,4.462-12.626,6.777c-0.731,0.405-1.118,0.504-0.678,1.312
		C208.46,380.832,210.032,383.735,211.606,386.635z"/>
	<path fill-rule="evenodd" clip-rule="evenodd" fill="#F2E8C2" d="M540.953,179.778c0.789,0.145,1.084,0.572,0.834,1.372
		c-0.211,0.674-0.602,0.897-1.289,0.71c-0.754-0.207-1.08-0.586-0.824-1.398C539.888,179.775,540.277,179.538,540.953,179.778z"/>
	<path fill-rule="evenodd" clip-rule="evenodd" fill="#DFD19E" d="M531.707,186.084c-0.248,0.979-0.547,1.402-1.314,1.153
		c-0.586-0.192-1.137-0.387-0.914-1.193c0.232-0.845,0.896-0.874,1.568-0.784C531.75,185.354,531.748,185.874,531.707,186.084z"/>
	<path fill-rule="evenodd" clip-rule="evenodd" fill="#F4E6B9" d="M563.041,169.221c-0.121,0.916-1.002,1.146-1.582,1.073
		c-0.791-0.097-0.666-0.958-0.518-1.576c0.197-0.821,0.699-1.204,1.588-0.904C563.298,168.072,563.214,168.61,563.041,169.221z"/>
	<path fill-rule="evenodd" clip-rule="evenodd" fill="#DFD4AE" d="M553.125,174.844c-0.166,0.712-0.594,0.932-1.291,0.728
		c-0.645-0.189-1-0.507-0.803-1.254c0.211-0.801,0.641-1.039,1.438-0.792C553.193,173.75,553.353,174.187,553.125,174.844z"/>
	<path fill-rule="evenodd" clip-rule="evenodd" fill="#F5E1A5" d="M519.841,191.463c0.586,0.334,1.33,0.651,1.145,1.555
		c-0.17,0.86-0.855,0.843-1.547,0.688c-0.828-0.186-1.305-0.692-1.18-1.541C518.396,191.253,519.115,191.349,519.841,191.463z"/>
	<path fill-rule="evenodd" clip-rule="evenodd" fill="#DFD09B" d="M511.228,198.299c-0.5,0.595-1.109,1.139-1.82,0.978
		c-0.869-0.196-0.643-1.218-0.742-1.824c-0.076-0.47,0.943-0.971,1.26-0.727C510.419,197.106,511.117,197.507,511.228,198.299z"/>
	<path fill-rule="evenodd" clip-rule="evenodd" fill="#93927E" d="M203.003,408.387c-0.263,0.966-1.685,1.573-0.899,2.871
		c-0.683-0.233-1.366-0.465-2.049-0.698C200.347,408.898,201.801,408.81,203.003,408.387z"/>
	<path fill-rule="evenodd" clip-rule="evenodd" fill="#E5B784" d="M123.085,445.984c14.115-7.735,28.23-15.462,42.342-23.202
		c3.776-2.069,7.543-4.159,11.305-6.256c0.516-0.288,0.992-0.614,1.62-0.425c0.868-0.123,1.649-0.047,2.051,0.896
		c-1.828,1.923-4.343,2.738-6.543,4.062c-5.18,3.104-10.489,6-15.749,8.949c-8.886,4.988-17.868,9.811-26.717,14.869
		c-2.256,1.293-4.653,2.338-6.985,3.493C123.643,447.753,123.214,446.953,123.085,445.984z"/>
	<path fill-rule="evenodd" clip-rule="evenodd" fill="#E5B784" d="M176.356,412.548c-1.886,2.137-4.625,2.931-6.967,4.319
		c-4.606,2.738-9.391,5.179-14.094,7.753c-7.189,3.933-14.388,7.849-21.555,11.823c-4.056,2.252-8.054,4.606-12.077,6.915
		c-1.021-0.438-1.414-1.293-1.554-2.318c3.427-1.897,6.849-3.8,10.278-5.695c4.193-2.318,8.391-4.621,12.583-6.939
		c4.653-2.571,9.3-5.157,13.956-7.726c4.196-2.315,8.434-4.56,12.583-6.956c1.923-1.111,4.079-1.817,5.77-3.339
		c0.399-0.358,0.976-0.149,1.471-0.024C177.365,411.226,177.027,411.919,176.356,412.548z"/>
	<path fill-rule="evenodd" clip-rule="evenodd" fill="#684234" d="M215.685,394.963c1.09,0.4,1.404,1.217,1.227,2.293
		c-0.482,0.33-0.965,0.659-1.447,0.988c-1.373,0.487-2.596,1.251-3.813,2.028c-4.006,2.19-8.021,4.365-12.01,6.585
		c-0.479,0.269-0.887,0.433-1.4,0.229c-1.104,0.052-1.502-0.373-0.965-1.426c1.186-1.996,3.482-2.389,5.259-3.468
		C206.804,399.597,211.289,397.35,215.685,394.963z"/>
	<path fill-rule="evenodd" clip-rule="evenodd" fill="#159E5B" d="M197.276,405.661c-0.099,0.76,0.335,1.16,0.967,1.426
		c-0.843,1.615-2.608,1.918-3.995,2.712c-4.114,2.35-8.31,4.555-12.453,6.851c-0.462,0.258-0.848,0.536-1.392,0.349
		c-0.684-0.3-1.367-0.597-2.051-0.896c0.735-1.842,2.706-1.93,4.109-2.754c4.462-2.622,9.06-5.015,13.596-7.512
		C196.462,405.612,196.831,405.459,197.276,405.661z"/>
	<path fill-rule="evenodd" clip-rule="evenodd" fill="#A99485" d="M211.651,400.273c0.978-1.229,2.184-2.025,3.813-2.028
		C214.441,399.388,213.152,400.03,211.651,400.273z"/>
	<path fill-rule="evenodd" clip-rule="evenodd" fill="#A99385" d="M218.227,400.056c-0.541,1.195-1.564,1.461-2.742,1.429
		C216.153,400.534,217.033,399.995,218.227,400.056z"/>
	<path fill-rule="evenodd" clip-rule="evenodd" fill="#B09D8F" d="M214.394,402.07c-0.606,1.042-1.573,1.426-2.714,1.497
		C212.301,402.556,213.033,401.74,214.394,402.07z"/>
	<path fill-rule="evenodd" clip-rule="evenodd" fill="#B09D8F" d="M210.596,404.167c-0.605,1.045-1.575,1.426-2.714,1.497
		C208.504,404.653,209.234,403.839,210.596,404.167z"/>
	<path fill-rule="evenodd" clip-rule="evenodd" fill="#B09D8F" d="M206.797,406.263c-0.604,1.042-1.573,1.426-2.713,1.497
		C204.707,406.75,205.438,405.936,206.797,406.263z"/>
	<path fill-rule="evenodd" clip-rule="evenodd" fill="#6B4536" d="M213.054,389.649c0.474,0.612,1.259,1.02,1.282,1.932
		c-0.869,1.782-2.862,2.004-4.312,2.898c-4.186,2.593-8.588,4.84-12.941,7.158c-0.514,0.275-1.067,0.843-1.799,0.477
		c-1.313-0.032-1.197-0.838-0.93-1.726c1.33-2.077,3.683-2.638,5.655-3.727C204.331,394.278,208.484,391.574,213.054,389.649z"/>
	<path fill-rule="evenodd" clip-rule="evenodd" fill="#149E5C" d="M194.354,400.388c0.418,0.519,0.093,1.436,0.93,1.726
		c-1.194,1.819-3.339,2.181-5.036,3.2c-4.147,2.495-8.427,4.77-12.645,7.151c-0.431,0.245-0.822,0.209-1.248,0.083
		c0.133-0.728,0.263-1.455,0.395-2.188c0.283-0.799,0.979-1.278,1.623-1.637c4.959-2.783,9.96-5.492,14.945-8.226
		C193.653,400.317,193.986,400.213,194.354,400.388z"/>
</g>
<g id="left_arm">
	
		<linearGradient id="SVGID_1_" gradientUnits="userSpaceOnUse" x1="945.5776" y1="437.5278" x2="991.1036" y2="411.2434" gradientTransform="matrix(-1.0826 -0.2944 -0.2624 0.965 1607.9845 152.0182)">
		<stop  offset="0" style="stop-color:#FFFFFF"/>
		<stop  offset="0.0194" style="stop-color:#FDFBF9"/>
		<stop  offset="0.1786" style="stop-color:#EBDECE"/>
		<stop  offset="0.3404" style="stop-color:#DDC5AB"/>
		<stop  offset="0.5028" style="stop-color:#D2B28F"/>
		<stop  offset="0.6661" style="stop-color:#CAA57C"/>
		<stop  offset="0.8311" style="stop-color:#C69D70"/>
		<stop  offset="1" style="stop-color:#C49A6C"/>
	</linearGradient>
	<path fill="url(#SVGID_1_)" stroke="#000000" stroke-width="0.8769" stroke-miterlimit="10" d="M464.253,283.176
		c29.861-27.014-3.744-7.65-1.375-27.364c3.498-29.039-5.82-18.199-7.621-16.924c-3.699,2.613-3.609,13.566-4.268,14.188
		c-0.654,0.621-3.988-18.998-13.744,3.486c0,0-0.555-2.736-3.686-2.919c-3.342-0.195-5.012,1.211-7.406,7.168
		c-1.098,2.726-9.379-0.587-8.854,16.435c10.188,22.459,14.34,36.362,14.34,36.362l23.133-4.591
		C454.773,309.017,457.421,289.36,464.253,283.176z"/>
	<path fill="#2E3C49" stroke="#000000" stroke-width="0.9891" stroke-miterlimit="10" d="M451.46,427.899
		c-8.754-19.566-9-24.057-10-49.891c-0.262-6.756-22.32-65.276-19.652-69.942c2.666-4.666,33.854-26.309,46.984-18.334
		c42,106.893,21.668,135.667,21.668,135.667s-3.5,19.5-26.5,10.946L451.46,427.899z"/>
</g>
</svg>
