<?xml version="1.0" encoding="utf-8"?>
<!-- Generator: Adobe Illustrator 16.0.4, SVG Export Plug-In . SVG Version: 6.00 Build 0)  -->
<!DOCTYPE svg PUBLIC "-//W3C//DTD SVG 1.1//EN" "http://www.w3.org/Graphics/SVG/1.1/DTD/svg11.dtd">
<svg version="1.1" id="Layer_1" xmlns="http://www.w3.org/2000/svg" xmlns:xlink="http://www.w3.org/1999/xlink" x="0px" y="0px"
	 width="239.58px" height="511.799px" viewBox="0 0 239.58 511.799" enable-background="new 0 0 239.58 511.799"
	 xml:space="preserve">
<path fill="#232323" stroke="#232323" stroke-miterlimit="10" d="M52.349,498.792c-0.293,3.709-3.152,6.765,11.207,6.765
	c14.359,0,25.435-16.529,28.667-26.605c0-10.77-2.619-10.818-15.333-9.728C66.556,472.557,60.223,487.386,52.349,498.792z"/>
<path fill="#232323" stroke="#232323" stroke-miterlimit="10" d="M161.98,506.145c0.279,3.711-2.075,7.169,12.113,4.963
	c14.189-2.205,22.594-20.24,24.239-30.693c-1.654-10.642-4.25-10.287-16.646-7.256C171.989,478.039,168.008,493.665,161.98,506.145z
	"/>
<path fill="#BE9D76" d="M88.807,155.574c9.865-6,29.866-2,30.532,0s-4.354,24,3.156,25.333s27.969-5.333,32.406,5.333
	s30.438,58.667,39.771,64.667s6,21.999,0,23.333s-48.536-52.666-48.536-52.666s-11.292,84.665,3.955,95.999
	s23.247,94,33.247,124.667s0.668,37.333-2.666,36.667s-75.334-166-75.334-166s-12,162.001-23.333,161.334s-14.705,4.71-12-51.334
	c2.265-46.915,0.667-111.999,1.333-120.666s-3.938-82.666-3.302-88s-26.698,33.332-36.698,42.666s-30.667,18.667-31.333,6.667
	s66.667-80.666,62.667-85.333c0,0,2-7.333,18-1.333C90.672,168.908,88.807,155.574,88.807,155.574z"/>
<path fill="#382F2B" stroke="#000000" stroke-width="1.9437" stroke-miterlimit="10" d="M136.885,17.098
	c8.111-12.86,21.862-27.271,48.269-6.995c26.406,20.276,36.995,52.867,29.277,76.524c-7.72,23.657,12.367,48.908,25.149,35.908
	c0,0-5.259,44.67-50.23,13.686C144.379,105.236,136.885,17.098,136.885,17.098z"/>
<path id="ear" fill="#B29067" stroke="#000000" stroke-width="1.3154" stroke-miterlimit="10" d="M150.592,104.084
	c3.5-1.694,14.5-12.14,16.5-2.417s-7.5,38.607-20.5,25.165S150.592,104.084,150.592,104.084z"/>
<path id="head" fill="#BE9D76" stroke="#4C4135" stroke-miterlimit="10" d="M153.095,86.321c0-29.44-24.864-53.307-55.533-53.307
	c-30.671,0-55.535,23.867-55.535,53.307c0,3.54,0.369,6.998,1.054,10.345c2.284,20.233,5.137,31.533,10.594,40.963
	c4.16,7.187,17.042,20.938,37.633,28.127c0,0,38.076-6.964,48.06-26.13c9.984-19.166,13.238-46.32,13.238-46.32l0,0
	C152.917,91.019,153.095,88.689,153.095,86.321z"/>
<path fill="#FFFFFF" stroke="#000000" stroke-width="1.6738" stroke-miterlimit="10" d="M74.6,99.593c0,0-4.137-6.713-7.527-7.255
	c-10.656-1.704-12.458,9.57-12.458,9.57S64.607,113.889,74.6,99.593z"/>
<ellipse fill="#1E1D1D" stroke="#000000" stroke-width="1.9351" stroke-miterlimit="10" cx="62.056" cy="100.756" rx="5.865" ry="5.269"/>
<path fill="#FFFFFF" stroke="#000000" stroke-width="1.6738" stroke-miterlimit="10" d="M113.316,101.861
	c0,0,2.332-7.352,9.807-7.352c8.859,0,9.807,11.266,9.807,11.266S118.414,115.615,113.316,101.861z"/>
<ellipse fill="#1E1D1D" stroke="#000000" stroke-width="1.9351" stroke-miterlimit="10" cx="120.865" cy="102.848" rx="5.865" ry="5.269"/>
<path fill="none" stroke="#000000" stroke-width="1.6738" stroke-miterlimit="10" d="M76.034,82.811
	c4.088,5.202,14.561,28.111,7.13,45.505c0,0,5.465,3.707,11.537,1.245c7.167,0.5,5.333-2.833,5.333-2.833"/>
<path fill="none" stroke="#000000" stroke-width="1.6738" stroke-miterlimit="10" d="M75.6,138.306
	c2.5,2.25,12.68,10.229,34.689,1.25"/>
<path stroke="#000000" stroke-width="1.6738" stroke-miterlimit="10" d="M49.157,78.901c-11.356,8.316,16.283-2.028,22.791,1.823
	C69.094,77.637,65.152,73.908,49.157,78.901z"/>
<path stroke="#000000" stroke-width="1.7616" stroke-miterlimit="10" d="M112.518,77.36c-13.169,6.192,17.778,1.093,24.367,6.228
	C134.151,79.928,130.316,75.411,112.518,77.36z"/>
<path fill="#382F2B" stroke="#000000" stroke-width="1.6738" stroke-miterlimit="10" d="M126.437,58.556
	c-13.202,4.063-35.97,7-43.931,4C74.6,63.982,43.192,83.682,31.467,83.588S-10.867,71.222,13.8,43.556s45.949-28.463,50.808-28.463
	S110,18.556,111.8,16.222s18.333-4.333,30,2.667s29.705,26,31.372,39.667s-1.334,30.378-11,43.022s-12.034,8.446-12.034,8.446
	s-5.298-14.777-1.632-23.79S128.839,73.222,126.437,58.556z"/>
<path fill="#A07EB9" d="M122.399,174.981c-2.852-5.254-15.176,8.195-20.621,8.782c-5.445,0.585-16.656-2.928-18.051-8.782
	c0,0-5.763-4.684-10.246-4.098c-4.482,0.585-12.85,8.196-17.333,10.538s2.698,14.636,7.441,18.149c0,0-2.943,16.391-1.534,27.515
	s2.551,33.371,2.551,33.371s-3.608,67.327-32.941,102.453c0,0,34.252,26.932,67.429,22.249c0,0,4.747,14.05,15.756,11.708
	c11.009-2.341,68.346-9.152,69.012-23.204c0.666-14.05,14.471-17.777,14.471-17.777l-43.807-96.6l-4.193-32.199
	c0,0-0.001-17.563,1.333-20.491C153,203.668,165,191.373,165,191.373l-10.371-12.88
	C146.333,174.395,124.952,179.684,122.399,174.981z"/>
<path fill="#BE9D76" d="M52.082,496.34c-2.489,13.603,25.538,2.081,31.349-9.517c5.811-11.597,6.992-7.303,5.75-18.69
	c-1.242-11.387-4.734-10.829-6.258-12.304c-1.525-1.476-10.574,1.173-12.496,3.205c-1.921,2.031-0.839,7.014-2.282,10.538
	C66.703,473.097,52.541,493.831,52.082,496.34z"/>
<path fill="#BE9D76" d="M160.906,504.249c-0.856,13.803,25.604-0.967,29.996-13.171c4.393-12.205,6.075-8.082,3.489-19.241
	s-5.986-10.191-7.675-11.476c-1.689-1.283-10.359,2.421-12.026,4.667c-1.666,2.245,0,7.064-1.014,10.735
	C172.663,479.434,161.063,501.704,160.906,504.249z"/>
<g>
	<g>
		<path fill="#232323" d="M57.389,483.471c0.417,1.951,1.15,3.656,2.033,5.44c1.836,3.707,2.133,6.66,1.467,10.729
			c-0.52,3.173,3.692,4.38,4.821,1.33c2.037-5.503,8.76-13.913,15.424-11.754c3.077,0.996,4.384-3.833,1.33-4.822
			c-9.576-3.102-18.598,7.203-21.576,15.246c1.607,0.443,3.214,0.887,4.821,1.33c0.486-2.966,1.128-6.376,0.25-9.33
			c-0.979-3.296-3.028-6.126-3.75-9.5C61.536,478.989,56.716,480.326,57.389,483.471L57.389,483.471z"/>
	</g>
</g>
<g>
	<g>
		<path fill="#232323" d="M162.889,496.221c0.379,2.563,1.729,8.509-0.356,10.567c1.309,1.01,2.617,2.02,3.926,3.029
			c2.152-4.472,5.854-8.126,9.509-11.394c3.484-3.115,9.348-7.86,14.418-6.707c3.14,0.713,4.474-4.107,1.33-4.822
			c-6-1.363-11.849,2.115-16.423,5.663c-5.071,3.933-10.323,8.862-13.15,14.736c-1.199,2.49,1.816,5.111,3.926,3.029
			c3.784-3.733,2.333-10.76,1.644-15.433C167.241,491.711,162.424,493.067,162.889,496.221L162.889,496.221z"/>
	</g>
</g>
<path fill="#BE9D76" d="M198.333,254.648c-13.778-14.969-36.41,8.241-56.638,18.908s-25.918,11.999-32.406,15.333
	s-16.39,23.334,76.179-11.333C185.468,277.557,209.839,267.148,198.333,254.648z"/>
<path fill="#BE9D76" d="M10.801,249.685c12-1.538,43.098,20.43,58.701,24.817s24.267,15.056,18.601,17.722
	c0,0-30.769,1.3-73.352-17.722C-14.229,261.557,10.801,249.685,10.801,249.685z"/>
<path fill="#BE9D76" d="M59.199,280.224c1.793-6.552,11.599-8.372,18.601-6.52s12.045,10.276,12.045,10.276
	s7.842-3.007,10.399-5.382s9.045,0,9.045,0l11.033,5.382c0,0,4.464,13.818-15.195,31.697c-14.992,13.879-16.987,9.212-16.987,9.212
	s-16.723-9.999-17.364-12.666S53.79,299.991,59.199,280.224z"/>
</svg>
