<?xml version="1.0" encoding="utf-8"?>
<!-- Generator: Adobe Illustrator 16.0.4, SVG Export Plug-In . SVG Version: 6.00 Build 0)  -->
<!DOCTYPE svg PUBLIC "-//W3C//DTD SVG 1.1//EN" "http://www.w3.org/Graphics/SVG/1.1/DTD/svg11.dtd">
<svg version="1.1" id="Layer_1" xmlns="http://www.w3.org/2000/svg" xmlns:xlink="http://www.w3.org/1999/xlink" x="0px" y="0px"
	 width="535.291px" height="199.814px" viewBox="0 0 535.291 199.814" enable-background="new 0 0 535.291 199.814"
	 xml:space="preserve">
<g id="strum_arm">
	
		<linearGradient id="SVGID_1_" gradientUnits="userSpaceOnUse" x1="333.8516" y1="136.9644" x2="509.7003" y2="59.7915" gradientTransform="matrix(0.9851 0.1723 -0.1723 0.9851 51.0496 -32.2752)">
		<stop  offset="0" style="stop-color:#FFFFFF"/>
		<stop  offset="0.0194" style="stop-color:#FDFBF9"/>
		<stop  offset="0.1786" style="stop-color:#EBDECE"/>
		<stop  offset="0.3404" style="stop-color:#DDC5AB"/>
		<stop  offset="0.5028" style="stop-color:#D2B28F"/>
		<stop  offset="0.6661" style="stop-color:#CAA57C"/>
		<stop  offset="0.8311" style="stop-color:#C69D70"/>
		<stop  offset="1" style="stop-color:#C49A6C"/>
	</linearGradient>
	<path fill="url(#SVGID_1_)" stroke="#000000" stroke-width="2.4372" stroke-miterlimit="10" d="M359.323,118.932
		c0,0,51.5-29.74,76.382-15.908c24.878,13.824,73.015-21.917,73.015-21.917s41.765-24.352,20.571,28.006
		c0,0,9.036,20.188-8.245,29.97c-17.282,9.779-27.661,38.107-35.071,36.078c-7.407-2.033-52.208,13.318-52.208,13.318
		s-53.889-14.514-75.016-39.224C337.629,124.541,359.323,118.932,359.323,118.932z"/>
	<path fill="#2E3C49" stroke="#000000" stroke-width="2.4501" stroke-miterlimit="10" d="M52.648,0
		c55.896,5.304,66.946,10.132,130.044,38.797c16.505,7.497,179.533,31.819,188.042,42.833c8.512,11.02,28.877,100.722-3.615,118.183
		C67.601,158.891,19.079,82.977,19.079,82.977s-43.313-30.361,0.583-67.383L52.648,0z"/>
</g>
</svg>
